SplineFontDB: 3.0
FontName: LinLibertineBI
FullName: Linux Libertine Bold Italic
FamilyName: Linux Libertine
Weight: Bold
Copyright: Linux Libertine by Philipp H. Poll, Open Font under Terms of following Free Software Licenses:\nGPL (General Public License) and OFL (Open Font License).\nCreated with FontForge 1.0 (http://fontforge.sf.net) Sept 2003, 2004, 2005, 2006, 2007
UComments: "2003-8-29: Created.+AAoA-2004-7-25: v(1.0) release candidate+AAoA-2005-12-28: v(1.1.0) stable+AAoA-2006-01-01: v(2.0.0) stable+AAoA-2006-09-05: v(2.2.0) stable" 
Version: 2.7.x
ItalicAngle: -11.5
UnderlinePosition: -200
UnderlineWidth: 80
Ascent: 1638
Descent: 410
LayerCount: 2
Layer: 0 0 "Back" 
Layer: 1 0 "Fore" 
NeedsXUIDChange: 1
XUID: [1021 326 89955977 9462563]
FSType: 0
OS2Version: 0
OS2_WeightWidthSlopeOnly: 0
OS2_UseTypoMetrics: 0
CreationTime: 1162161130
ModificationTime: 1213882798
PfmFamily: 17
TTFWeight: 700
TTFWidth: 5
LineGap: 135
VLineGap: 0
Panose: 2 0 5 3 0 0 0 0 0 0
OS2TypoAscent: 1501
OS2TypoAOffset: 0
OS2TypoDescent: -499
OS2TypoDOffset: 0
OS2TypoLinegap: 0
OS2WinAscent: 1830
OS2WinAOffset: 0
OS2WinDescent: 500
OS2WinDOffset: 0
HheadAscent: 1830
HheadAOffset: 0
HheadDescent: -485
HheadDOffset: 0
OS2SubXSize: -19136
OS2SubYSize: 30576
OS2SubXOff: 30696
OS2SubYOff: 513
OS2SupXSize: 104
OS2SupYSize: 48
OS2SupXOff: 30664
OS2SupYOff: 11131
OS2StrikeYSize: 30584
OS2StrikeYPos: 11131
OS2FamilyClass: 261
OS2Vendor: 'PfEd'
Lookup: 4 0 1 "'liga' Standard Ligatures in Latin lookup 0"  {"'liga' Standard Ligatures in Latin lookup 0"  } ['liga' ('latn' <'dflt' > ) ]
Lookup: 4 0 0 "'dlig' optionale Ligaturen in Latin lookup 1"  {"'dlig' optionale Ligaturen in Latin lookup 1"  } ['dlig' ('latn' <'dflt' > ) ]
Lookup: 4 0 0 "'frac' Diagonal Fractions in Latin lookup 2"  {"'frac' Diagonal Fractions in Latin lookup 2"  } ['frac' ('latn' <'dflt' > ) ]

StartChar: exclam
Encoding: 33 33 1
Width: 516
GlyphClass: 2
Flags: HW
HStem: -25 228<179.1 342.9> 1328 20G<225.5 295>
VStem: 102 312<1073.93 1330.8> 147 228<8.4 170.9> 178 155<409.323 605.826>
LayerCount: 2
Fore
SplineSet
531 1348 m 0
 598 1348 661 1310 661 1230 c 0
 661 1218 659 1206 657 1193 c 0
 642 1123 614 1045 588 976 c 0
 569.469 926.821 547.325 868.895 525 800 c 0
 471.775 635.749 441 526 429 471 c 0
 420 432 411 386 336 386 c 0
 283 386 270 402 270 431 c 0
 270 448 274 470 279 495 c 0
 293 574 305 692 316 800 c 0
 323 879 326 938 326 982 c 0
 326 1033 329.192 1114.96 345 1193 c 0
 368.283 1307.94 468 1348 531 1348 c 0
165 89 m 0
 178 152 239 203 302 203 c 0
 357 203 395 164 395 112 c 0
 395 104 395 97 393 89 c 0
 380 27 319 -25 256 -25 c 0
 201 -25 163 15 163 67 c 0
 163 74 164 81 165 89 c 0
EndSplineSet
EndChar

StartChar: quotedbl
Encoding: 34 34 2
Width: 740
GlyphClass: 2
Flags: HW
HStem: 863 457<187.913 255.098 216 262 445.913 513.098 474 520>
LayerCount: 2
Fore
SplineSet
427 863 m 1
 396 870 l 1
 396 870 408 1198 410 1211 c 0
 420 1258 478 1320 566 1320 c 0
 631 1320 646 1298 646 1271 c 0
 646 1263 644 1254 642 1245 c 0
 636 1214 499 874 499 874 c 1
 427 863 l 1
685 863 m 1
 654 870 l 1
 654 870 666 1198 668 1211 c 0
 678 1258 736 1320 824 1320 c 0
 889 1320 904 1298 904 1271 c 0
 904 1263 902 1254 900 1245 c 0
 894 1214 757 874 757 874 c 1
 685 863 l 1
EndSplineSet
EndChar

StartChar: numbersign
Encoding: 35 35 3
Width: 949
GlyphClass: 2
Flags: HW
HStem: 370 115<51 216 389 507 679 846> 691 115<102 266 439 557 729 895>
VStem: 34 878<370 806>
LayerCount: 2
Fore
SplineSet
624 485 m 1
 698 691 l 1
 564 691 l 1
 537 618 515 558 488 485 c 1
 624 485 l 1
853 691 m 1
 778 485 l 1
 961 485 l 1
 921 370 l 1
 738 370 l 1
 696 257 653 137 612 26 c 1
 458 26 l 1
 582 370 l 1
 447 370 l 1
 405 257 363 137 321 26 c 1
 167 26 l 1
 291 370 l 1
 109 370 l 1
 150 485 l 1
 333 485 l 1
 358 557 381 618 407 691 c 1
 225 691 l 1
 266 806 l 1
 449 806 l 1
 490 918 533 1038 573 1149 c 1
 729 1149 l 1
 603 806 l 1
 740 806 l 1
 781 918 822 1038 863 1149 c 1
 1018 1149 l 1
 893 806 l 1
 1076 806 l 1
 1036 691 l 1
 853 691 l 1
EndSplineSet
EndChar

StartChar: dollar
Encoding: 36 36 4
Width: 899
VWidth: 2047
GlyphClass: 2
Flags: HW
HStem: -25 77<311.951 586.2> 1100 71<528.179 788.487>
VStem: 143.832 92.2207<173.981 299>
LayerCount: 2
Fore
SplineSet
190.069 20 m 0
 158.069 20 158.593 -2 115.593 -2 c 1
 130.852 73 137.639 185 143.832 299 c 1
 236.053 305 l 1
 242.215 182.439 279.373 72.4257 408.096 54.5367 c 1
 504.868 530.186 l 1
 396.729 573.485 260.01 646.437 260.01 815.312 c 0
 260.01 838.078 262.495 862.586 267.869 889 c 0
 303.416 1063.71 496.171 1153.2 634.752 1168.59 c 1
 658.232 1284 l 1
 740.232 1284 l 1
 717.053 1170.07 l 1
 799.249 1166.44 868.161 1153.37 918.725 1153.37 c 0
 928.512 1153.37 937.612 1153.86 945.987 1155 c 1
 932.27 1063 930.721 962 927.376 862 c 1
 836.748 854 l 1
 833.276 891 l 2
 820.692 1022.27 802.291 1085.76 702.358 1097.84 c 1
 617.795 682.2 l 1
 722.125 647.272 893.622 545.893 893.622 374.279 c 0
 893.622 356.599 891.802 338.174 887.901 319 c 0
 855.606 160.267 742.874 -7.50122 474.174 -23.7216 c 1
 445.431 -165 l 1
 363.431 -165 l 1
 392.186 -23.6643 l 1
 285.768 -16.2013 229.534 20 190.069 20 c 0
579.791 495.403 m 1
 490.296 55.5175 l 1
 564.961 67.6423 657.444 115.236 686.897 260 c 0
 690.55 277.957 692.318 295.14 692.318 311.543 c 0
 692.318 391.628 650.192 453.126 579.791 495.403 c 1
542.349 714.415 m 1
 620.063 1096.39 l 1
 530.741 1080.72 465.31 1014.04 441.497 897 c 0
 439.82 888.759 439.028 880.56 439.028 872.442 c 0
 439.028 808.043 488.88 748.783 542.349 714.415 c 1
EndSplineSet
EndChar

StartChar: percent
Encoding: 37 37 5
Width: 1360
GlyphClass: 2
Flags: HW
HStem: -38 75<973.3 1128> 442 79<993.2 1131> 601 74<322.3 465.3> 967 91<682.249 863.9> 1080 80<342.8 481.9>
VStem: 107 192<689.6 950.5> 506 132<834 984> 758 193<48.7 311.2> 1158 130<185.6 454.7>
LayerCount: 2
Fore
SplineSet
462 801 m 0
 456 774 454 753 454 735 c 0
 454 689 470 675 484 675 c 0
 575 675 679 851 702 965 c 0
 706 985 708 1002 708 1017 c 0
 708 1067 685 1080 659 1080 c 0
 585 1080 485 916 462 801 c 0
984 163 m 0
 979 135 976 114 976 96 c 0
 976 51 992 37 1006 37 c 0
 1106 37 1202 218 1224 326 c 0
 1229 347 1231 365 1231 379 c 0
 1231 432 1205 442 1182 442 c 0
 1106 442 1007 277 984 163 c 0
797 193 m 0
 829 349 1002 521 1176 521 c 0
 1266 521 1360 492 1360 379 c 0
 1360 364 1359 347 1355 329 c 0
 1327 190 1175 -38 978 -38 c 0
 848 -38 792 48 792 142 c 0
 792 159 794 176 797 193 c 0
984 1058 m 0
 1057 1058 1182 1081 1287 1173 c 1
 1426 1149 l 1
 334 -38 l 1
 197 -3 l 1
 1106 983 l 1
 1046 970 993 967 947 967 c 0
 914 967 872 974 838 984 c 1
 835 967 l 2
 808 834 657 601 457 601 c 0
 324 601 271 688 271 780 c 0
 271 797 272 813 276 830 c 0
 308 989 482 1160 654 1160 c 0
 730 1160 794 1131 811 1107 c 1
 797 1109 l 1
 893 1058 955 1058 984 1058 c 0
EndSplineSet
EndChar

StartChar: ampersand
Encoding: 38 38 6
Width: 1494
GlyphClass: 2
Flags: HW
HStem: -25 126<1150.91 1260.5> -25 84<387.5 668.3> 802 65<983 1087 1270.6 1407.51> 1236 84<644.6 765.5>
VStem: 79 243<74.4 499.5> 349 225<1003.1 1214.9> 792 212<1012.9 1213.1>
LayerCount: 2
Fore
SplineSet
789 1059 m 0
 788 1050 787 1041 787 1031 c 0
 787 991 799 940 815 880 c 1
 919 951 1002 1033 1016 1100 c 0
 1019 1116 1021 1131 1021 1144 c 0
 1021 1203 990 1236 945 1236 c 0
 907 1236 815 1187 789 1059 c 0
850 268 m 1
 777 402 685 585 652 660 c 1
 478 562 415 459 388 324 c 0
 381 291 378 261 378 235 c 0
 378 109 449 59 536 59 c 0
 647 59 726 134 850 268 c 1
916 148 m 1
 805 44 678 -25 505 -25 c 0
 291 -25 135 49 135 238 c 0
 135 264 138 292 145 323 c 0
 176 476 307 608 610 765 c 1
 574 863 558 936 558 995 c 0
 558 1017 560.066 1035.99 564 1055 c 0
 589.429 1177.91 741 1320 973 1320 c 0
 1123 1320 1232 1247 1232 1137 c 0
 1232 1125 1230 1113 1228 1100 c 0
 1207 996 1047 865 855 761 c 1
 856 758 859 752 859 748 c 1
 882 686 947 553 1003 443 c 1
 1151 615 1225 727 1235 778 c 0
 1238 792 1243 800 1250 802 c 1
 1191 802 l 2
 1147 807 1144 817 1146 824 c 2
 1151 851 l 1
 1174 872 l 1
 1174 872 1309 867 1377 867 c 0
 1446 867 1584 872 1584 872 c 1
 1599 851 l 1
 1594 825 l 1
 1588 808 1557 802 1526 802 c 2
 1470 802 l 2
 1442 802 1400 747 1302 616 c 2
 1302 616 1174 441 1069 316 c 1
 1111 232 1180 101 1210 101 c 0
 1265 101 1318 130 1381 230 c 1
 1447 194 l 1
 1371 48 1264 -25 1172 -25 c 0
 1089 -25 982 -5 916 148 c 1
EndSplineSet
EndChar

StartChar: quotesingle
Encoding: 39 39 7
Width: 476
GlyphClass: 2
Flags: HW
HStem: 863 457<198.913 266.098 227 273>
LayerCount: 2
Fore
SplineSet
403 863 m 1
 372 870 l 1
 372 870 384 1198 386 1211 c 0
 396 1258 454 1320 542 1320 c 0
 607 1320 622 1298 622 1271 c 0
 622 1263 620 1254 618 1245 c 0
 612 1214 475 874 475 874 c 1
 403 863 l 1
EndSplineSet
EndChar

StartChar: parenleft
Encoding: 40 40 8
Width: 691
GlyphClass: 2
Flags: HW
VStem: 73 246<377.154 1002.9>
LayerCount: 2
Fore
SplineSet
178 518 m 0
 254 891 537 1244 852 1474 c 1
 907 1404 l 1
 829 1333 534 1058 424 518 c 0
 400 396 390 287 390 191 c 0
 390 -136 506 -313 546 -370 c 1
 460 -436 l 1
 209 -173 158 116 158 309 c 0
 158 411 172 487 178 518 c 0
EndSplineSet
EndChar

StartChar: parenright
Encoding: 41 41 9
Width: 727
VWidth: 2047
GlyphClass: 2
Flags: HW
VStem: 400 246<29.1 654.846>
LayerCount: 2
Fore
SplineSet
751 514 m 0
 675 141 392 -212 77 -442 c 1
 22 -372 l 1
 100 -301 395 -26 505 514 c 0
 529 636 539 745 539 841 c 0
 539 1168 423 1345 383 1402 c 1
 469 1468 l 1
 720 1205 771 916 771 723 c 0
 771 621 757 545 751 514 c 0
EndSplineSet
EndChar

StartChar: asterisk
Encoding: 42 42 10
Width: 937
GlyphClass: 2
Flags: HW
HStem: 1156 152<211.4 340.2 585.5 699.6>
VStem: 362 196<1334.25 1444.1>
LayerCount: 2
Fore
SplineSet
560 1097 m 0
 578 1109 598 1120 633 1154 c 1
 619 1155 605 1156 592 1156 c 0
 490 1156 421 1169 421 1224 c 0
 421 1229 421 1234 422 1240 c 0
 429 1272 464 1308 536 1308 c 0
 590 1308 616 1286 642 1260 c 0
 645 1257 648 1254 651 1250 c 1
 652 1271 648 1285 647 1299 c 0
 644 1320 641 1341 641 1359 c 0
 641 1368 642 1376 643 1383 c 0
 653 1430 702 1470 758 1470 c 0
 805 1470 843 1451 843 1408 c 0
 843 1403 842 1397 841 1391 c 0
 836 1368 818.774 1326.1 801 1287 c 0
 786 1254 791 1276 783 1247 c 1
 789 1252 795 1256 800 1260 c 0
 835 1285 868 1307 923 1307 c 0
 993 1307 1010 1274 1010 1249 c 0
 1010 1246 1010 1242 1009 1239 c 0
 995 1171 910 1157 828 1157 c 0
 808 1157 784 1156 764 1153 c 1
 786 1120 799 1110 812 1097 c 0
 852 1062 885 1032 885 994 c 0
 885 990 885 986 884 981 c 0
 875 940 823 913 777 913 c 0
 695 913 684 972 673 1037 c 1
 637 973 598 913 520 913 c 0
 471 913 439 939 439 970 c 0
 439 973 440 976 440 979 c 1
 450 1026 504 1061 560 1097 c 0
EndSplineSet
EndChar

StartChar: plus
Encoding: 43 43 11
Width: 1130
GlyphClass: 2
Flags: HW
HStem: 415 120<129 480 655 1005> 867 20G<480 655>
VStem: 480 175<65 415 535 887>
LayerCount: 2
Fore
SplineSet
764 535 m 1
 1114 535 l 1
 1089 415 l 1
 739 415 l 1
 668 65 l 1
 493 65 l 1
 564 415 l 1
 213 415 l 1
 238 535 l 1
 589 535 l 1
 660 887 l 1
 835 887 l 1
 764 535 l 1
EndSplineSet
EndChar

StartChar: comma
Encoding: 44 44 12
Width: 500
GlyphClass: 2
Flags: HW
HStem: -248 456<109 239 109 239>
VStem: 249 134<-105.6 6.2>
LayerCount: 2
Fore
SplineSet
281 208 m 0
 361 208 393 162 393 85 c 0
 393 60 389 31 383 -1 c 0
 362 -104 231 -219 59 -248 c 1
 58 -180 l 1
 170 -154 230 -93 239 -51 c 0
 240 -43 241 -36 241 -30 c 0
 241 -5 227 -1 213 1 c 0
 172 9 142 27 142 73 c 0
 142 82 143 91 145 102 c 0
 157 162 204 208 281 208 c 0
EndSplineSet
EndChar

StartChar: hyphen
Encoding: 45 45 13
Width: 767
GlyphClass: 2
Flags: HW
HStem: 478 124<137 681.1>
LayerCount: 2
Fore
SplineSet
717 478 m 2
 258 478 l 2
 214 478 192 495 192 514 c 0
 192 516 192 518 193 520 c 1
 200 555 259 602 303 602 c 2
 766 602 l 2
 816 602 832 586 832 568 c 0
 832 565 831 563 831 560 c 1
 825 533 764 478 717 478 c 2
EndSplineSet
EndChar

StartChar: period
Encoding: 46 46 14
Width: 500
GlyphClass: 2
Flags: HW
HStem: -25 228<168.1 331.9>
VStem: 136 228<8.4 170.9>
LayerCount: 2
Fore
SplineSet
154 89 m 0
 167 152 228 203 291 203 c 0
 346 203 384 164 384 112 c 0
 384 104 384 97 382 89 c 0
 369 27 308 -25 245 -25 c 0
 190 -25 152 15 152 67 c 0
 152 74 153 81 154 89 c 0
EndSplineSet
EndChar

StartChar: slash
Encoding: 47 47 15
Width: 648
GlyphClass: 2
Flags: HW
VStem: 5 613<-44 1396>
LayerCount: 2
Fore
SplineSet
902 1396 m 1
 124 -44 l 1
 -4 -44 l 1
 774 1396 l 1
 902 1396 l 1
EndSplineSet
EndChar

StartChar: zero
Encoding: 48 48 16
Width: 1000
GlyphClass: 2
Flags: HW
HStem: -25 83<334.6 549.297> 1100 87<644.898 763.844>
VStem: 219 811<549.742 611.258 572 589>
LayerCount: 2
Fore
SplineSet
733 1100 m 0
 665 1100 546 1017 451 550 c 0
 436 474 419 362 419 264 c 0
 419 152 441 58 515 58 c 0
 539 58 610.28 80.3405 682 232 c 0
 726.553 326.212 766 449 802 626 c 0
 822 727 831 810 831 876 c 0
 831 981 810 1044 784 1072 c 0
 767 1091 749 1100 733 1100 c 0
496 -25 m 0
 302 -25 200 155 200 389 c 0
 200 447 206.065 508.987 219 572 c 0
 297.396 953.919 538 1187 751 1187 c 0
 853 1187 946 1123 993 1049 c 0
 1033 976 1052 888 1052 788 c 0
 1052 726 1044 659 1030 589 c 0
 937 134 662 -25 496 -25 c 0
EndSplineSet
Substitution2: "'sups' Superscript in Latin lookup 6" zero.superior
Substitution2: "'sinf' Wissenschaftliche Indices in Latin lookup 5" zero.inferior
Substitution2: "'pnum' Proportionalziffern in Latin lookup 4" zero.fitted
Substitution2: "'onum' Minuskelziffern in Latin lookup 3" zero.oldstyle
Position2: "'rtbd' Rechte R+AOQA-nder in Latin lookup 3" dx=0 dy=0 dh=52 dv=0
Position2: "'lfbd' Left Bounds in Latin lookup 2" dx=-200 dy=0 dh=-200 dv=0
EndChar

StartChar: one
Encoding: 49 49 17
Width: 1000
GlyphClass: 2
Flags: HW
HStem: 2 72<123.255 346.455 575.755 761.916> 1167 20G<473.455 580.455>
VStem: 346 234<70.9989 965.967>
LayerCount: 2
Fore
SplineSet
372 885 m 1
 356 978 l 1
 554 1061 637 1109 763 1187 c 1
 870 1187 l 1
 661 160 l 2
 655 133 652 114 652 100 c 0
 652 81 659 74 677 74 c 2
 783 74 l 2
 809 74 842 68 838 49 c 2
 828 -2 l 1
 507 2 l 2
 414 1 273 -1 180 -2 c 1
 191 51 l 2
 194 61 203 74 257 74 c 2
 377 74 l 2
 410 74 415.983 106.003 427 160 c 2
 569 856 l 2
 581 918 590 961 590 966 c 1
 590 966 541 962 372 885 c 1
EndSplineSet
Substitution2: "'sups' Superscript in Latin lookup 6" one.superior
Substitution2: "'sinf' Wissenschaftliche Indices in Latin lookup 5" one.inferior
Substitution2: "'pnum' Proportionalziffern in Latin lookup 4" one.fitted
Substitution2: "'onum' Minuskelziffern in Latin lookup 3" one.oldstyle
Position2: "'rtbd' Rechte R+AOQA-nder in Latin lookup 3" dx=0 dy=0 dh=-130 dv=0
Position2: "'lfbd' Left Bounds in Latin lookup 2" dx=-180 dy=0 dh=-180 dv=0
EndChar

StartChar: two
Encoding: 50 50 18
Width: 1000
GlyphClass: 2
Flags: HW
HStem: 0 133<258.022 613.022> 1108 79<250.222 458.222>
VStem: 29 229<0 148.2> 43 202<906 1052.5> 539 244<710.3 1109.4>
LayerCount: 2
Fore
SplineSet
318 906 m 0
 342 1024 493 1187 734 1187 c 0
 892 1187 1062 1138 1062 957 c 0
 1062 935 1060 912 1054 886 c 0
 1025 741 874 619 670 452 c 0
 581.419 379.485 395 228 376 133 c 1
 674 133 l 2
 731 133 775 169 828 284 c 1
 931 266 l 1
 834 0 l 1
 120 0 l 1
 143 114 181.899 200.943 423 407 c 2
 595 554 l 2
 720.662 661.397 782 749 809 878 c 0
 815 907 817 933 817 956 c 0
 817 1072 750 1108 704 1108 c 0
 598 1108 547 1039 538 994 c 0
 534 974 533 959 535 945 c 0
 538 929 537 914 535 904 c 0
 523 845 458 823 411 823 c 0
 356 823 317 853 317 893 c 0
 317 897 317 902 318 906 c 0
EndSplineSet
Substitution2: "'sups' Superscript in Latin lookup 6" two.superior
Substitution2: "'sinf' Wissenschaftliche Indices in Latin lookup 5" two.inferior
Substitution2: "'pnum' Proportionalziffern in Latin lookup 4" two.fitted
Substitution2: "'onum' Minuskelziffern in Latin lookup 3" two.oldstyle
Position2: "'rtbd' Rechte R+AOQA-nder in Latin lookup 3" dx=0 dy=0 dh=62 dv=0
Position2: "'lfbd' Left Bounds in Latin lookup 2" dx=-120 dy=0 dh=-120 dv=0
EndChar

StartChar: three
Encoding: 51 51 19
Width: 1000
GlyphClass: 2
Flags: HW
HStem: -25 78<354.802 508.202> 1109 78<429.143 561.702>
VStem: 126 192<912 1014.8> 605 219<911.9 1083.5> 650 239<44.3 642.3>
LayerCount: 2
Fore
SplineSet
711 1109 m 0
 671 1109 538 1082 514 964 c 0
 505.87 924.026 471 857 390 857 c 0
 323 857 314 900 314 920 c 0
 314 924 315 928 315 929 c 0
 328 995 450 1187 766 1187 c 0
 967 1187 1025 1089 1025 1007 c 0
 1025 995 1024 984 1022 973 c 0
 1012 926 975 832 763 709 c 1
 866 683 977 610 977 464 c 0
 977 443 974 420 970 396 c 0
 914 123 661 -25 408 -25 c 0
 280 -25 126 25 126 100 c 0
 126 104 126 108 127 112 c 0
 134 145 186 185 245 185 c 0
 306 185 322 162 334 134 c 0
 349 101 385 53 449 53 c 0
 503 53 674 119 725 368 c 0
 731 399 734 425 734 449 c 0
 734 588 635 611 559 611 c 0
 545 611 506 604 450 592 c 1
 455 673 l 1
 616 700 778 851 797 944 c 0
 801 962 803 979 803 995 c 0
 803 1071 760 1109 711 1109 c 0
EndSplineSet
Substitution2: "'sups' Superscript in Latin lookup 6" three.superior
Substitution2: "'sinf' Wissenschaftliche Indices in Latin lookup 5" three.inferior
Substitution2: "'pnum' Proportionalziffern in Latin lookup 4" three.fitted
Substitution2: "'onum' Minuskelziffern in Latin lookup 3" three.oldstyle
Position2: "'rtbd' Rechte R+AOQA-nder in Latin lookup 3" dx=0 dy=0 dh=25 dv=0
Position2: "'lfbd' Left Bounds in Latin lookup 2" dx=-126 dy=0 dh=-126 dv=0
EndChar

StartChar: four
Encoding: 52 52 20
Width: 1000
GlyphClass: 2
Flags: HW
HStem: 2 70<379.258 523.258 746.958 875.258> 311 109<267.258 525.258 750.258 891.258> 1167 20G<538.758 557.258>
VStem: 525 225<85.5736 311 420 656>
LayerCount: 2
Fore
SplineSet
920 836 m 1
 836 420 l 1
 977 420 l 1
 976 311 l 1
 814 311 l 1
 781 150 l 2
 776.077 125.984 773 108 773 95 c 0
 773 80 777 72 789 72 c 2
 842 72 l 2
 890 72 899 58 897 49 c 2
 887 -3 l 1
 887 -3 713 2 628 2 c 0
 551 2 385 -4 385 -4 c 1
 396 50 l 2
 398 58 409 72 459 72 c 2
 515 72 l 2
 538 72 545 96 556 149 c 2
 589 311 l 1
 238 311 l 2
 199 311 191 314 186 324 c 2
 168 359 l 1
 161 388 157 402 157 411 c 0
 157 419 160 421 169 428 c 0
 418 644 638.003 999.577 738 1171 c 0
 745 1183 763 1187 798 1187 c 0
 800 1187 826 1185 846 1182 c 0
 858 1181 866 1174 874 1173 c 1
 758 927 579 652 353 420 c 1
 611 420 l 1
 659 656 l 1
 821 836 l 1
 920 836 l 1
EndSplineSet
Substitution2: "'sups' Superscript in Latin lookup 6" four.superior
Substitution2: "'sinf' Wissenschaftliche Indices in Latin lookup 5" four.inferior
Substitution2: "'pnum' Proportionalziffern in Latin lookup 4" four.fitted
Substitution2: "'onum' Minuskelziffern in Latin lookup 3" four.oldstyle
Position2: "'rtbd' Rechte R+AOQA-nder in Latin lookup 3" dx=0 dy=0 dh=-23 dv=0
Position2: "'lfbd' Left Bounds in Latin lookup 2" dx=-157 dy=0 dh=-157 dv=0
EndChar

StartChar: five
Encoding: 53 53 21
Width: 1000
GlyphClass: 2
Flags: HW
HStem: -25 85<395.468 574.868> 655 110<338.868 580.668> 1023 145<342.271 693.786>
VStem: 642 236<127.7 616.5>
LayerCount: 2
Fore
SplineSet
714 350 m 0
 722 391 726 427 726 460 c 0
 726 591 664 655 583 655 c 0
 498 655 407 633 275 582 c 1
 467 1181 l 1
 560 1172 643 1168 714 1168 c 0
 813 1168 924 1175 1049 1189 c 1
 1085 1168 l 1
 1027 1035 l 1
 922 1027 842 1023 782 1023 c 0
 710 1023 607 1028 554 1033 c 1
 522 934 495 852 463 752 c 1
 504 760 603 765 654 765 c 0
 863 765 965 626 965 465 c 0
 965 439 962 411 956 384 c 0
 909 153 697 -25 442 -25 c 0
 315 -25 161 37 161 116 c 0
 161 120 162 124 162 128 c 1
 171 171 213 200 273 200 c 0
 334 200 354 168 374 134 c 0
 394 99 418 60 451 60 c 0
 556 60 679 179 714 350 c 0
EndSplineSet
Substitution2: "'sups' Superscript in Latin lookup 6" five.superior
Substitution2: "'sinf' Wissenschaftliche Indices in Latin lookup 5" five.inferior
Substitution2: "'pnum' Proportionalziffern in Latin lookup 4" five.fitted
Substitution2: "'onum' Minuskelziffern in Latin lookup 3" five.oldstyle
Position2: "'rtbd' Rechte R+AOQA-nder in Latin lookup 3" dx=0 dy=0 dh=85 dv=0
Position2: "'lfbd' Left Bounds in Latin lookup 2" dx=-161 dy=0 dh=-161 dv=0
EndChar

StartChar: six
Encoding: 54 54 22
Width: 1000
GlyphClass: 2
Flags: HW
HStem: -25 75<427.956 629.456> 621 82<444.031 691.556> 1127 63<720.665 861.156>
VStem: 99 228<34.1 567.426> 684 225<170.4 461.2>
LayerCount: 2
Fore
SplineSet
440 545 m 1
 435 525 426.053 486.989 422 467 c 0
 407.192 393.961 401 333 401 282 c 0
 401 101 482 50 547 50 c 0
 618 50 710.66 134.07 753 339 c 0
 757.96 363.008 761 392 761 423 c 0
 761 516 731 621 612 621 c 0
 583 621 528 617 440 545 c 1
1090 1127 m 1
 994 1121 869.06 1112.93 703 978 c 0
 618.031 908.962 539 798 482 663 c 1
 543 687 614 703 669 703 c 0
 938 703 989 543 989 430 c 0
 989 401 984.943 374.012 981 355 c 0
 951.571 213.089 826 -25 512 -25 c 0
 369 -25 178 40 178 316 c 0
 178 362 184.034 414.993 196 474 c 0
 233.106 656.979 337 839 514 988 c 0
 673 1121 843 1176 1096 1190 c 1
 1090 1127 l 1
EndSplineSet
Substitution2: "'sups' Superscript in Latin lookup 6" six.superior
Substitution2: "'sinf' Wissenschaftliche Indices in Latin lookup 5" six.inferior
Substitution2: "'pnum' Proportionalziffern in Latin lookup 4" six.fitted
Substitution2: "'onum' Minuskelziffern in Latin lookup 3" six.oldstyle
Position2: "'rtbd' Rechte R+AOQA-nder in Latin lookup 3" dx=0 dy=0 dh=96 dv=0
Position2: "'lfbd' Left Bounds in Latin lookup 2" dx=-178 dy=0 dh=-178 dv=0
EndChar

StartChar: seven
Encoding: 55 55 23
Width: 1000
GlyphClass: 2
Flags: HW
HStem: 1018 135<273.027 683.427>
VStem: 147 739<879 1137>
LayerCount: 2
Fore
SplineSet
511 1018 m 2
 470 1018 446 988 396 869 c 1
 326 879 l 1
 459 1192 l 1
 508 1180 l 1
 508 1168 513 1153 531 1153 c 2
 1114 1153 l 1
 1118 1137 l 1
 797 614 627 311 449 -16 c 1
 261 -27 l 1
 255 -4 l 1
 442 287 666 644 891 1018 c 1
 511 1018 l 2
EndSplineSet
Substitution2: "'sups' Superscript in Latin lookup 6" seven.superior
Substitution2: "'sinf' Wissenschaftliche Indices in Latin lookup 5" seven.inferior
Substitution2: "'pnum' Proportionalziffern in Latin lookup 4" seven.fitted
Substitution2: "'onum' Minuskelziffern in Latin lookup 3" seven.oldstyle
Position2: "'rtbd' Rechte R+AOQA-nder in Latin lookup 3" dx=0 dy=0 dh=118 dv=0
Position2: "'lfbd' Left Bounds in Latin lookup 2" dx=-255 dy=0 dh=-255 dv=0
EndChar

StartChar: eight
Encoding: 56 56 24
Width: 1000
GlyphClass: 2
Flags: HW
HStem: -25 87<413.992 581.692> 1109 81<417.992 615.592>
VStem: 111 220<86.6 359.6> 149 230<862.353 1051.3> 639 227<830.1 1042> 675 229<123.1 511.5>
LayerCount: 2
Fore
SplineSet
739 1109 m 0
 666 1109 588 1027 571 946 c 0
 569 936 568 925 568 915 c 0
 568 860 599 803 681 755 c 1
 738 793 812.624 855.079 830 938 c 0
 832.936 952.013 834 967 834 982 c 0
 834 1048 803 1109 739 1109 c 0
509 62 m 0
 575 62 696 106 733 284 c 0
 737 307 739 328 739 347 c 0
 739 473 647 516 585 544 c 1
 454 459 401 344 390 292 c 0
 386 269 383 247 383 228 c 0
 383 114 455 62 509 62 c 0
1056 936 m 0
 1035 832 886 727 785 662 c 1
 851 615 975 517 975 374 c 0
 975 357 973 340 969 322 c 0
 938 169 768 -25 490 -25 c 0
 291 -25 163 61 163 221 c 0
 163 243 165 267 170 292 c 0
 202 446 385 570 478 631 c 1
 420 678 330 752 330 866 c 0
 330 880 331 896 334 912 c 0
 366 1065 540 1190 763 1190 c 0
 955 1190 1061 1104 1061 982 c 0
 1061 967 1060 952 1056 936 c 0
EndSplineSet
Substitution2: "'sups' Superscript in Latin lookup 6" eight.superior
Substitution2: "'sinf' Wissenschaftliche Indices in Latin lookup 5" eight.inferior
Substitution2: "'pnum' Proportionalziffern in Latin lookup 4" eight.fitted
Substitution2: "'onum' Minuskelziffern in Latin lookup 3" eight.oldstyle
Position2: "'rtbd' Rechte R+AOQA-nder in Latin lookup 3" dx=0 dy=0 dh=61 dv=0
Position2: "'lfbd' Left Bounds in Latin lookup 2" dx=-163 dy=0 dh=-163 dv=0
EndChar

StartChar: nine
Encoding: 57 57 25
Width: 1000
VWidth: 999
GlyphClass: 2
Flags: HW
HStem: -31 63<610 750.491> 456 82<779.6 1027.12> 1109 75<841.7 1043.2>
VStem: 562 225<697.8 988.6> 1144 228<591.574 1124.9>
LayerCount: 2
Fore
SplineSet
804 614 m 1
 809 634 817.947 672.011 822 692 c 0
 836.808 765.039 843 826 843 877 c 0
 843 1058 762 1109 697 1109 c 0
 626 1109 533.34 1024.93 491 820 c 0
 486.04 795.992 483 767 483 736 c 0
 483 643 513 538 632 538 c 0
 661 538 716 542 804 614 c 1
154 32 m 1
 250 38 374.94 46.0744 541 181 c 0
 625.969 250.038 705 361 762 496 c 1
 701 472 630 456 575 456 c 0
 306 456 255 616 255 729 c 0
 255 758 259.057 784.988 263 804 c 0
 292.429 945.911 418 1184 732 1184 c 0
 875 1184 1066 1119 1066 843 c 0
 1066 797 1059.97 744.007 1048 685 c 0
 1010.89 502.021 907 320 730 171 c 0
 571 38 401 -17 148 -31 c 1
 154 32 l 1
EndSplineSet
Substitution2: "'sups' Superscript in Latin lookup 6" nine.superior
Substitution2: "'sinf' Wissenschaftliche Indices in Latin lookup 5" nine.inferior
Substitution2: "'pnum' Proportionalziffern in Latin lookup 4" nine.fitted
Substitution2: "'onum' Minuskelziffern in Latin lookup 3" nine.oldstyle
Position2: "'rtbd' Rechte R+AOQA-nder in Latin lookup 3" dx=0 dy=0 dh=66 dv=0
Position2: "'lfbd' Left Bounds in Latin lookup 2" dx=-148 dy=0 dh=-148 dv=0
EndChar

StartChar: colon
Encoding: 58 58 26
Width: 500
VWidth: 2047
GlyphClass: 2
Flags: HW
HStem: 76 228<209.1 372.9> 614 228<209.1 372.9>
VStem: 177 228<109.4 271.9 647.4 809.9>
LayerCount: 2
Fore
SplineSet
234.107 190 m 0
 259.925 253 331.301 304 394.301 304 c 0
 441.953 304 470.888 274.724 470.888 233.082 c 0
 470.888 226.661 470.2 219.947 468.787 213 c 0
 467.159 205 465.734 198 462.107 190 c 0
 436.493 128 364.914 76 301.914 76 c 0
 254.295 76 225.52 105.984 225.52 147.78 c 0
 225.52 154.259 226.211 161.021 227.631 168 c 0
 229.056 175 231.479 182 234.107 190 c 0
343.107 728 m 0
 368.925 791 440.301 842 503.301 842 c 0
 550.953 842 579.888 812.724 579.888 771.082 c 0
 579.888 764.661 579.2 757.947 577.787 751 c 0
 576.159 743 574.734 736 571.107 728 c 0
 545.493 666 473.914 614 410.914 614 c 0
 363.295 614 334.52 643.984 334.52 685.78 c 0
 334.52 692.259 335.211 699.021 336.631 706 c 0
 338.056 713 340.479 720 343.107 728 c 0
EndSplineSet
EndChar

StartChar: semicolon
Encoding: 59 59 27
Width: 500
VWidth: 2047
GlyphClass: 2
Flags: HW
HStem: -248 456<136 266 136 266> 614 228<189.1 352.9>
VStem: 157 228<647.4 809.9> 276 134<-105.6 6.2>
LayerCount: 2
Fore
SplineSet
350.318 208 m 0
 414.717 208 441.946 178.192 441.946 126.401 c 0
 441.946 113.854 440.348 100.017 437.293 85 c 0
 432.207 60 422.307 31 409.797 -1 c 0
 367.841 -104 213.444 -219 35.5439 -248 c 1
 48.3789 -180 l 1
 165.668 -154 238.079 -93 255.624 -51 c 0
 258.252 -43 260.676 -36 261.896 -30 c 0
 266.982 -5 253.797 -1 240.203 1 c 0
 206.227 7.90364 181.957 22.2542 181.957 55.619 c 0
 181.957 60.9177 182.569 66.6959 183.852 73 c 0
 185.683 82 188.514 91 192.752 102 c 0
 216.959 162 273.318 208 350.318 208 c 0
323.107 728 m 0
 348.925 791 420.301 842 483.301 842 c 0
 530.953 842 559.888 812.724 559.888 771.082 c 0
 559.888 764.661 559.2 757.947 557.787 751 c 0
 556.159 743 554.734 736 551.107 728 c 0
 525.493 666 453.914 614 390.914 614 c 0
 343.295 614 314.52 643.984 314.52 685.78 c 0
 314.52 692.259 315.211 699.021 316.631 706 c 0
 318.056 713 320.479 720 323.107 728 c 0
EndSplineSet
EndChar

StartChar: less
Encoding: 60 60 28
Width: 1049
GlyphClass: 2
Flags: HW
HStem: 127 729<964 964>
VStem: 85 879<254 447>
LayerCount: 2
Fore
SplineSet
413 492 m 1
 1016 254 l 1
 990 127 l 1
 176 447 l 1
 194 537 l 1
 1138 856 l 1
 1112 729 l 1
 413 492 l 1
EndSplineSet
EndChar

StartChar: equal
Encoding: 61 61 29
Width: 1130
GlyphClass: 2
Flags: HW
HStem: 291 115<120 1010> 545 116<120 1010>
LayerCount: 2
Fore
SplineSet
1093 406 m 1
 1069 291 l 1
 179 291 l 1
 203 406 l 1
 1093 406 l 1
1144 661 m 1
 1121 545 l 1
 231 545 l 1
 254 661 l 1
 1144 661 l 1
EndSplineSet
EndChar

StartChar: greater
Encoding: 62 62 30
Width: 1049
GlyphClass: 2
Flags: HW
HStem: 122 729<85 85>
VStem: 85 879<531 724>
LayerCount: 2
Fore
SplineSet
835 487 m 1
 232 724 l 1
 258 851 l 1
 1072 531 l 1
 1054 441 l 1
 110 122 l 1
 136 249 l 1
 835 487 l 1
EndSplineSet
EndChar

StartChar: question
Encoding: 63 63 31
Width: 881
GlyphClass: 2
Flags: HW
HStem: -25 228<308.1 471.9> 1275 75<305 540.3>
VStem: 276 228<8.4 170.9> 324 141<377.023 593.914> 581 240<897.4 1193.8>
LayerCount: 2
Fore
SplineSet
499 1170 m 0
 493 1141 499 1124 503 1115 c 0
 509 1101 510 1079 505 1058 c 0
 495 1007 430 978 369 978 c 0
 325 978 272 1008 272 1070 c 0
 272 1077 273 1085 275 1094 c 0
 289 1166 339 1212 420 1270 c 0
 493 1321 592 1350 717 1350 c 0
 922 1350 1039 1254 1039 1104 c 0
 1039 1082 1037 1060 1032 1037 c 0
 1001 885 852 788 734 713 c 0
 670 671 591.359 615.723 561 470 c 2
 551 422 l 2
 541.64 377.073 529 352 465 352 c 0
 418 352 406 365 406 389 c 0
 406 399 407 410 410 422 c 2
 420 474 l 2
 438 558 464.792 671.97 638 806 c 0
 722 871 770 928 791 1030 c 0
 795 1054 798 1078 798 1100 c 0
 798 1197 755 1275 681 1275 c 0
 591 1275 510 1226 499 1170 c 0
312.107 89 m 0
 337.925 152 409.301 203 472.301 203 c 0
 519.953 203 548.888 173.724 548.888 132.082 c 0
 548.888 125.661 548.2 118.947 546.787 112 c 0
 545.159 104 543.734 97 540.107 89 c 0
 514.493 27 442.914 -25 379.914 -25 c 0
 332.295 -25 303.52 4.98417 303.52 46.7804 c 0
 303.52 53.259 304.211 60.0214 305.631 67 c 0
 307.056 74 309.479 81 312.107 89 c 0
EndSplineSet
EndChar

StartChar: at
Encoding: 64 64 32
Width: 2136
GlyphClass: 2
Flags: HW
HStem: -459 94<426.8 1309.5> -11 106<925.2 1023.27> -11 94<1319 1842.2> 833 78<1029.95 1432.3> 1314 88<748.706 1667.4>
VStem: 200 252<-62.4 1028.11> 676 248<133.2 508.648> 1898 229<532.061 1225.9>
LayerCount: 2
Fore
SplineSet
1366 833 m 0
 1107.5 833 924 444.806 924 232 c 0
 924 156 951 95 1037 95 c 0
 1084 95 1245 229 1334 382 c 0
 1372.05 452.672 1459 648.893 1459 717 c 0
 1459 784 1417 833 1366 833 c 0
676 229 m 0
 676 535.016 1040.32 911 1373 911 c 0
 1439 911 1511 893 1549 863 c 1
 1684 900 l 1
 1756 874 l 1
 1507 259 l 2
 1474.51 178.759 1463.35 134.684 1463.35 110.707 c 0
 1463.35 87.1676 1474.11 83 1486 83 c 0
 1760 83 1898 583.97 1898 757 c 0
 1898 1161 1593 1314 1345 1314 c 0
 886.312 1314 452 891.555 452 325 c 0
 452 27 575 -365 1069 -365 c 0
 1254 -365 1422 -297 1595 -177 c 1
 1638 -255 l 1
 1467 -369 1299 -459 1008 -459 c 0
 506 -459 200 -132 200 300 c 0
 200 860.083 690.912 1402 1361 1402 c 0
 1841 1402 2127 1111 2127 728 c 0
 2127 435.556 1966.84 -11 1319 -11 c 0
 1234 -11 1215 27 1215 64 c 0
 1215 64.0095 1216.78 98.6626 1221 105 c 1
 1107 15 1005 -6 947 -6 c 0
 722 -6 676 127 676 229 c 0
EndSplineSet
EndChar

StartChar: A
Encoding: 65 65 33
Width: 1473
GlyphClass: 2
Flags: HW
HStem: 2 70<47.8787 180.93 358.03 499.45 873.753 1020.63 1319.33 1449.81> 494 95<545.758 870.63> 1328 20G<749.297 793.63>
LayerCount: 2
Fore
SplineSet
647 589 m 2
 962 589 l 1
 930 759 913 837 879 1012 c 1
 801 879 721 747 643 614 c 1
 641 600 l 2
 641 598 640 596 640 595 c 0
 640 591 643 589 647 589 c 2
369 150 m 2
 359.914 134.744 356 115.88 356 106 c 0
 356 83 372 72 400 72 c 2
 458 72 l 2
 491 72 517 63 514 47 c 2
 509 17 l 1
 486 -3 l 1
 486 -3 257 2 208 2 c 0
 156 2 37 -3 37 -3 c 1
 21 17 l 1
 26 47 l 2
 29 63 54 72 92 72 c 2
 115 72 l 2
 166 72 202 113 241 175 c 0
 439 502 909 1284 909 1284 c 2
 927.023 1313.99 963 1348 986 1348 c 0
 1052 1348 1067 1328 1076 1284 c 2
 1297 186 l 2
 1312.29 110.057 1335 72 1386 72 c 2
 1408 72 l 2
 1437 72 1468 64 1468 47 c 1
 1463 16 l 1
 1425 -2 l 1
 1425 -2 1254 2 1175 2 c 0
 1103 2 876 -3 876 -3 c 1
 860 17 l 1
 865 47 l 2
 868 63 893 72 931 72 c 2
 987 72 l 2
 1032.47 72 1047.72 116.64 1047.72 141.541 c 0
 1047.72 144.729 1047.47 147.594 1047 150 c 2
 980 494 l 1
 593 494 l 2
 577 494 569 485 556 464 c 2
 369 150 l 2
EndSplineSet
EndChar

StartChar: B
Encoding: 66 66 34
Width: 1354
GlyphClass: 2
Flags: HW
HStem: -2 84<580.766 1089.3> -2 74<170 336> 685 85<602 748> 1238 87<588.838 867.5> 1251 70<183 474>
VStem: 350 252<76 685 770 1233> 975 245<868.2 1188> 1070 270<224.4 594>
LayerCount: 2
Fore
SplineSet
739 1173 m 2
 668 770 l 1
 783 770 l 2
 1025.73 770 1088 946.226 1088 1065 c 0
 1088 1211 976 1238 892 1238 c 0
 759 1238 749.383 1231.93 739 1173 c 2
653 685 m 1
 559 154 l 2
 557.051 142.991 556 133 556 125 c 0
 556 90 581 82 681 82 c 0
 981.169 82 1074 303.3 1074 449 c 0
 1074 590 982 685 799 685 c 2
 653 685 l 1
109 49 m 2
 111 59 119 72 172 72 c 2
 232 72 l 2
 279 72 296 92 308 157 c 2
 486 1171 l 2
 489 1186 491 1199 491 1209 c 0
 491 1241 477 1251 440 1251 c 2
 380 1251 l 2
 336 1251 324 1258 324 1273 c 1
 334 1326 l 1
 334 1326 573 1321 637 1321 c 0
 670 1321 714 1322.02 760 1323 c 0
 807 1324 858 1325 894 1325 c 0
 1251 1325 1333 1192 1333 1066 c 0
 1333 868 1142.3 763.738 1084 736 c 1
 1260 686 1340 578 1340 436 c 0
 1340 226.058 1191.68 -2 705 -2 c 0
 616 -2 545 -2 490 -1 c 0
 465 -1 421 0 404 0 c 2
 100 -2 l 1
 109 49 l 2
EndSplineSet
EndChar

StartChar: C
Encoding: 67 67 35
Width: 1375
GlyphClass: 2
Flags: HW
HStem: -25 100<494.4 1011.8> 1258 90<715.12 1324.3>
VStem: 198 268<216.2 1108.16> 1331 109<911 996.338>
LayerCount: 2
Fore
SplineSet
781 -25 m 0
 374 -25 198 234 198 519 c 0
 198 976.113 623.282 1348 1024 1348 c 0
 1296.91 1348 1349.94 1257 1455 1257 c 1
 1440 911 l 1
 1331 895 l 1
 1315 1098 1246 1258 985 1258 c 0
 777.4 1258 466 973.123 466 523 c 0
 466 287 564 75 796 75 c 0
 962 75 1110 149 1298 320 c 1
 1365 264 l 1
 1192 80 998 -25 781 -25 c 0
EndSplineSet
EndChar

StartChar: D
Encoding: 68 68 36
Width: 1568
GlyphClass: 2
Flags: HW
HStem: -3 75<100 277> -2 84<548.2 1346.92> 1241 84<779.307 1309.3> 1251 75<335 487.8>
VStem: 1323 279<419.783 1082.5>
LayerCount: 2
Fore
SplineSet
560 153 m 2
 558 145 558 137 558 131 c 0
 558 92 589 82 725 82 c 0
 1203.4 82 1323 447.894 1323 751 c 0
 1323 1006 1210 1241 879 1241 c 0
 804 1241 751 1235 739 1170 c 2
 560 153 l 2
109 46 m 2
 112 60 133 72 173 72 c 2
 233 72 l 2
 277 72 298 98 309 157 c 2
 487 1166 l 2
 489.999 1183 491 1197 491 1208 c 0
 491 1241 477 1251 441 1251 c 2
 384 1251 l 2
 345 1251 326 1258 326 1277 c 1
 335 1326 l 1
 550.491 1322.43 603.518 1321.77 630.181 1321.77 c 0
 645.955 1321.77 652.502 1322 678 1322 c 0
 791 1324 911 1325 970 1325 c 0
 1343 1325 1602 1072 1602 745 c 0
 1602 494.833 1429 -2 772 -2 c 0
 643 -2 559 0 496 1 c 0
 460 2 431 2 403 2 c 0
 317 1 186 -2 100 -3 c 1
 109 46 l 2
EndSplineSet
EndChar

StartChar: E
Encoding: 69 69 37
Width: 1284
GlyphClass: 2
Flags: HW
HStem: -3 75<177 345> 0 95<615.6 1111> 662 85<611 877> 1228 97<620 1045.5> 1251 75<185 356.5>
VStem: 358 253<106 662 747 1225.84> 1094 105<1018.34 1131.08>
LayerCount: 2
Fore
SplineSet
1327 1325 m 1
 1304 1029 l 1
 1197 1014 l 1
 1197 1103 1164 1228 1089 1228 c 2
 780 1228 l 2
 761 1228 749 1212 741 1170 c 2
 667 747 l 1
 899 747 l 2
 933 747 951 782 972 831 c 0
 979 851 989 871 996 891 c 1
 995 890 l 1
 999 903 1024 914 1059 914 c 2
 1067 914 l 2
 1104 914 1117 906 1115 896 c 0
 1100 846 1078 771 1066 704 c 0
 1054 633 1049 548 1047 515 c 1
 1033 495 l 1
 985 495 l 2
 942 495 926 507 927 517 c 1
 928 517 l 1
 927 580 l 2
 927 633 919 662 884 662 c 2
 652 662 l 1
 562 153 l 2
 560 140 559 130 559 123 c 0
 559 101 567 95 580 95 c 2
 953 95 l 2
 1052 95 1120 206 1180 357 c 1
 1278 334 l 1
 1166 0 l 1
 565 0 l 1
 408 2 l 2
 321 1 187 -2 100 -3 c 1
 110 50 l 2
 112.073 60.9865 125 72 175 72 c 2
 235 72 l 2
 282 72 300 102 309 153 c 2
 488 1168 l 2
 490 1181 491 1192 491 1202 c 0
 491 1235 477 1251 443 1251 c 2
 383 1251 l 2
 330 1251 325 1261 325 1273 c 1
 335 1326 l 1
 642 1321 l 2
 694 1321 747 1322.8 799 1323 c 2
 1327 1325 l 1
EndSplineSet
EndChar

StartChar: F
Encoding: 70 70 38
Width: 1094
GlyphClass: 2
Flags: HW
HStem: 2 65<152.439 280> 662 85<565 839> 1228 95<569.3 985> 1251 74<165 317>
VStem: 312 253<82.9 662 747 1224.61> 1057 104<1018.44 1131.08>
LayerCount: 2
Fore
SplineSet
287 157 m 2
 465 1170 l 2
 468 1184 469 1197 469 1207 c 0
 469 1237 457 1251 420 1251 c 2
 359 1251 l 2
 307 1251 303 1263 303 1274 c 1
 308 1307 l 1
 346 1325 l 1
 617 1321 l 2
 667 1321 717 1322.81 768 1323 c 2
 1312 1325 l 1
 1289 1029 l 1
 1183 1014 l 1
 1183 1103 1149 1228 1074 1228 c 2
 758 1228 l 2
 739 1228 726 1212 718 1170 c 2
 644 747 l 1
 884 747 l 2
 918 747 937 782 958 831 c 0
 965 851 975 871 982 891 c 1
 981 890 l 1
 985 903 1009 914 1044 914 c 2
 1052 914 l 2
 1089 914 1103 906 1101 896 c 0
 1086 850 1063 771 1051 704 c 0
 1039 633 1035 575 1033 515 c 1
 1018 495 l 1
 970 495 l 2
 927 495 912 507 913 517 c 1
 914 517 l 1
 913 580 l 2
 913 633 904 662 869 662 c 2
 629 662 l 1
 540 157 l 2
 538 149 537 141 537 134 c 0
 537 91 564 67 636 67 c 2
 665 67 l 2
 675 67 680 61 678 50 c 2
 669 2 l 1
 665 -2 l 1
 665 -2 457 2 384 2 c 0
 304 2 104 -2 104 -2 c 1
 100 2 l 1
 109 50 l 2
 111.06 60.9888 120 67 129 67 c 2
 158 67 l 2
 239 67 275 92 287 157 c 2
EndSplineSet
EndChar

StartChar: G
Encoding: 71 71 39
Width: 1527
GlyphClass: 2
Flags: HW
HStem: -25 90<515.8 1007.2> 549 85<1064.52 1208.4 1476.2 1583.07> 1258 90<608.021 1284>
VStem: 200 272<246.3 963.867> 1377 118<908 1003.09>
LayerCount: 2
Fore
SplineSet
1076 1348 m 0
 1236 1348 1316 1315 1381 1290 c 1
 1382 1291 l 1
 1426 1273 1430 1254 1509 1254 c 1
 1495 908 l 1
 1377 895 l 1
 1362 1098 1292 1258 1032 1258 c 0
 705.862 1258 472 869.975 472 557 c 0
 472 318 601 65 885 65 c 0
 979 65 1091 99 1171 163 c 1
 1156 157 l 1
 1211 468 l 2
 1212 479 1213 489 1213 497 c 0
 1213 533 1197 549 1159 549 c 2
 1106 549 l 2
 1073 549 1045.15 557.972 1048 574 c 2
 1056 619 l 1
 1080 639 l 1
 1080 639 1284 634 1363 634 c 0
 1435 634 1581 639 1581 639 c 1
 1597 619 l 1
 1589 574 l 2
 1586 558 1564 549 1523 549 c 0
 1487 549 1472.11 518.98 1463 468 c 2
 1421 233 l 2
 1416 203 1422 189 1435 175 c 1
 1271 54 1084 -25 825 -25 c 0
 435 -25 200 215 200 521 c 0
 200 931.188 590.781 1348 1076 1348 c 0
EndSplineSet
EndChar

StartChar: H
Encoding: 72 72 40
Width: 1528
GlyphClass: 2
Flags: HW
HStem: 2 65<110.064 239 935.064 1064> 657 95<643 1199> 1255 65<759 890.487 1584 1715.49>
LayerCount: 2
Fore
SplineSet
1288 1165 m 2
 1290 1174 1291 1183 1291 1191 c 0
 1291 1237 1261 1255 1192 1255 c 2
 1163 1255 l 2
 1154 1255 1147 1261 1149 1272 c 2
 1158 1320 l 1
 1162 1324 l 1
 1162 1324 1361 1320 1441 1320 c 0
 1514 1320 1721 1324 1721 1324 c 1
 1725 1320 l 1
 1716 1272 l 2
 1713.94 1261.01 1707 1255 1697 1255 c 2
 1668 1255 l 2
 1584 1255 1550.01 1222 1540 1165 c 2
 1363 157 l 2
 1361 149 1360 141 1360 134 c 0
 1360 91 1387 67 1459 67 c 2
 1488 67 l 2
 1498 67 1503 61 1501 50 c 2
 1492 2 l 1
 1488 -2 l 1
 1488 -2 1281 2 1208 2 c 0
 1128 2 929 -2 929 -2 c 1
 925 2 l 1
 934 50 l 2
 936.06 60.9888 945 67 954 67 c 2
 983 67 l 2
 1064 67 1099 92 1111 157 c 2
 1199 657 l 1
 626 657 l 1
 538 157 l 2
 536 149 535 141 535 134 c 0
 535 91 562 67 634 67 c 2
 663 67 l 2
 673 67 678 61 676 50 c 2
 667 2 l 1
 663 -2 l 1
 663 -2 456 2 383 2 c 0
 303 2 104 -2 104 -2 c 1
 100 2 l 1
 109 50 l 2
 111.06 60.9888 120 67 129 67 c 2
 158 67 l 2
 239 67 274 92 286 157 c 2
 463 1165 l 2
 465 1174 466 1183 466 1191 c 0
 466 1237 436 1255 367 1255 c 2
 338 1255 l 2
 329 1255 324 1260 324 1272 c 1
 333 1320 l 1
 337 1324 l 1
 337 1324 536 1320 616 1320 c 0
 689 1320 896 1324 896 1324 c 1
 900 1320 l 1
 891 1272 l 2
 888.94 1261.01 882 1255 872 1255 c 2
 843 1255 l 2
 759 1255 725 1222 715 1165 c 2
 643 752 l 1
 1216 752 l 1
 1288 1165 l 2
EndSplineSet
EndChar

StartChar: I
Encoding: 73 73 41
Width: 704
GlyphClass: 2
Flags: HW
HStem: 2 65<110.064 239> 1255 65<760 891.487>
VStem: 100 801<2 1320>
LayerCount: 2
Fore
SplineSet
539 157 m 2
 537 149 536 141 536 134 c 0
 536 91 563 67 635 67 c 2
 664 67 l 2
 674 67 679 61 677 50 c 2
 668 2 l 1
 664 -2 l 1
 664 -2 456 2 383 2 c 0
 303 2 104 -2 104 -2 c 1
 100 2 l 1
 109 50 l 2
 111.06 60.9888 120 67 129 67 c 2
 158 67 l 2
 239 67 274 92 286 157 c 2
 463 1165 l 2
 465 1174 466 1183 466 1191 c 0
 466 1237 436 1255 367 1255 c 2
 338 1255 l 2
 329 1255 324 1262 324 1272 c 1
 333 1320 l 1
 337 1324 l 1
 337 1324 536 1320 616 1320 c 0
 689 1320 897 1324 897 1324 c 1
 901 1320 l 1
 892 1272 l 2
 889.94 1261.01 883 1255 873 1255 c 2
 844 1255 l 2
 760 1255 726.009 1222 716 1165 c 2
 539 157 l 2
EndSplineSet
EndChar

StartChar: J
Encoding: 74 74 42
Width: 927
GlyphClass: 2
Flags: HW
HStem: -327 71 638 39 1267 83
VStem: 427 77
LayerCount: 2
Fore
SplineSet
968.442 1186.91 m 1
 953.033 1100.33 914 790.344 914 737 c 0
 914 697 940 693 1007 687 c 1
 1000 628 l 1
 893 617 l 1
 874 500 853.337 382.945 834 266 c 0
 750 -242 437 -335 313 -335 c 0
 196 -335 95 -293 95 -223 c 0
 95 -189 128 -134 188 -134 c 0
 305 -134 301 -248 340 -248 c 0
 508 -248 603 121.5 642 615 c 1
 563 621 463 628 393 633 c 1
 393 683 l 1
 654 699 l 1
 685.693 920.848 736.899 1049.07 784 1150 c 1
 741 1151 696 1163 669 1175 c 0
 597.634 1205.19 502.27 1259 444 1259 c 0
 426 1259 414 1233 414 1210 c 0
 414 1196 417 1192 421 1189 c 0
 446 1166 459 1140 459 1119 c 0
 459 1071 427 1038 357 1038 c 0
 277 1038 248 1081 248 1138 c 0
 248 1222 332 1358 562 1358 c 0
 647 1358 746 1318 826 1282 c 1
 846 1332 887 1391 968 1391 c 0
 1036 1391 1086 1368 1086 1318 c 0
 1086 1277.93 1028.48 1228.59 968.442 1186.91 c 1
EndSplineSet
EndChar

StartChar: K
Encoding: 75 75 43
Width: 1421
GlyphClass: 2
Flags: HW
HStem: 2 65<154.439 282> 1255 65<158.492 306.3>
VStem: 313 253<82.9 603 754 1230>
LayerCount: 2
Fore
SplineSet
539 157 m 2
 537 149 536 141 536 134 c 0
 536 91 563 67 635 67 c 2
 664 67 l 2
 674 67 679 61 677 50 c 2
 668 2 l 1
 664 -2 l 1
 664 -2 456 2 383 2 c 0
 303 2 104 -2 104 -2 c 1
 100 2 l 1
 109 50 l 2
 111.06 60.9888 120 67 129 67 c 2
 158 67 l 2
 239 67 274 92 286 157 c 2
 463 1165 l 2
 465 1174 466 1183 466 1191 c 0
 466 1237 436 1255 367 1255 c 2
 338 1255 l 2
 329 1255 324 1260.67 324 1272 c 1
 333 1320 l 1
 337 1324 l 1
 337 1324 536 1320 616 1320 c 0
 689 1320 896 1324 896 1324 c 1
 900 1320 l 1
 891 1272 l 2
 888.94 1261.01 882 1255 872 1255 c 2
 843 1255 l 2
 759 1255 726 1222 716 1165 c 2
 644 754 l 1
 659 764 679 780 698 796 c 0
 842 912 997 1037 1140 1153 c 0
 1168 1177 1191 1206 1194 1226 c 0
 1196 1237 1191 1251 1182 1251 c 2
 1139 1251 l 2
 1106 1251 1079 1260 1082 1276 c 2
 1087 1306 l 1
 1111 1326 l 1
 1111 1326 1293 1321 1373 1321 c 0
 1445 1321 1582 1325 1582 1325 c 1
 1620 1311 l 1
 1614 1276 l 2
 1611 1261 1583 1254 1549 1251 c 0
 1484 1242 1410 1217 1301 1132 c 0
 1176 1031 1047.13 927.844 923 827 c 0
 865.059 779.927 843 757 839 733 c 0
 835 711 841 698 849 686 c 0
 975 515 1113 331 1239 160 c 0
 1280 105 1314 72 1349 72 c 2
 1363 72 l 2
 1392 72 1426 63 1423 47 c 2
 1418 16 l 1
 1380 -2 l 1
 1380 -2 1212 2 1133 2 c 0
 1060 2 983 -5 983 -5 c 1
 966 17 l 1
 967 23 l 2
 971 43 975 68 975 92 c 0
 975 114 971 135 959 150 c 2
 662 552 l 2
 645 575 630 591 617 603 c 1
 539 157 l 2
EndSplineSet
EndChar

StartChar: L
Encoding: 76 76 44
Width: 1179
GlyphClass: 2
Flags: HW
HStem: -3 75<170.254 471> 0 95<607.4 977> 1255 65<190.492 338.3>
VStem: 345 252<131 1239.1> 1088 97<270.929 354.226>
LayerCount: 2
Fore
SplineSet
483 1165 m 2
 485 1174 486 1183 486 1191 c 0
 486 1237 456 1255 387 1255 c 2
 358 1255 l 2
 349 1255 344 1261 344 1272 c 1
 353 1320 l 1
 357 1324 l 1
 357 1324 556 1320 636 1320 c 0
 709 1320 916 1324 916 1324 c 1
 920 1320 l 1
 911 1272 l 2
 908.94 1261.01 902 1255 892 1255 c 2
 863 1255 l 2
 779 1255 745.044 1221.99 735 1165 c 2
 563 189 l 2
 561 176 560 165 560 154 c 0
 560 117 574 95 599 95 c 2
 823 95 l 2
 927 95 1025 208 1084 358 c 1
 1178 342 l 1
 1075 0 l 1
 561 0 l 1
 404 2 l 2
 378 2 116 -3 116 -3 c 1
 100 17 l 1
 105 48 l 2
 108 63 137 72 170 72 c 2
 231 72 l 2
 280 72 293.58 88.0725 305 153 c 2
 483 1165 l 2
EndSplineSet
EndChar

StartChar: M
Encoding: 77 77 45
Width: 1716
GlyphClass: 2
Flags: HW
HStem: -25 21G<759.884 785.75> 2 70<1.2551 142 284.3 403.704 1123.41 1255 1489 1631.18> 1251 74<95 224.3 1409 1541>
LayerCount: 2
Fore
SplineSet
1319 183 m 2
 1385 913 l 1
 1210 614 860 15 860 15 c 2
 847 -6 828 -25 793 -25 c 0
 776 -25 746 -13 739 15 c 2
 739 15 609 544 523 894 c 1
 464 656 405 419 345 181 c 0
 342 172 341 164 340 157 c 0
 336 136 334 119 334 105 c 0
 334 84 339 72 351 72 c 2
 404 72 l 2
 433 72 466 63 463 47 c 2
 458 18 l 1
 443 -3 l 1
 443 -3 300 2 221 2 c 0
 149 2 44 -3 44 -3 c 1
 30 17 l 1
 35 47 l 2
 38 63 62 72 104 72 c 2
 157 72 l 2
 184 72 203 133 217 183 c 0
 296 500 385 853 464 1171 c 0
 465 1174 466 1176 467 1180 c 2
 469 1189 l 2
 471 1200 471 1209 471 1216 c 0
 471 1241 463 1251 447 1251 c 2
 386 1251 l 2
 343 1254 327 1262.67 327 1273 c 1
 333 1303 l 1
 358 1325 l 1
 687 1325 l 1
 927 344 l 1
 1113 665 1315 1009 1499 1325 c 1
 1804 1325 l 1
 1811 1304 l 1
 1806 1274 l 2
 1800 1254 1755 1251 1736 1251 c 2
 1681 1251 l 2
 1659 1251 1643 1233 1636 1191 c 2
 1632 1171 l 1
 1546 185 l 2
 1544 167 1543 149 1543 133 c 0
 1543 97 1549 72 1570 72 c 2
 1623 72 l 2
 1669 72 1689 63 1686 47 c 2
 1681 17 l 1
 1657 -3 l 1
 1657 -3 1495 2 1415 2 c 0
 1343 2 1168 -3 1168 -3 c 1
 1151 17 l 1
 1156 47 l 2
 1159 65 1191 72 1225 72 c 2
 1278 72 l 2
 1297 72 1309 117 1316 158 c 0
 1317 166 1319 175 1319 183 c 2
EndSplineSet
EndChar

StartChar: N
Encoding: 78 78 46
Width: 1521
GlyphClass: 2
Flags: HW
HStem: -25 21G<1232.46 1294> 2 65<110.064 239 467.4 600> 1255 65<335 437 1248 1375.7 1605 1736.49>
LayerCount: 2
Fore
SplineSet
1382 1165 m 2
 1384 1174 1385 1183 1385 1191 c 0
 1385 1237 1355 1255 1286 1255 c 2
 1257 1255 l 2
 1248 1255 1241 1261 1243 1272 c 2
 1252 1320 l 1
 1256 1324 l 1
 1256 1324 1423 1320 1503 1320 c 0
 1576 1320 1742 1324 1742 1324 c 1
 1746 1320 l 1
 1737 1272 l 2
 1734.94 1261.01 1728 1255 1718 1255 c 2
 1689 1255 l 2
 1605 1255 1571.03 1222 1561 1165 c 2
 1365 51 l 2
 1357 7 1324 -25 1264 -25 c 0
 1200.91 -25 1172.65 8.82056 1159 31 c 2
 620.484 906.333 l 2
 613.899 917.037 609.367 922.838 605.75 922.838 c 0
 601.5 922.838 598.544 914.72 595 897 c 2
 465 157 l 2
 463 149 462 141 462 134 c 0
 462 91 489 67 561 67 c 2
 590 67 l 2
 600 67 605 61 603 50 c 2
 594 2 l 1
 590 -2 l 1
 590 -2 422 2 349 2 c 0
 269 2 104 -2 104 -2 c 1
 100 2 l 1
 109 50 l 2
 111.06 60.9888 120 67 129 67 c 2
 158 67 l 2
 239 67 274 92 286 157 c 2
 456 1120 l 1
 453 1171 425 1251 385 1251 c 2
 374 1251 l 2
 347 1251 309 1259.33 309 1276 c 1
 313 1299 l 1
 335 1325 l 1
 649 1323 l 1
 1217 428 l 2
 1227.31 411.758 1236 396 1244 381 c 1
 1382 1165 l 2
EndSplineSet
EndChar

StartChar: O
Encoding: 79 79 47
Width: 1504
GlyphClass: 2
Flags: HW
HStem: -25 85<521.4 1105.1> 1263 85<541.8 1070.9>
VStem: 121 274<170.5 1158.6> 1201 275<170.9 1175.8>
LayerCount: 2
Fore
SplineSet
968 1263 m 0
 672.2 1263 475 848.745 475 501 c 0
 475 220 620 60 824 60 c 0
 1114.4 60 1308 465.652 1308 824 c 0
 1308 1115 1162 1263 968 1263 c 0
769 -25 m 0
 437 -25 198 177 198 505 c 0
 198 905.179 533.081 1348 1009 1348 c 0
 1331 1348 1583 1136 1583 801 c 0
 1583 395.642 1266.98 -25 769 -25 c 0
EndSplineSet
EndChar

StartChar: P
Encoding: 80 80 48
Width: 1144
GlyphClass: 2
Flags: HW
HStem: 2 65<108.098 237> 571 83<596.513 1097.81> 1254 65<309 456.71> 1255 85<773.349 982.3>
VStem: 1053 264<899.313 1208.5>
LayerCount: 2
Fore
SplineSet
726.937 1236.65 m 1
 624 659 l 1
 654 656 694 654 723 654 c 0
 1011.31 654 1053 934.779 1053 1053 c 0
 1053 1219 952 1255 851 1255 c 0
 825.331 1255 770.014 1246.53 726.937 1236.65 c 1
284 157 m 2
 463 1172 l 2
 465 1185 466 1196 466 1205 c 0
 466 1247 446 1254 431 1254 c 0
 416 1254 393.5 1250 356 1250 c 0
 304 1250 300 1262 300 1272 c 1
 309 1319 l 1
 329.906 1319 438.022 1322.03 512 1326 c 0
 540 1328 572 1330 600 1331 c 0
 704 1336 830 1340 882 1340 c 0
 1240 1340 1317 1171 1317 1046 c 0
 1317 920.217 1204.28 571 720 571 c 0
 672 571 638 573 610 577 c 1
 535 157 l 2
 533 149 533 142 533 135 c 0
 533 93 559 67 631 67 c 2
 660 67 l 2
 670 67 675 61 673 50 c 2
 664 2 l 1
 660 -2 l 1
 660 -2 452 2 379 2 c 0
 299 2 102 -2 102 -2 c 1
 98 2 l 1
 107 50 l 2
 109.06 60.9887 118 67 127 67 c 2
 156 67 l 2
 237 67 272 92 284 157 c 2
EndSplineSet
EndChar

StartChar: Q
Encoding: 81 81 49
Width: 1504
VWidth: 2047
GlyphClass: 2
Flags: HW
HStem: -412 118<1278.4 1461.7> -25 85<689.4 1273.1> 1263 85<709.8 1238.9>
VStem: 289 274<170.5 1158.6> 1369 275<170.9 1175.8>
LayerCount: 2
Fore
SplineSet
968 1263 m 0
 672.2 1263 475 848.745 475 501 c 0
 475 220 620 60 824 60 c 0
 1114.4 60 1308 465.652 1308 824 c 0
 1308 1115 1162 1263 968 1263 c 0
616.988 -9.71518 m 1
 366.463 43.0603 198 229.624 198 505 c 0
 198 905.179 533.081 1348 1009 1348 c 0
 1331 1348 1583 1136 1583 801 c 0
 1583 395.642 1266.98 -25 769 -25 c 0
 749.936 -25 731.179 -24.334 712.757 -23.0164 c 1
 686.085 -36.024 670.441 -56.7716 663 -70 c 1
 732 -76 811.883 -107.165 895 -166 c 0
 984 -229 1104 -294 1186 -294 c 0
 1245 -294 1312 -269 1356 -214 c 1
 1399 -244 l 1
 1319 -358 1233 -412 1103 -412 c 0
 988 -412 895.178 -365.756 794 -292 c 0
 687 -214 605 -157 519 -157 c 0
 488 -157 409 -183 368 -277 c 1
 288 -237 l 1
 303 -211 361 -115 496 -83 c 0
 517.953 -77.7964 553 -69 561 -60 c 0
 574.667 -44.625 599.757 -20.1031 616.988 -9.71518 c 1
EndSplineSet
EndChar

StartChar: R
Encoding: 82 82 50
Width: 1272
GlyphClass: 2
Flags: HW
HStem: 2 65<160.439 288> 575 93<572 677.3> 1268 73<568.212 839.2>
VStem: 320 252<82.9 575 668 1245.85> 948 253<859 1098.6>
LayerCount: 2
Fore
SplineSet
1065 1058 m 0
 1065 1223 955 1268 865 1268 c 0
 817 1268 769 1264 731 1258 c 1
 627 668 l 1
 685 668 l 2
 1014.9 668 1065 936.883 1065 1058 c 0
285 157 m 2
 463 1171 l 2
 467.748 1198.05 472 1220 472 1235 c 0
 472 1247 469 1254 464 1255 c 1
 390 1248 l 2
 345 1248 329 1254 329 1270 c 1
 335 1306 l 1
 396 1321 611 1341 855 1341 c 0
 992 1341 1150 1324 1235 1236 c 0
 1286 1175 1315 1103 1315 1028 c 0
 1315 866 1174.22 702.941 966 623 c 1
 1013 485 1060.1 348.036 1108 210 c 0
 1135.06 132.02 1179 62 1257 62 c 0
 1262 62 1267 62 1272 63 c 1
 1273 13 l 1
 1232 -4 1178 -13 1139 -13 c 0
 992 -13 904 66 868 164 c 2
 728 553 l 1
 729 553 l 1
 725 564 691 573 610 575 c 1
 537 157 l 2
 535 149 534 141 534 134 c 0
 534 91 561 67 633 67 c 2
 662 67 l 2
 672 67 675 62 675 50 c 1
 666 2 l 1
 662 -2 l 1
 662 -2 454 2 381 2 c 0
 301 2 102 -2 102 -2 c 1
 98 2 l 1
 107 50 l 2
 109.06 60.9888 118 67 127 67 c 2
 156 67 l 2
 237 67 273 92 285 157 c 2
EndSplineSet
EndChar

StartChar: S
Encoding: 83 83 51
Width: 1012
GlyphClass: 2
Flags: HW
HStem: -25 90<263.5 598> 1263 85<319.9 670.9>
VStem: 37 229<821.7 1200> 72 121<215.838 386.689> 80 113<-2 57.1777> 656 253<106.7 552.8> 734 104<974.574 1064.24>
LayerCount: 2
Fore
SplineSet
1049 1283 m 1
 1035 988 l 1
 928 971 l 1
 921 1137 868 1263 705 1263 c 0
 578.529 1263 469 1128.98 469 1004 c 0
 469 862 616 803 682 777 c 0
 837 718 1005 641 1005 448 c 0
 1005 206.904 764.636 -25 484 -25 c 0
 329 -25 274 8 240 30 c 0
 234.44 33.177 230.22 35.0716 227 35.0716 c 0
 218.5 35.0716 217 25.2138 217 5 c 1
 103 -2 l 1
 139 206 125 249 136 385 c 1
 246 400 l 1
 246 188 341.781 65 463 65 c 0
 629.8 65 741 200.681 741 389 c 0
 741 513 671.909 553.779 587 589 c 0
 452 645 230 742 230 940 c 0
 230 1172.85 511.772 1348 738 1348 c 0
 988 1348 960 1288 1049 1283 c 1
EndSplineSet
EndChar

StartChar: T
Encoding: 84 84 52
Width: 1186
GlyphClass: 2
Flags: HW
HStem: 2 65<311.439 464 750.8 927.163> 1214 95<179 493.7 761 1043>
VStem: 496 252<82.9 1199>
LayerCount: 2
Fore
SplineSet
785 157 m 2
 783 149 782 141 782 134 c 0
 782 91 809 67 881 67 c 2
 935 67 l 2
 945 67 948 61.5 948 50 c 1
 939 2 l 1
 935 -2 l 1
 935 -2 702 2 629 2 c 0
 549 2 325 -2 325 -2 c 1
 321 2 l 1
 330 50 l 2
 332.06 60.9888 341 67 350 67 c 2
 404 67 l 2
 485 67 521 92 533 157 c 2
 706 1142 l 2
 709 1155 710 1166 710 1175 c 0
 710 1206 696 1214 666 1214 c 2
 481 1214 l 2
 402 1214 372 1192 300 1023 c 1
 222 1048 l 1
 352 1383 l 1
 435 1351 l 1
 431 1338 422 1311 417 1309 c 1
 1283 1309 l 1
 1277 1311 1278 1338 1278 1350 c 1
 1374 1380 l 1
 1386 1045 l 1
 1297 1023 l 1
 1285 1192 1263 1214 1184 1214 c 2
 1024 1214 l 2
 984 1214 968 1199 957 1137 c 2
 785 157 l 2
EndSplineSet
EndChar

StartChar: U
Encoding: 85 85 53
Width: 1399
GlyphClass: 2
Flags: HW
HStem: -25 99<683.409 1167> 1255 65<708 839.487 1173 1302 1512 1643.49>
VStem: 280 252<62.92 462.533>
LayerCount: 2
Fore
SplineSet
1307 1165 m 2
 1309 1174 1310 1183 1310 1191 c 0
 1310 1237 1281 1255 1211 1255 c 2
 1182 1255 l 2
 1173 1255 1168 1261.5 1168 1272 c 1
 1177 1320 l 1
 1181 1324 l 1
 1181 1324 1335 1320 1415 1320 c 0
 1488 1320 1649 1324 1649 1324 c 1
 1653 1320 l 1
 1644 1272 l 2
 1641.94 1261.01 1635 1255 1625 1255 c 2
 1596 1255 l 2
 1512 1255 1478.01 1222 1468 1165 c 2
 1369 601 l 2
 1304 235 1169 -25 716 -25 c 0
 539 -25 280 44 280 359 c 0
 280 396 284.091 436.984 292 482 c 2
 412 1165 l 2
 414 1174 415 1183 415 1191 c 0
 415 1237 385 1255 316 1255 c 2
 287 1255 l 2
 278 1255 273 1260 273 1272 c 1
 282 1320 l 1
 286 1324 l 1
 286 1324 485 1320 565 1320 c 0
 638 1320 845 1324 845 1324 c 1
 849 1320 l 1
 840 1272 l 2
 837.94 1261.01 831 1255 821 1255 c 2
 792 1255 l 2
 708 1255 674 1222 664 1165 c 2
 556 549 l 2
 544.416 482.926 532 415 532 351 c 0
 532 129.4 705.007 74 777 74 c 0
 1077 74 1163 344 1202 566 c 2
 1307 1165 l 2
EndSplineSet
EndChar

StartChar: V
Encoding: 86 86 54
Width: 1380
GlyphClass: 2
Flags: HW
HStem: -25 21G<740.5 788.5> 1251 70<541 691.755 968.566 1115.31 1318.8 1445.88>
LayerCount: 2
Fore
SplineSet
1253 1174 m 2
 1265 1194 1271 1209 1274 1224 c 0
 1274 1226 1274 1227 1274 1229 c 0
 1274 1248 1250 1251 1212 1251 c 2
 1176 1251 l 2
 1144 1251 1119 1260 1119 1276 c 1
 1124 1306 l 1
 1148 1326 l 1
 1148 1326 1323 1321 1402 1321 c 0
 1474 1321 1609 1326 1609 1326 c 1
 1625 1306 l 1
 1620 1276 l 2
 1617 1260 1593 1251 1555 1251 c 0
 1501 1251 1469 1230 1433 1168 c 0
 1230 798 1009 397 806 27 c 0
 787 -7 753 -25 706 -25 c 0
 657 -25 631 -7 625 28 c 1
 626 28 l 1
 561 406 493 785 428 1164 c 0
 414 1238 380 1251 338 1251 c 0
 305 1251 280 1258.5 280 1276 c 1
 285 1306 l 1
 309 1326 l 1
 309 1326 494 1321 573 1321 c 0
 645 1321 855 1326 855 1326 c 1
 871 1306 l 1
 866 1276 l 2
 863 1260 839 1251 802 1251 c 2
 747 1251 l 2
 707 1251 690 1234 685 1208 c 0
 682 1191 683 1181 685 1169 c 1
 684 1170 l 1
 726 930 809 448 809 448 c 2
 813.015 424.811 817.953 413.672 824.76 413.672 c 0
 831.221 413.672 839.364 423.709 850 443 c 2
 1253 1174 l 2
EndSplineSet
EndChar

StartChar: W
Encoding: 87 87 55
Width: 1982
GlyphClass: 2
Flags: HW
HStem: -25 21G<657.5 713> 1251 70<290.183 402.374 684 788.229 940.046 1055.1 1349 1466.12 1758.46 1871.8 2089.55 2202.88>
LayerCount: 2
Fore
SplineSet
802 30 m 2
 786 -3 749 -25 693 -25 c 0
 638 -25 599 -6 593 30 c 2
 421 1144 l 2
 417.381 1167.44 401.287 1251 371 1251 c 2
 345 1251 l 2
 304 1251 280 1260 280 1275 c 1
 285 1305 l 1
 302 1326 l 1
 302 1326 442 1321 519 1321 c 0
 622 1321 801 1326 801 1326 c 1
 810 1305 l 1
 805 1277 l 2
 801.965 1260.01 777 1251 738 1251 c 2
 692 1251 l 2
 680.772 1251 672.871 1223.08 672.871 1194.5 c 0
 672.871 1186.16 673.543 1177.77 675 1170 c 2
 788 452 l 1
 799 370 l 1
 812 396 823 421 836 447 c 2
 1067 906 l 2
 1088.27 950.658 1095.76 988.379 1095.76 1013.9 c 0
 1095.76 1021.35 1095.12 1027.76 1094 1033 c 2
 1074 1165 l 2
 1067 1215 1049 1251 1002 1251 c 2
 994 1251 l 2
 954 1251 930 1259.5 930 1275 c 1
 935 1305 l 1
 951 1326 l 1
 951 1326 1100 1321 1181 1321 c 0
 1280 1321 1480 1326 1480 1326 c 1
 1487 1305 l 1
 1482 1274 l 2
 1479 1257 1444 1251 1416 1251 c 2
 1357 1251 l 2
 1349 1251 1340 1227 1335 1197 c 0
 1333 1185 1332 1174 1332 1163 c 0
 1332 1152 1333 1142 1335 1132 c 2
 1441 429 l 2
 1450 368 1441 421 1451 357 c 1
 1467 388 1484 417 1500 447 c 1
 1499 447 l 1
 1620 685 1862 1163 1862 1163 c 2
 1875.35 1189.38 1881.56 1210.33 1881.56 1225.17 c 0
 1881.56 1242.04 1873.56 1251 1859 1251 c 2
 1805 1251 l 2
 1769 1251 1747 1263 1747 1274 c 1
 1752 1305 l 1
 1769 1326 l 1
 1769 1326 1927 1321 2012 1321 c 0
 2077 1321 2212 1326 2212 1326 c 1
 2227 1306 l 1
 2222 1276 l 2
 2218 1252 2154 1251 2151 1251 c 2
 2128 1251 l 2
 2097.55 1251 2067.16 1229.38 2029 1156 c 2
 1457 28 l 2
 1439 -7 1399 -24 1345 -24 c 0
 1273.17 -24 1251 6.20312 1248 29 c 2
 1248 29 1178 482 1143 708 c 1
 802 30 l 2
EndSplineSet
EndChar

StartChar: X
Encoding: 88 88 56
Width: 1468
GlyphClass: 2
Flags: HW
HStem: -3 75<92.8216 211.3 1373.7 1476> 1251 75<143 214.8 535 669.625 980.265 1078 1323.4 1433>
LayerCount: 2
Fore
SplineSet
450 1156 m 2
 407 1230 382 1251 346 1251 c 0
 316 1251 282 1252 282 1273 c 1
 289 1311 l 1
 334 1326 l 1
 385 1324 527 1321 549 1321 c 0
 560 1321 762 1324 825 1326 c 1
 825 1326 834 1321 860 1321 c 1
 852 1274 l 2
 849 1259 832 1251 794 1251 c 2
 724 1251 l 2
 709.536 1251 704.03 1243.68 704.03 1232.34 c 0
 704.03 1216.89 714.274 1193.97 726 1172 c 2
 908 831 l 1
 1010 943 1219 1172 1219 1172 c 2
 1240.94 1196.05 1249.11 1212.78 1249.11 1224.42 c 0
 1249.11 1250.41 1208.34 1251 1189 1251 c 0
 1167.7 1251 1137 1261 1139 1273 c 2
 1145 1306 l 1
 1169 1326 l 1
 1212 1325 1376 1321 1398 1321 c 0
 1408 1321 1588 1325 1624 1327 c 1
 1642 1306 l 1
 1637 1274 l 2
 1635 1263 1630 1251 1569 1251 c 0
 1517 1251 1457 1228 1383 1148 c 2
 1031 762 l 2
 1011.67 739.911 1003 710.938 1003 689 c 0
 1003 672 1008 659 1017 644 c 2
 1285 174 l 2
 1328 102 1356 72 1397 72 c 0
 1434 72 1461 70 1461 49 c 1
 1455 17 l 1
 1432 -3 l 1
 1377 -1 1224 2 1199 2 c 0
 1186 2 922 -2 922 -2 c 1
 890 15 l 1
 896 50 l 2
 898 64 927 72 958 72 c 2
 1006 72 l 2
 1021.55 72 1030 76.6 1030 95 c 0
 1030 105.739 1027.4 119.657 1010 151 c 2
 1010 151 874 396 806 517 c 1
 702 402 584 272 480 158 c 1
 481 158 l 1
 465 141 457 123 453 102 c 0
 450 83 452 72 461 72 c 2
 505 72 l 2
 542 67 553 59 552 49 c 2
 546 16 l 1
 510 -2 l 1
 510 -2 295 2 265 2 c 0
 256 2 67 -3 67 -3 c 1
 52 17 l 1
 58 50 l 2
 61.088 66.9842 94 72 128 72 c 0
 169 72 234 95 310 176 c 0
 435 313 697 601 697 601 c 2
 704.841 608.841 717.924 628.871 717.924 655.17 c 0
 717.924 668.719 714.452 683.932 705 700 c 2
 450 1156 l 2
EndSplineSet
EndChar

StartChar: Y
Encoding: 89 89 57
Width: 1282
GlyphClass: 2
Flags: HW
HStem: -2 69<383.544 565.713 839.226 984> 1251 75<293 381.641 678.923 787.422 1088 1175.88 1340.75 1501.11>
DStem2: 686 1178 421 1166 0.375779 -0.926709<-46.2244 440.126> 582 157 834 157 0.173285 0.984872<20.8199 433.537> 856 772 913 606 0.57737 0.816483<0 569.312>
LayerCount: 2
Fore
SplineSet
834 157 m 2
 832 149 831 141 831 134 c 0
 831 91 858 67 930 67 c 2
 984 67 l 2
 994 67 997 63 997 50 c 1
 988 2 l 1
 984 -2 l 1
 984 -2 751 2 678 2 c 0
 598 2 374 -2 374 -2 c 1
 370 2 l 1
 379 50 l 2
 381.06 60.9888 390 67 399 67 c 2
 453 67 l 2
 534 67 570 92 582 157 c 2
 657 584 l 1
 421 1166 l 2
 403 1213 392.966 1235.95 383 1243 c 0
 375.976 1247.97 365 1251 351 1251 c 2
 320 1251 l 2
 300.765 1251 265 1258 265 1274 c 1
 270 1307 l 1
 293 1326 l 1
 293 1326 508 1321 535 1321 c 0
 547 1321 796 1326 796 1326 c 1
 811 1307 l 1
 806 1276 l 2
 804 1264 784 1251 745 1251 c 2
 687 1251 l 2
 681.273 1251 675.142 1241.35 675.142 1224.04 c 0
 675.142 1212.11 678.158 1196.6 686 1178 c 2
 686 1178 791 929 856 772 c 1
 954 907 1052 1042 1148 1178 c 0
 1168.15 1206.96 1177.16 1230.81 1177.16 1242.74 c 0
 1177.16 1248.05 1175.37 1251 1172 1251 c 2
 1109 1251 l 2
 1065 1255 1060 1263 1060 1274 c 1
 1065 1306 l 1
 1088 1326 l 1
 1088 1326 1276 1321 1302 1321 c 0
 1319 1321 1508 1326 1508 1326 c 1
 1523 1307 l 1
 1518 1275 l 2
 1515 1258 1490 1251 1451 1251 c 2
 1407 1251 l 2
 1377 1251 1354 1229 1309 1166 c 2
 913 606 l 1
 834 157 l 2
EndSplineSet
EndChar

StartChar: Z
Encoding: 90 90 58
Width: 1291
GlyphClass: 2
Flags: HW
HStem: 0 95<399.386 1025> 1228 95<273 1002>
VStem: 92 114<959.91 1079.96>
LayerCount: 2
Fore
SplineSet
428 95 m 2
 919 95 l 2
 1046 95 1147 308 1172 376 c 1
 1293 367 l 1
 1169 0 l 1
 149 0 l 2
 94 0 72 12 72 32 c 0
 72 46.6183 89.3708 70.7673 107 90 c 2
 1087 1185 l 2
 1095 1194 1100 1206 1102 1219 c 0
 1103 1224 1108 1227 1120 1228 c 1
 600 1228 l 2
 483 1228 402 1042 378 950 c 1
 265 959 l 1
 382 1373 l 1
 504 1359 486 1348 494 1339 c 0
 503 1330 510 1323 534 1323 c 2
 1239 1323 l 2
 1302 1330 1345 1333 1374 1333 c 0
 1443 1333 1458 1325 1458 1309 c 2
 1458 1303 l 1
 1455 1286 1442.63 1265.34 1384 1200 c 2
 440 148 l 2
 418.309 120.111 421.541 95 428 95 c 2
EndSplineSet
EndChar

StartChar: bracketleft
Encoding: 91 91 59
Width: 769
GlyphClass: 2
Flags: HW
HStem: -405 104<346 622> 1307 105<673 970>
VStem: 98 893<-405 1412>
LayerCount: 2
Fore
SplineSet
991 1412 m 1
 970 1307 l 1
 673 1307 l 1
 346 -301 l 1
 643 -301 l 1
 622 -405 l 1
 98 -405 l 1
 467 1412 l 1
 991 1412 l 1
EndSplineSet
EndChar

StartChar: backslash
Encoding: 92 92 60
Width: 673
GlyphClass: 2
Flags: HW
HStem: 1409 20G<23 198>
VStem: 23 645<-98 1429>
LayerCount: 2
Fore
SplineSet
489 1429 m 1
 314 1429 l 1
 473 -98 l 1
 648 -98 l 1
 489 1429 l 1
EndSplineSet
EndChar

StartChar: bracketright
Encoding: 93 93 61
Width: 769
VWidth: 2047
GlyphClass: 2
Flags: HW
HStem: -410 105<3 300> 1303 104<351 627>
VStem: -18 893<-410 1407>
LayerCount: 2
Fore
SplineSet
-18 -410 m 1
 3 -305 l 1
 300 -305 l 1
 627 1303 l 1
 330 1303 l 1
 351 1407 l 1
 875 1407 l 1
 506 -410 l 1
 -18 -410 l 1
EndSplineSet
EndChar

StartChar: asciicircum
Encoding: 94 94 62
Width: 1111
GlyphClass: 2
Flags: HW
HStem: 702 630<387 485>
VStem: 222 668<702 702>
LayerCount: 2
Fore
SplineSet
780 1107 m 1
 530 702 l 1
 365 702 l 1
 756 1332 l 1
 899 1332 l 1
 1033 702 l 1
 867 702 l 1
 780 1107 l 1
EndSplineSet
EndChar

StartChar: underscore
Encoding: 95 95 63
Width: 1047
GlyphClass: 2
Flags: HW
HStem: -313 105<-4 1052>
LayerCount: 2
Fore
SplineSet
1010 -208 m 1
 988 -313 l 1
 -68 -313 l 1
 -46 -208 l 1
 1010 -208 l 1
EndSplineSet
EndChar

StartChar: grave
Encoding: 96 96 64
Width: 803
GlyphClass: 2
Flags: HW
HStem: 1098 329
VStem: 440 279
LayerCount: 2
Fore
SplineSet
662 1415 m 1
 755 1171 l 2
 761 1153 764 1142 764 1137 c 0
 764 1135 762 1126 761 1118 c 0
 758 1105 721 1090 685 1090 c 0
 645 1090 627 1101 599 1132 c 2
 399 1361 l 1
 404 1374 l 1
 408 1377 413 1380 439 1392 c 1
 435 1392 l 1
 459 1407 504 1435 588 1435 c 0
 609 1435 639 1430 662 1415 c 1
EndSplineSet
EndChar

StartChar: a
Encoding: 97 97 65
Width: 1107
GlyphClass: 2
Flags: HW
HStem: -25 101<378.5 528.3> 832 79<517.8 807.7>
VStem: 160 249<150.319 583.3>
LayerCount: 2
Fore
SplineSet
763 400 m 0
 805 507 828 646 828 677 c 0
 828 758 790 832 731 832 c 0
 567 832 409 520 409 309 c 0
 409 199 410 76 515 76 c 0
 572 76 696 230 763 400 c 0
697 75 m 0
 697 83 698.333 96.3333 699.332 105.665 c 1
 607.332 17.665 507 -25 436 -25 c 0
 224 -25 160 155 160 271 c 0
 160 592 489 911 724 911 c 0
 832 911 876 866 898 804 c 1
 972 911 l 1
 1126 913 l 1
 968 252 l 2
 958.495 212.117 953 184 953 166 c 0
 953 142 961 133 970 133 c 0
 993 133 1033 164 1077 220 c 1
 1140 164 l 1
 1013 34 916 -25 809 -25 c 0
 704 -25 697 38 697 75 c 0
EndSplineSet
Substitution2: "'sinf' Wissenschaftliche Indices in Latin lookup 5" a.inferior
EndChar

StartChar: b
Encoding: 98 98 66
Width: 1059
GlyphClass: 2
Flags: HW
HStem: -17 57 815 88 1293 19 1398 20G
VStem: 944 161
LayerCount: 2
Fore
SplineSet
860 586 m 0
 860 702 818 807 738 807 c 0
 703.189 807 643.594 799.919 547.554 732.457 c 1
 401.999 99 l 1
 428.911 56.9648 463.16 47 498 47 c 0
 736 47 860 403 860 586 c 0
315 1368 m 1
 393 1373 482.637 1378.87 604 1426 c 1
 708 1426 l 1
 576 854 l 1
 640 887 723 911 800 911 c 0
 1003 911 1111 760 1111 607 c 0
 1111 456 1004 184 724 30 c 0
 665.189 -2.34604 585 -25 495 -25 c 0
 411 -25 352 0 286 67 c 1
 262 36 216.5 -19 197 -35 c 1
 132 -7 l 1
 146 35 154.997 69.0006 174 151 c 2
 412 1178 l 2
 424.954 1233.9 432.1 1270.67 432.1 1289.36 c 0
 432.1 1299.17 430.131 1304 426 1304 c 0
 425 1304 415 1303 400 1301 c 0
 385 1299 369 1298 358 1298 c 0
 328 1298 307 1305 307 1313 c 1
 307 1313 312 1348 315 1368 c 1
EndSplineSet
EndChar

StartChar: c
Encoding: 99 99 67
Width: 910
GlyphClass: 2
Flags: HW
HStem: -25 105<460.767 663.004> 832 79<580.94 736.438>
VStem: 148 254<166.581 533.712> 752 237<617.365 705.436 661.333 818.783>
LayerCount: 2
Fore
SplineSet
488 -25 m 0
 283 -25 148 181 148 311 c 0
 148 652 435 911 690 911 c 0
 916 911 989 794 989 692 c 0
 989 617 893 589 862 589 c 0
 773 589 752 629 752 663 c 0
 752 701.582 760 697.5 760 759 c 0
 760 820 712 832 696 832 c 0
 561 832 402 652 402 355 c 0
 402 120 497 80 550 80 c 0
 597 80 720 144 802 237 c 1
 885 168 l 1
 786 67 675 -25 488 -25 c 0
EndSplineSet
EndChar

StartChar: d
Encoding: 100 100 68
Width: 1140
GlyphClass: 2
Flags: HW
HStem: -17 85 -17 113 840 63 1398 20G
VStem: 209 163 763 153
LayerCount: 2
Fore
SplineSet
823 683 m 0
 823 763 783 832 723 832 c 0
 537 832 396 556 396 316 c 0
 396 207 404 76 512 76 c 0
 559 76 689 219 752 369 c 0
 792 478 823 652 823 683 c 0
693.338 105.66 m 1
 589.338 6.66016 499 -25 441 -25 c 0
 163 -25 144 198 144 294 c 0
 144 647 498 911 716 911 c 0
 771 911 828 897 871 873 c 1
 893 975 938 1178 938 1178 c 2
 950.05 1236.24 957.452 1273.27 957.452 1291.18 c 0
 957.452 1299.81 955.737 1304 952 1304 c 0
 925.668 1301.23 881.102 1296 871 1296 c 0
 848 1296 832 1302 832 1314 c 0
 832 1320 839 1357 841 1375 c 1
 882 1375 1028 1386 1130 1426 c 1
 1234 1426 l 1
 962 252 l 2
 952.791 212.048 947 184 947 166 c 0
 947 142 955 133 964 133 c 0
 987 133 1027 164 1071 220 c 1
 1134 164 l 1
 1007 34 910 -25 803 -25 c 0
 698 -25 691 38 691 75 c 0
 691 83 692.333 96.333 693.338 105.66 c 1
EndSplineSet
EndChar

StartChar: e
Encoding: 101 101 69
Width: 972
GlyphClass: 2
Flags: HW
HStem: -25 113<461.7 651.5> 832 79<611.7 776.8>
VStem: 141 256<109.6 390.786> 796 229<658.2 827.9>
LayerCount: 2
Fore
SplineSet
796 759 m 0
 796 812 763 832 717 832 c 0
 636 832 483 738 412 451 c 1
 563 476 796 562 796 759 c 0
1025 757 m 0
 1025 681 953 459 399 380 c 1
 397 365 397 350 397 341 c 0
 397 163 483 88 554 88 c 0
 629 88 717 153 840 285 c 1
 929 221 l 1
 813 60 667 -25 481 -25 c 0
 244 -25 141 119 141 296 c 0
 141 556 390 911 763 911 c 0
 960 911 1025 832 1025 757 c 0
EndSplineSet
Substitution2: "'sinf' Wissenschaftliche Indices in Latin lookup 5" e.inferior
EndChar

StartChar: f
Encoding: 102 102 70
Width: 758
GlyphClass: 2
Flags: HW
HStem: -487 76 799 79 1378 57
LayerCount: 2
Fore
SplineSet
362 791 m 1
 264 791 l 2
 228 791 211 794 211 804 c 0
 211 805 217 832 220 841 c 1
 219 841 l 1
 223 858 250 886 318 886 c 2
 380 886 l 1
 493 1394 749 1443 846 1443 c 0
 1021 1443 1088 1380 1088 1288 c 0
 1088 1238 1057 1207 992 1207 c 0
 934 1207 868 1257 864 1312 c 0
 861.411 1347.6 851 1370 829 1370 c 0
 758 1370 702.555 1247.98 644 1004 c 2
 644 1004 626 929 616 886 c 1
 794 886 l 2
 834 886 852 880 852 869 c 1
 841 823 l 2
 836 801 781 791 744 791 c 2
 594 791 l 1
 592 783 589 769 588 762 c 0
 494 293 396 -141 244 -363 c 0
 186 -445 101 -500 0 -500 c 0
 -146 -500 -190 -426 -190 -391 c 0
 -190 -360 -168 -317 -100 -317 c 0
 24.4633 -317 23.7414 -403 54 -403 c 0
 161.43 -403 212 -135 248 159 c 0
 266.003 306.026 302.479 516.191 315 574 c 2
 362 791 l 1
EndSplineSet
EndChar

StartChar: g
Encoding: 103 103 71
Width: 1054
GlyphClass: 2
Flags: HW
HStem: -472 78 -17 113 261 57 849 54 854 83
VStem: 63 121 208 113 284 148 801 146 828 112
LayerCount: 2
Fore
SplineSet
737 630 m 0
 737 748 703 841 630 841 c 0
 519 841 457 704 457 558 c 0
 457 459 472 326 563 326 c 0
 681 326 737 470 737 630 c 0
355 -25 m 0
 331 -25 314 -25 297 -23 c 1
 258 -56 209 -132 209 -226 c 0
 209 -327 323 -386 522 -386 c 0
 694 -386 765 -263 765 -189 c 0
 765 -122 731 -20 471 -20 c 0
 433 -21 392 -24 355 -25 c 0
973 630 m 0
 973 414 795 253 543 253 c 0
 476 253 423 261 382 276 c 1
 360 247 347 218 347 173 c 0
 347 124 371 104 406 104 c 0
 421 104 453 106 492 111 c 0
 539 116 596 120 632 120 c 0
 915 120 966 -58 966 -114 c 0
 966 -317 720 -480 419 -480 c 0
 280 -480 0 -432 0 -262 c 0
 0 -149 97 -59 213 5 c 1
 147 46 145 92 145 110 c 0
 145 183 220 286 296 348 c 1
 238 411 225 492 225 573 c 0
 225 678 342 911 657 911 c 0
 745 911 799 894 839 869 c 1
 917 935 1018 944 1041 944 c 0
 1115 944 1155 910 1155 867 c 0
 1155 823 1121 781 1060 781 c 0
 988.839 781 981 854.994 981 855 c 1
 934 840 924 815 922 798 c 1
 962 741 973 672 973 630 c 0
EndSplineSet
EndChar

StartChar: h
Encoding: 104 104 72
Width: 1151
GlyphClass: 2
Flags: HW
HStem: -25 158<777.5 1002.5> 795 116<722.268 929.016> 1299 79<325.499 376.719 377.893 429.92> 1409 20G<589 718>
VStem: 718 256<65.7881 212.779> 847 248<663.979 794.711>
DStem2: 150 9 395 35 0.225727 0.974191<80.6321 647.761 816.597 1314.05> 746 239 989 252 0.227884 0.973688<-18.2919 482.801>
LayerCount: 2
Fore
SplineSet
746 239 m 2
 823 568 l 2
 837.894 626.027 847 675 847 713 c 0
 847 770 832 795 813 795 c 0
 761.381 795 670.221 775.027 520.824 588 c 1
 395 35 l 1
 169 -41 l 1
 150 9 l 1
 422 1181 l 2
 434.059 1229.24 443.691 1269.57 443.691 1290.82 c 0
 443.691 1301.18 441.405 1307 436 1307 c 0
 418 1305 396 1302 377 1300 c 0
 371 1299 365 1299 360 1299 c 0
 334 1299 316 1307 316 1319 c 1
 325 1378 l 1
 377 1378 467.977 1388.12 504 1395 c 0
 535.98 1401.11 566 1410 612 1429 c 1
 718 1429 l 1
 561 752 l 1
 700 881 812 911 911 911 c 0
 1014 911 1095 873 1095 746 c 0
 1095 707 1081 642 1064 579 c 2
 989 252 l 2
 978.77 212.297 974 184 974 166 c 0
 974 142 982 133 991 133 c 0
 1014 133 1054 164 1098 220 c 1
 1161 164 l 1
 1034 34 937 -25 830 -25 c 0
 725 -25 718 38 718 75 c 0
 718 110 730.055 177.472 746 239 c 2
EndSplineSet
EndChar

StartChar: i
Encoding: 105 105 73
Width: 674
GlyphClass: 2
Flags: HW
HStem: -25 21<297.5 403.5> 775 62.553<241.272 365.075> 891 20<534 643> 1047 246<485.808 662.608>
VStem: 452.208 244<1081.6 1258.4>
LayerCount: 2
Fore
SplineSet
452 1170 m 0
 452 1238 506 1293 574 1293 c 0
 642 1293 696 1238 696 1170 c 0
 696 1102 642 1047 574 1047 c 0
 506 1047 452 1102 452 1170 c 0
325 -25 m 0
 220 -25 213 38 213 75 c 0
 213 110 227 177 241 239 c 2
 348 692 l 2
 356.977 730.005 361 751 361 762 c 0
 361 773 357 775 352 775 c 0
 322 774 264 758 226 747 c 1
 227 831 l 1
 317 843 441 864 529 911 c 1
 638 911 l 1
 484 252 l 2
 475 212 469 184 469 166 c 0
 469 142 477 133 486 133 c 0
 509 133 549 164 593 220 c 1
 656 164 l 1
 529 34 432 -25 325 -25 c 0
EndSplineSet
EndChar

StartChar: j
Encoding: 106 106 74
Width: 715
GlyphClass: 2
Flags: HW
HStem: -354 51 770 62 883 20G 1067 194
VStem: -68 125 529 196
LayerCount: 2
Fore
SplineSet
487.708 1170 m 0
 487.708 1238 541.708 1293 609.708 1293 c 0
 677.708 1293 731.708 1238 731.708 1170 c 0
 731.708 1102 677.708 1047 609.708 1047 c 0
 541.708 1047 487.708 1102 487.708 1170 c 0
410 775 m 1
 392 774 334 764 266 749 c 1
 285 838 l 1
 330 840 467 853 573 911 c 1
 683 911 l 1
 584 481 l 2
 470 -9 360 -362 68 -362 c 0
 -46 -362 -123 -319 -123 -255 c 0
 -123 -186 -59 -176 -30 -176 c 0
 75.0488 -176 38 -295 84 -295 c 0
 109.25 -295 183.772 -235.949 221 -69 c 2
 318 366 l 1
 393 690 l 2
 406.169 750.576 410 775 410 775 c 1
EndSplineSet
EndChar

StartChar: k
Encoding: 107 107 75
Width: 1173
GlyphClass: 2
Flags: HW
HStem: -17 94 796 107 1401 20G
VStem: 238 970
LayerCount: 2
Fore
SplineSet
663 134 m 2
 566 485 l 1
 505.584 439.688 l 1
 415 36 l 1
 190 -42 l 1
 170 10 l 1
 437 1178 l 2
 449.06 1236.29 456.007 1273.33 456.007 1291.23 c 0
 456.007 1299.82 454.406 1304 451 1304 c 0
 432 1302 410 1299 391 1298 c 0
 384 1297 378 1297 372 1297 c 0
 331.419 1297 331 1315.99 331 1316 c 0
 331 1327.75 338 1358 340 1375 c 1
 381 1375 527 1388 630 1429 c 1
 733 1429 l 1
 540 593 l 1
 623 655 853 818 853 818 c 2
 958.237 892.581 1011 911 1092 911 c 0
 1168 911 1211 884 1211 814 c 0
 1211 729 1140 706 1099 706 c 0
 1009.93 706 982 769 982 794 c 1
 774.263 637.499 l 1
 882 252 l 2
 893.098 212.291 902 184 911 166 c 0
 922 142 934 133 943 133 c 0
 966 133 992 164 1009 220 c 1
 1099 164 l 1
 1032 34 962 -25 855 -25 c 0
 750 -25 700.778 42 683.778 79 c 0
 677.378 93.002 669.091 111.961 663 134 c 2
EndSplineSet
EndChar

StartChar: l
Encoding: 108 108 76
Width: 612
GlyphClass: 2
Flags: HW
HStem: -25 21G<247 353> 1409 20G<627 731>
LayerCount: 2
Fore
SplineSet
215.5 239 m 2
 435 1181 l 2
 446.354 1230.14 454.135 1270.18 454.135 1290.86 c 0
 454.135 1300.58 452.519 1306 449 1306 c 0
 447 1306 434 1305 421 1303 c 0
 407 1301 388 1300 382 1300 c 0
 349 1300 329 1306 329 1316 c 0
 329 1317 335 1355 339 1378 c 1
 379 1378 524 1388 627 1429 c 1
 731 1429 l 1
 458.5 252 l 2
 449.281 212.05 443.5 184 443.5 166 c 0
 443.5 142 451.5 133 460.5 133 c 0
 483.5 133 523.5 164 567.5 220 c 1
 630.5 164 l 1
 503.5 34 406.5 -25 299.5 -25 c 0
 194.5 -25 187.5 38 187.5 75 c 0
 187.5 110 201.193 177.07 215.5 239 c 2
EndSplineSet
EndChar

StartChar: m
Encoding: 109 109 77
Width: 1677
GlyphClass: 2
Flags: HW
HStem: -17 112 770 61 803 100
VStem: 953 158 1353 157 1473 155
LayerCount: 2
Fore
SplineSet
1296 239 m 2
 1359 566 l 2
 1369.62 621.11 1377 672 1377 696 c 0
 1377 764 1359 795 1343 795 c 0
 1299.55 795 1239.46 788.735 1074 558 c 1
 955 36 l 1
 729 -42 l 1
 710 10 l 1
 843 574 l 2
 856.471 631.127 858 671 858 696 c 0
 858 768 845 795 830 795 c 0
 785.841 795 718.42 791.141 566 574 c 1
 441 36 l 1
 215 -42 l 1
 195 10 l 1
 354 690 l 2
 357.509 705.005 359.38 717.345 359.38 727.339 c 0
 359.38 753.218 346.835 763.375 317.684 763.375 c 0
 296.982 763.375 267.906 758.253 229 750 c 1
 238 835 l 1
 309 842 423 851 535 911 c 1
 643 911 l 1
 611 767 l 1
 702 857 798 911 921 911 c 0
 993 911 1093 883 1103 738 c 1
 1198 839 1304 911 1434 911 c 0
 1517 911 1621 858 1621 716 c 0
 1621 683 1609.99 624.111 1601 577 c 2
 1539 252 l 2
 1529.98 212.005 1524 184 1524 166 c 0
 1524 142 1532 133 1541 133 c 0
 1564 133 1604 164 1648 220 c 1
 1711 164 l 1
 1584 34 1487 -25 1380 -25 c 0
 1275 -25 1268 38 1268 75 c 0
 1268 110 1281.92 177.018 1296 239 c 2
EndSplineSet
EndChar

StartChar: n
Encoding: 110 110 78
Width: 1187
GlyphClass: 2
Flags: HW
HStem: -25 21G<843.5 924> 795 116<799.3 928>
LayerCount: 2
Fore
SplineSet
759 239 m 2
 833 574 l 2
 847.179 638.187 855 678 855 708 c 0
 855 766 836 795 816 795 c 0
 764.132 795 678.521 781.219 531 588 c 1
 404 35 l 1
 177 -40 l 1
 159 9 l 1
 309 654 l 2
 322.513 712.106 331.557 751.038 331.557 768.502 c 0
 331.557 775.452 330.132 779 327 779 c 0
 315.665 777.381 262.582 773 256 773 c 0
 223 773 203 779 203 789 c 0
 203 790 209 828 213 851 c 1
 233 851 414 875 504 911 c 1
 607 911 l 1
 571 759 l 1
 709 886 815 911 914 911 c 0
 1016 911 1103 868 1103 741 c 0
 1103 707 1092 657 1075 584 c 0
 1051 475 1002 252 1002 252 c 2
 993.201 211.956 987 184 987 166 c 0
 987 142 995 133 1004 133 c 0
 1027 133 1067 164 1111 220 c 1
 1174 164 l 1
 1047 34 950 -25 843 -25 c 0
 738 -25 731 38 731 75 c 0
 731 110 745.29 176.935 759 239 c 2
EndSplineSet
Substitution2: "'sups' Superscript in Latin lookup 6" n.superior
EndChar

StartChar: o
Encoding: 111 111 79
Width: 1040
GlyphClass: 2
Flags: HW
HStem: -25 88<492.6 830.6> 828 83<423 839>
VStem: 147 259<195.3 586.7> 826 253<388 720.8>
LayerCount: 2
Fore
SplineSet
406 354 m 0
 406 102 507 63 555 63 c 0
 767 63 826 427 826 557 c 0
 826 683 803 828 683 828 c 0
 483 828 406 533 406 354 c 0
147 337 m 0
 147 583 353 911 720 911 c 0
 1004 911 1079 719 1079 571 c 0
 1079 247 785 -25 504 -25 c 0
 210 -25 147 228 147 337 c 0
EndSplineSet
Substitution2: "'sinf' Wissenschaftliche Indices in Latin lookup 5" o.inferior
EndChar

StartChar: p
Encoding: 112 112 80
Width: 1101
GlyphClass: 2
Flags: HW
HStem: -459 48 -459 57 -17 70 809 94
VStem: 969 166
LayerCount: 2
Fore
SplineSet
338.056 703.863 m 1
 387 919 l 1
 639 962 l 1
 618 868 l 1
 671 889 737 911 817 911 c 0
 1063 911 1135 778 1135 593 c 0
 1135 376 869 -25 557 -25 c 0
 503 -25 456 -18 418 -3 c 1
 395 -107 369 -211 345 -314 c 0
 343 -323 342 -334 342 -345 c 0
 342 -375 349 -394 368 -394 c 2
 406 -394 l 2
 446 -394 464 -403 464 -418 c 2
 464 -449 l 1
 444 -468 l 1
 444 -468 277 -467 198 -467 c 0
 126 -467 -41 -480 -41 -480 c 1
 -60 -459 l 1
 -60 -428 l 2
 -60 -410 -29 -403 4 -403 c 2
 43 -403 l 2
 77 -403 94.9347 -363.985 107 -311 c 2
 303.531 556 l 1
 272 524 234 481 208 446 c 1
 135 509 l 1
 185.059 576.672 258.321 643.486 338.056 703.863 c 1
880 561 m 0
 880 657 852 801 751 801 c 0
 700.626 801 638 790 591 759 c 1
 449.361 134.136 l 1
 488.21 83.9927 529.027 61 561 61 c 0
 779 61 880 428 880 561 c 0
EndSplineSet
EndChar

StartChar: q
Encoding: 113 113 81
Width: 1173
GlyphClass: 2
Flags: HW
HStem: -459 48 -459 57 -5 85 836 63
VStem: 240 163
LayerCount: 2
Fore
SplineSet
839 679 m 0
 839 760 805 828 746 828 c 0
 563 828 409 568 409 328 c 0
 409 219 425 88 508 88 c 0
 568 88 726 246 770 375 c 0
 808 487 839 648 839 679 c 0
613 -311 m 2
 706 84 l 1
 623 8 552 -13 445 -13 c 0
 239 -13 156 163 156 306 c 0
 156 659 507 907 739 907 c 0
 825 907 893 885 941 835 c 1
 954 850 966 863 979 878 c 0
 998.038 899.967 1019 924 1065 924 c 0
 1089 924 1128 920 1128 890 c 0
 1128 883 1125 870 1123 859 c 2
 852 -314 l 2
 850 -323 849 -334 849 -345 c 0
 849 -375 856 -394 874 -394 c 2
 913 -394 l 2
 953 -394 970 -403 970 -418 c 2
 970 -449 l 1
 951 -468 l 1
 951 -468 783 -467 704 -467 c 0
 632 -467 466 -480 466 -480 c 1
 446 -459 l 1
 446 -428 l 2
 446 -410 478 -403 510 -403 c 2
 549 -403 l 2
 583 -403 600.77 -362.946 613 -311 c 2
EndSplineSet
EndChar

StartChar: r
Encoding: 114 114 82
Width: 824
GlyphClass: 2
Flags: HW
HStem: 770 62 773 130
VStem: 244 717
LayerCount: 2
Fore
SplineSet
531.553 588 m 2
 413 36 l 1
 187 -42 l 1
 167 10 l 1
 331 711 l 2
 334.225 725.513 335.772 737.102 335.772 746.24 c 0
 335.772 768.543 326.554 776.25 309.998 776.25 c 0
 286.246 776.25 247.394 760.387 199 749 c 1
 218 833 l 1
 321.667 841.667 388.964 847.916 504 911 c 1
 615 911 l 1
 587 807 l 1
 662 869 744 911 818 911 c 0
 925 911 963 853 963 807 c 0
 963 749 911 684 846 684 c 0
 748 684 707 736 707 762 c 1
 677.97 749.42 554.694 695.749 531.553 588 c 2
EndSplineSet
EndChar

StartChar: s
Encoding: 115 115 83
Width: 855
GlyphClass: 2
Flags: HW
HStem: -17 57 843 60
VStem: 194 59 317 134 678 151 830 59
LayerCount: 2
Fore
SplineSet
435 -25 m 0
 328 -25 224 0 128 0 c 1
 118 303 l 1
 229 311 l 1
 229 156 308 47 442 47 c 0
 520 47 598 94 598 202 c 0
 598 298 495 366 410 415 c 0
 274.173 493.3 221 550 221 639 c 0
 221 816 400 911 606 911 c 0
 710 911 788 884 878 811 c 1
 868 588 l 1
 752 595 l 1
 752 733 680 835 593 835 c 0
 496 835 445 766 445 692 c 0
 445 631 471 582 525 556 c 0
 694 472 837 381 837 267 c 0
 837 77 656 -25 435 -25 c 0
EndSplineSet
EndChar

StartChar: t
Encoding: 116 116 84
Width: 716
GlyphClass: 2
Flags: HW
HStem: -25 21G<239.5 345.5> 791 95<215 336 596 778.12>
LayerCount: 2
Fore
SplineSet
208 239 m 2
 336 791 l 1
 194 791 l 1
 215 886 l 1
 402.794 886 417 959 453 1148 c 1
 673 1218 l 1
 596 886 l 1
 774 886 l 2
 814 886 831 880 831 869 c 1
 821 824 l 2
 817 801 762 791 725 791 c 2
 575 791 l 1
 451 252 l 2
 441.808 212.043 436 184 436 166 c 0
 436 142 444 133 453 133 c 0
 476 133 516 164 560 220 c 1
 623 164 l 1
 496 34 399 -25 292 -25 c 0
 187 -25 180 38 180 75 c 0
 180 110 193.642 177.082 208 239 c 2
EndSplineSet
EndChar

StartChar: u
Encoding: 117 117 85
Width: 1149
GlyphClass: 2
Flags: HW
HStem: 139 105 131 113 -676 116
VStem: 451 160 -58 152
LayerCount: 2
Fore
SplineSet
576 647 m 2
 488 309 l 2
 476.447 264.624 469 208 469 177 c 0
 469 123 477 96 509 96 c 0
 570 96 755.492 215.118 818 484 c 2
 818 484 881 755 911 886 c 1
 951 886 1088 902 1154 913 c 1
 995 252 l 2
 986 212 980 184 980 166 c 0
 980 142 988 133 997 133 c 0
 1020 133 1060 164 1104 220 c 1
 1167 164 l 1
 1040 34 943 -25 836 -25 c 0
 731 -25 724 38 724 75 c 0
 724 83 730 112 747 158 c 1
 628 25 517 -25 410 -25 c 0
 264 -25 221 21 221 126 c 0
 221 164 234.37 250.44 243 284 c 2
 333 634 l 2
 343.153 673.482 348 702 348 720 c 0
 348 744 340 753 331 753 c 0
 308 753 268 722 224 666 c 1
 161 722 l 1
 288 852 385 911 492 911 c 0
 597 911 604 848 604 811 c 0
 604 776 591.918 708.14 576 647 c 2
EndSplineSet
EndChar

StartChar: v
Encoding: 118 118 86
Width: 958
GlyphClass: 2
Flags: HW
HStem: -17 21G 800 103
VStem: 901 115
LayerCount: 2
Fore
SplineSet
184 704 m 1
 179 715 l 1
 255 827 343 911 458 911 c 0
 565 911 575.521 855.965 584 743 c 2
 618 290 l 1
 618 288 l 1
 677 372 797 542 797 542 c 2
 829.489 588.103 845 636 845 686 c 0
 845 706 833 726 816 740 c 0
 783 765 782 794 782 822 c 0
 782 881 855 911 912 911 c 0
 986 911 1049 859 1049 784 c 0
 1049 731 1043.81 659.132 929 497 c 2
 599 31 l 2
 574 -4 550 -25 499 -25 c 0
 444 -25 421 0 418 32 c 2
 359 739 l 2
 356.621 758.03 349.648 765.817 340.339 765.817 c 0
 309.494 765.817 253 680.322 253 635 c 1
 184 704 l 1
EndSplineSet
EndChar

StartChar: w
Encoding: 119 119 87
Width: 1418
GlyphClass: 2
Flags: HW
HStem: -17 21G 796 107
VStem: 1368 115
LayerCount: 2
Fore
SplineSet
193 711 m 1
 189 722 l 1
 287 851 358 911 484 911 c 0
 584 911 591 826 600 711 c 2
 629 335 l 1
 819 671 l 2
 834 694 866 718 907 718 c 0
 978 718 1009 692 1015 663 c 2
 1015 663 1076 404 1106 278 c 1
 1158 366 1262 543 1262 543 c 2
 1303.35 613.383 1313 654 1313 687 c 0
 1313 711 1301 723 1281 741 c 0
 1251 768 1246 808 1246 836 c 0
 1246 883 1314 911 1380 911 c 0
 1463 911 1517 856 1517 784 c 0
 1517 732 1487 652 1399 500 c 2
 1119 25 l 2
 1100 -7 1061 -25 1019 -25 c 0
 973 -25 943 -3 936 24 c 2
 936 24 877 270 839 431 c 1
 766 305 609 33 609 33 c 2
 585 -8 545 -25 505 -25 c 0
 465 -25 423 3 420 33 c 2
 366 705 l 2
 363.52 735.865 354.565 747.84 343.078 747.84 c 0
 314.743 747.84 271 674.98 271 633 c 1
 193 711 l 1
EndSplineSet
EndChar

StartChar: x
Encoding: 120 120 88
Width: 1059
GlyphClass: 2
Flags: HW
HStem: -17 88 -17 130 776 127 817 86
VStem: 158 998
LayerCount: 2
Fore
SplineSet
718 730 m 2
 800 853 897 911 1021 911 c 0
 1088 911 1158 884 1158 830 c 0
 1158 778 1119 730 1068 730 c 0
 1039 730 997 743 978 754 c 0
 963 762 937 768 929 768 c 0
 922 768 893 750 871 716 c 2
 722.205 491.349 l 1
 829 152 l 2
 840.118 116.712 856.77 103.244 873.411 103.244 c 0
 902.22 103.244 931 143.603 931 181 c 1
 1029 124 l 1
 964 16 892 -25 806 -25 c 0
 704 -25 627 36 593 143 c 2
 561 247 l 1
 536 211 511 174 488 137 c 0
 401 7 337 -25 244 -25 c 0
 181 -25 95 3 95 61 c 0
 95 111 121 155 193 155 c 0
 236.804 155 262.42 122.169 289.982 122.169 c 0
 303.948 122.169 318.414 130.599 336 156 c 2
 512 422 l 1
 507 416 l 1
 472 529 401 757 401 757 c 2
 388.387 794.839 374.638 807.255 359.303 807.255 c 0
 330.027 807.255 294.969 762 251 762 c 0
 228 762 215 772 215 790 c 0
 215 802 218 821 245 841 c 0
 319 885 391 911 480 911 c 0
 577 911 612 839 638 759 c 2
 670 657 l 1
 686 681 718 730 718 730 c 2
EndSplineSet
Substitution2: "'sinf' Wissenschaftliche Indices in Latin lookup 5" x.inferior
EndChar

StartChar: y
Encoding: 121 121 89
Width: 1046
GlyphClass: 2
Flags: HW
HStem: -440 133 795 108
VStem: 974 113
LayerCount: 2
Fore
SplineSet
193 -448 m 0
 146 -448 53 -430 53 -358 c 0
 53 -322 65 -255 186 -255 c 0
 231.873 -255 261.105 -287.296 298.44 -287.296 c 0
 336.798 -287.296 383.707 -253.21 466 -115 c 2
 519.292 -30.0935 l 1
 471.867 231.18 359 747 359 747 c 2
 355.523 759.17 350.332 763.799 344.063 763.799 c 0
 324.132 763.799 293.301 717 272 717 c 0
 219.539 717 198 757 193 771 c 1
 222 807 308 911 423 911 c 0
 518 911 567 867 595 761 c 0
 643 563 669 448 700 276 c 1
 754 366 861 542 861 542 c 2
 898.572 604.075 912 642 912 679 c 0
 912 752 859 743 859 811 c 0
 859 897 916 911 988 911 c 0
 1062 911 1115 859 1115 784 c 0
 1115 731 1090 658 997 499 c 2
 613 -138 l 2
 489.84 -342.305 318 -448 193 -448 c 0
EndSplineSet
EndChar

StartChar: z
Encoding: 122 122 90
Width: 978
GlyphClass: 2
Flags: HW
HStem: -25 179<614.916 793.464> 720 130<620.356 814.5> 737 174<329.42 584.771>
VStem: 94 914
DStem2: 229 197 436 228 0.673866 0.738853<162.395 725.148 873.063 1000.2>
LayerCount: 2
Fore
SplineSet
903 936 m 1
 1008 874 l 1
 991 849 953 802 895 736 c 1
 896 736 l 1
 793.611 607.653 593.267 404.925 436 228 c 1
 495 225 545 214 572 200 c 0
 621 172 661 154 688 154 c 0
 694.112 154 701.356 153.483 709.597 153.483 c 0
 747.197 153.483 805.562 164.247 872 284 c 1
 945 253 l 1
 849 31 768 -25 655 -25 c 0
 586 -25 509.193 -4.69074 458 27 c 0
 395 66 349 82 327 82 c 0
 322 82 292 49 245 -30 c 1
 192 -23 163 -17 149 -12 c 0
 123 -4 102 8 94 24 c 1
 101 43 183.004 143.996 229 197 c 0
 352.636 339.473 576.29 553.699 733 734 c 1
 732.118 734.118 731.111 734.173 729.993 734.173 c 0
 712.118 734.173 666 720 650 720 c 0
 587.914 720 538.438 737 438 737 c 0
 378 737 281 688 258 630 c 1
 192 653 l 1
 228 775 335 911 430 911 c 0
 504.523 911 650.961 888.358 752 862 c 0
 780 854 798 850 808 850 c 0
 821 850 842 866 903 936 c 1
EndSplineSet
EndChar

StartChar: braceleft
Encoding: 123 123 91
Width: 644
GlyphClass: 2
Flags: HW
VStem: 215 238<-220 412.9 656 1276.5>
LayerCount: 2
Fore
SplineSet
688 1156 m 2
 614 789 l 2
 579 618 522 557 406 507 c 1
 484 467 512 417 512 339 c 0
 512 301 504.994 255.001 494 201 c 2
 426 -133 l 2
 415.201 -186.041 410 -230 410 -263 c 0
 410 -285 412 -303 417 -316 c 0
 443 -390 482 -399 502 -403 c 1
 494 -441 l 1
 336 -437 231 -410 205 -363 c 0
 188 -331 179 -289 179 -237 c 0
 179 -198 184 -153 194 -102 c 2
 266 252 l 2
 273.935 291.013 279 327 279 359 c 0
 279 431 254 484 182 501 c 1
 184 511 l 1
 305 544 348 656 369 757 c 2
 447 1140 l 2
 468.369 1244.93 508 1325 563 1380 c 0
 611 1427 727 1454 881 1458 c 1
 873 1420 l 1
 827 1408 786 1380 749 1332 c 0
 727 1303 706 1244 688 1156 c 2
EndSplineSet
EndChar

StartChar: bar
Encoding: 124 124 92
Width: 510
GlyphClass: 2
Flags: HW
HStem: -472 21G<166 345> 1316 20G<166 345>
VStem: 166 179<-472 1336>
LayerCount: 2
Fore
SplineSet
249 -472 m 1
 70 -472 l 1
 438 1336 l 1
 617 1336 l 1
 249 -472 l 1
EndSplineSet
EndChar

StartChar: braceright
Encoding: 125 125 93
Width: 644
VWidth: 2047
GlyphClass: 2
Flags: HW
VStem: 191 238<-264.5 356 599.1 1232>
LayerCount: 2
Fore
SplineSet
162 -144 m 2
 236 223 l 2
 271 394 328 455 444 505 c 1
 366 545 338 595 338 673 c 0
 338 711 345.006 756.999 356 811 c 2
 424 1145 l 2
 434.799 1198.04 440 1242 440 1275 c 0
 440 1297 438 1315 433 1328 c 0
 407 1402 368 1411 348 1415 c 1
 356 1453 l 1
 514 1449 619 1422 645 1375 c 0
 662 1343 671 1301 671 1249 c 0
 671 1210 666 1165 656 1114 c 2
 584 760 l 2
 576.065 720.987 571 685 571 653 c 0
 571 581 596 528 668 511 c 1
 666 501 l 1
 545 468 502 356 481 255 c 2
 403 -128 l 2
 381.631 -232.926 342 -313 287 -368 c 0
 239 -415 123 -442 -31 -446 c 1
 -23 -408 l 1
 23 -396 64 -368 101 -320 c 0
 123 -291 144 -232 162 -144 c 2
EndSplineSet
EndChar

StartChar: asciitilde
Encoding: 126 126 94
Width: 970
GlyphClass: 2
Flags: HW
HStem: 432 136<610.4 694.9> 564 135<259.8 366.4>
VStem: 40 877<433 679>
LayerCount: 2
Fore
SplineSet
159 424 m 1
 128 433 l 1
 181 567 336 699 484 699 c 0
 551 699 599 667 645 632 c 0
 687.021 600.028 733 568 755 568 c 0
 798 568 884 605 956 720 c 1
 1055 679 l 1
 947 459 781 432 720 432 c 0
 644 432 600 466 556 499 c 0
 514 532 473 564 445 564 c 0
 391 564 293 503 223 405 c 1
 159 424 l 1
EndSplineSet
EndChar

StartChar: exclamdown
Encoding: 161 161 96
Width: 522
GlyphClass: 2
Flags: HW
HStem: -468 20<397.72 467.22> 677 228<349.82 513.62>
VStem: 279 312<-450.8 -193.935> 318 228<709.1 871.6> 360 155<274.174 470.677>
LayerCount: 2
Fore
SplineSet
162 -468 m 0
 95 -468 32 -430 32 -350 c 0
 32 -338 34 -326 36 -313 c 0
 51 -243 79 -165 105 -96 c 0
 123.531 -46.8208 145.675 11.1053 168 80 c 0
 221.225 244.251 252 354 264 409 c 0
 273 448 282 494 357 494 c 0
 410 494 423 478 423 449 c 0
 423 432 419 410 414 385 c 0
 400 306 388 188 377 80 c 0
 370 1 367 -58 367 -102 c 0
 367 -153 363.808 -234.961 348 -313 c 0
 324.717 -427.943 225 -468 162 -468 c 0
528 791 m 0
 515 728 454 677 391 677 c 0
 336 677 298 716 298 768 c 0
 298 776 298 783 300 791 c 0
 313 853 374 905 437 905 c 0
 492 905 530 865 530 813 c 0
 530 806 529 799 528 791 c 0
EndSplineSet
EndChar

StartChar: cent
Encoding: 162 162 97
Width: 903
VWidth: 2047
GlyphClass: 2
Flags: HW
HStem: -25 105<397.4 649.6> 826 85<377.9 618.4>
VStem: 83 246<172.4 750.9> 276 445<-188 1064>
LayerCount: 2
Fore
SplineSet
856 1075 m 1
 937 1064 l 1
 850.918 887.378 l 1
 958.514 848.03 997 766.061 997 692 c 0
 997 617 901 589 870 589 c 0
 781 589 760 629 760 663 c 0
 760 687.297 763.173 694.674 765.522 712.165 c 1
 475.222 116.533 l 1
 503.158 87.7615 534.654 80 558 80 c 0
 605 80 728 144 810 237 c 1
 893 168 l 1
 794 67 683 -25 496 -25 c 0
 466.509 -25 438.466 -20.7367 412.066 -13.0496 c 1
 319 -204 l 1
 238 -188 l 1
 339.162 18.7431 l 1
 224.965 86.3432 156 218.084 156 311 c 0
 156 652 443 911 698 911 c 0
 725.306 911 750.379 909.292 773.36 906.109 c 1
 856 1075 l 1
428.779 201.893 m 1
 733.187 824.008 l 1
 721.751 830.108 710.353 832 704 832 c 0
 569 832 410 652 410 355 c 0
 410 290.235 417.216 240.281 428.779 201.893 c 1
EndSplineSet
EndChar

StartChar: sterling
Encoding: 163 163 98
Width: 960
GlyphClass: 2
Flags: HW
HStem: -25 118<627.047 733.135> 94 93<294 366> 592 95<133 266 502 766> 1080 100<557.4 716>
VStem: 266 236<413 592 687 854>
LayerCount: 2
Fore
SplineSet
622 589 m 1
 577 368 498 254 404 187 c 1
 524 184 570 156 606 131 c 1
 605 131 l 1
 633 109 657 93 690 93 c 0
 734 93 834 113 927 211 c 1
 975 149 l 1
 918 49 802 -25 631 -25 c 0
 538 -25 482.317 9.51025 431 41 c 0
 387 68 347 94 313 94 c 0
 282 94 267 66 264 47 c 0
 252 -10 175 -35 122 -35 c 0
 76 -35 35 -9 35 17 c 0
 35 19 35 20 35 22 c 1
 44 63 108 106 183 140 c 1
 173 139 l 1
 174 140 184.005 148.994 207 169 c 0
 307 256 350 413 377 547 c 2
 386 592 l 1
 253 592 l 1
 273 687 l 1
 406 687 l 1
 408 697 l 2
 440 854 510.454 959.455 648 1074 c 0
 729.268 1141.68 834 1180 956 1180 c 0
 1011 1180 1135 1159 1135 1094 c 0
 1135 1091 1135 1087 1134 1083 c 0
 1124 1030 1065 999 993 999 c 0
 939 999 921 1017 903 1037 c 0
 883 1058 862 1080 846 1080 c 0
 781 1080 697.059 954.786 664 794 c 2
 642 687 l 1
 906 687 l 1
 886 592 l 1
 622 592 l 1
 622 589 l 1
EndSplineSet
EndChar

StartChar: currency
Encoding: 164 164 99
Width: 988
GlyphClass: 2
Flags: HW
HStem: 250 102<391.3 596.7> 874 102<390 598>
VStem: 90 211<511.6 715.7> 684 212<515.5 714.4>
LayerCount: 2
Fore
SplineSet
426 615 m 0
 421 589 418 563 418 539 c 0
 418 432 470 352 566 352 c 0
 681 352 780 473 809 613 c 0
 814 638 816 662 816 685 c 0
 816 796 759 874 676 874 c 0
 560 874 455 756 426 615 c 0
545 250 m 0
 466 250 400 267 348 300 c 1
 311 262 260 211 231 183 c 1
 132 304 l 1
 255 390 l 1
 224 442 208 495 208 550 c 0
 208 571 210 592 215 613 c 0
 231 692 275 769 349 839 c 1
 320 865 286 895 260 921 c 1
 396 1038 l 1
 475 927 l 1
 542 960 613 976 693 976 c 0
 773 976 838 958 890 925 c 1
 930 964 988 1019 1018 1048 c 1
 1111 923 l 1
 983 834 l 1
 1013 784 1028 733 1028 679 c 0
 1028 657 1025 635 1021 613 c 0
 1005 538 963 465 894 394 c 1
 921 366 956 332 981 306 c 1
 846 187 l 1
 768 304 l 1
 700 269 624 250 545 250 c 0
EndSplineSet
EndChar

StartChar: yen
Encoding: 165 165 100
Width: 1075
GlyphClass: 2
Flags: HW
HStem: 2 70<232.123 392 663.6 822.546> 257 95<129 408 660 939> 465 95<129 396 685 939> 1109 66<942 1022.19>
VStem: 408 252<102 257 352 465>
LayerCount: 2
Fore
SplineSet
1011 352 m 1
 991 257 l 1
 712 257 l 1
 691 153 l 2
 689 140 687 130 687 120 c 0
 687 87 703 72 741 72 c 2
 794 72 l 2
 829 72 855 63 852 47 c 2
 845 17 l 1
 821 -3 l 1
 821 -3 617 2 538 2 c 0
 465 2 247 -3 247 -3 c 1
 231 17 l 1
 238 47 l 2
 241 63 266 72 304 72 c 2
 357 72 l 2
 407 72 428.713 102.057 439 153 c 2
 460 257 l 1
 181 257 l 1
 201 352 l 1
 480 352 l 1
 503 465 l 1
 224 465 l 1
 243 560 l 1
 510 560 l 1
 466 715 423 865 381 1021 c 0
 366 1081 356 1109 333 1109 c 2
 312 1109 l 1
 295 1112 257 1119 259 1131 c 2
 267 1169 l 1
 272 1187 l 1
 322 1180 475 1175 500 1175 c 0
 512 1175 654 1178 703 1183 c 1
 720 1162 l 1
 715 1133 l 2
 712 1121 693 1109 651 1109 c 2
 624 1109 l 2
 619 1109 615 1103 613 1090 c 0
 612 1086 611 1081 611 1076 c 0
 611 1059 616 1038 626 1015 c 1
 715 688 l 1
 788 803 860 916 935 1030 c 0
 953 1055 962 1077 965 1090 c 0
 968 1106 968 1110 962 1110 c 2
 926 1110 l 2
 884 1114 876 1123 878 1132 c 2
 884 1162 l 1
 909 1182 l 1
 924 1181 1068 1174 1093 1174 c 0
 1111 1174 1246 1181 1286 1184 c 1
 1285 1169 l 1
 1278 1133 l 2
 1275 1121 1273 1110 1211 1110 c 2
 1197 1110 l 2
 1168.15 1110 1143.52 1083.29 1097 1021 c 0
 996 863 901 717 799 560 c 1
 1053 560 l 1
 1034 465 l 1
 755 465 l 1
 732 352 l 1
 1011 352 l 1
EndSplineSet
EndChar

StartChar: brokenbar
Encoding: 166 166 101
Width: 470
GlyphClass: 2
Flags: HW
VStem: 146 188<-407 342 632 1382>
LayerCount: 2
Fore
SplineSet
404 342 m 1
 251 -407 l 1
 63 -407 l 1
 216 342 l 1
 404 342 l 1
615 1382 m 1
 463 632 l 1
 275 632 l 1
 427 1382 l 1
 615 1382 l 1
EndSplineSet
EndChar

StartChar: section
Encoding: 167 167 102
Width: 971
GlyphClass: 2
Flags: HW
HStem: -342 77<359.1 558> 1271 77<405 626>
VStem: 74 179<485.6 706.1> 143 224<950.7 1201.6> 618 237<-193.2 36.8> 731 179<309 651.7>
LayerCount: 2
Fore
SplineSet
562 329 m 0
 610 304 673 271 744 230 c 1
 772 259 791.924 301.016 803 354 c 0
 806.973 373.006 809 391 809 408 c 0
 809 605 581 727 451 791 c 1
 421 761 399 719 388 665 c 0
 385 648 383 632 383 615 c 0
 383 494 468 380 562 329 c 0
788 1348 m 0
 943 1348 1072 1257 1072 1128 c 0
 1072 1115 1071 1101 1068 1087 c 0
 1059 1040 993 1002 932 1002 c 0
 836 1002 821 1051 821 1078 c 0
 821 1083 821 1087 822 1090 c 0
 826 1112 841 1132 858 1149 c 1
 855 1148 l 1
 858 1152 863 1167 863 1176 c 0
 863 1196 853 1271 781 1271 c 0
 691 1271 605 1171 584 1069 c 0
 581 1052 579 1036 579 1023 c 0
 579 957 619 930 677 900 c 0
 815.636 828.292 1009 719 1009 520 c 0
 1009 498 1006.9 476.02 1002 452 c 0
 979.56 342.09 915 249 814 177 c 1
 847 138 859 96 859 52 c 0
 859 29 856 6 851 -19 c 0
 824 -153 612 -342 400 -342 c 0
 247 -342 117 -251 117 -121 c 0
 117 -108 119 -94 122 -80 c 0
 132 -29 200 5 258 5 c 0
 352 5 369 -46 369 -73 c 0
 369 -77 369 -80 368 -83 c 0
 365 -99 346 -127 337 -140 c 1
 332 -145 330 -146 327 -164 c 1
 326 -165 326 -167 326 -169 c 0
 326 -192 338 -265 413 -265 c 0
 483 -265 579 -194 605 -62 c 0
 609 -45 610 -29 610 -14 c 0
 610 40 590 83 554 103 c 0
 288 247 182 353 182 496 c 0
 182 519 184 542 189 567 c 0
 211 674 271 763 371 836 c 1
 350 872 343 910 343 947 c 0
 343 976 347 1004 353 1030 c 0
 380 1165 568 1348 788 1348 c 0
EndSplineSet
EndChar

StartChar: dieresis
Encoding: 168 168 103
Width: 819
VWidth: 2047
GlyphClass: 2
Flags: HW
HStem: 1064 220<392 504.3 761.7 874>
VStem: 335 597<1153 1195 1153 1195>
LayerCount: 2
Fore
SplineSet
707 1152 m 0
 707 1223.85 774.831 1284 841 1284 c 0
 894 1284 932 1245 932 1195 c 0
 932 1128.57 865.728 1064 796 1064 c 0
 743 1064 707 1102 707 1152 c 0
335 1153 m 0
 335 1223.07 404.147 1284 470 1284 c 0
 524 1284 560 1246 560 1196 c 0
 560 1125.48 492.8 1064 425 1064 c 0
 373 1064 335 1103 335 1153 c 0
EndSplineSet
EndChar

StartChar: copyright
Encoding: 169 169 104
Width: 1347
VWidth: 2047
GlyphClass: 2
Flags: HW
HStem: 48 85<340.2 1052.6> 308 54<535.3 852.5> 881 43<605.9 796.173> 1120 85<341.5 1053.9>
VStem: 120 85<273.4 981.9> 395 114<437.2 814.3> 1192 85<269.5 983.2>
LayerCount: 2
Fore
SplineSet
1034 438 m 1
 980 374 886 308 773 308 c 0
 603 308 514 417 514 552 c 0
 514 573 516 596 521 618 c 0
 551 769 699 924 891 924 c 0
 955 924 1003 912 1043 891 c 1
 1042 892 1043 916 1043 916 c 1
 1103 926 l 1
 1089 734 l 1
 1032 727 l 1
 1032 772 l 2
 1031 826 984 881 885 881 c 0
 808 881 678 830 634 614 c 0
 629 589 626 564 626 541 c 0
 626 439 677 362 790 362 c 0
 895 362 976 437 1005 471 c 1
 1034 438 l 1
926.884 1125 m 0
 860.884 1125 796.238 1112 731.949 1086 c 0
 668.659 1060 611.335 1024 558.383 980 c 0
 507.024 934 462.444 882 424.237 822 c 0
 387.827 761 361.806 697 347.768 628 c 0
 340.407 591.82 336.9 557.015 336.9 523.296 c 0
 336.9 492.708 339.786 463.015 345.298 434 c 0
 359.091 374 382.512 322 415.152 276 c 0
 450.201 232 492.877 196 545.587 170 c 0
 598.094 143 657.449 130 724.449 130 c 0
 789.449 130 854.094 143 917.384 169 c 0
 980.673 195 1038.79 230 1091.15 276 c 0
 1143.1 320 1188.89 373 1225.3 434 c 0
 1263.5 494 1288.73 559 1302.77 628 c 0
 1310.1 664.053 1313.88 698.742 1313.88 732.35 c 0
 1313.88 763.063 1310.73 792.873 1304.24 822 c 0
 1292.44 882 1268.02 934 1234.38 980 c 0
 1200.33 1024 1156.56 1059.8 1103.95 1086 c 0
 1052.14 1111.8 992.884 1125 926.884 1125 c 0
707.562 47 m 0
 624.562 47 549.614 62 481.921 93 c 0
 416.229 124 360.569 165 317.353 218 c 0
 273.136 271 242.546 332 225.991 403 c 0
 217.465 439.568 213.133 477.198 213.133 515.889 c 0
 213.133 552.318 216.973 589.689 224.768 628 c 0
 241.044 708 272.303 783 317.748 854 c 0
 363.193 925 418.807 985.745 484.184 1038 c 0
 550.171 1090.74 621.308 1132 700.411 1162 c 0
 779.718 1193 860.771 1208 943.771 1208 c 0
 1026.77 1208 1101.72 1193 1167.41 1162 c 0
 1235.31 1132 1289.95 1090.99 1334.18 1038 c 0
 1377.59 985.991 1408.19 925 1424.75 854 c 0
 1433.25 817.549 1437.58 780.043 1437.58 741.348 c 0
 1437.58 704.673 1433.69 666.928 1425.77 628 c 0
 1409.49 548 1378.23 473 1332.79 402 c 0
 1287.34 331 1231.93 270 1167.15 217 c 0
 1101.37 164 1030.02 123 949.718 92 c 0
 871.614 62 790.562 47 707.562 47 c 0
EndSplineSet
EndChar

StartChar: ordfeminine
Encoding: 170 170 105
Width: 825
VWidth: 2047
GlyphClass: 2
Flags: HW
HStem: 750 61<384.096 500.658> 750 77<698.52 771.846> 1317 51<424.554 533.52>
VStem: 240 155<863.148 1005.59> 262 131<1225.04 1307.41> 576 158<865.912 1085.78 1144.52 1327.34> 783 56<863.36 906.26>
LayerCount: 2
Fore
SplineSet
690.58 1031 m 0
 718.3 1101.62 733.48 1193.36 733.48 1213.82 c 0
 733.48 1267.28 708.4 1316.12 669.46 1316.12 c 0
 561.22 1316.12 456.94 1110.2 456.94 970.94 c 0
 456.94 898.34 457.6 817.16 526.9 817.16 c 0
 564.52 817.16 646.36 918.8 690.58 1031 c 0
647.02 816.5 m 0
 647.02 821.78 647.899 830.58 648.56 836.739 c 1
 587.839 778.659 521.62 750.5 474.76 750.5 c 0
 334.84 750.5 292.6 869.3 292.6 945.86 c 0
 292.6 1157.72 509.74 1368.26 664.84 1368.26 c 0
 736.12 1368.26 765.16 1338.56 779.68 1297.64 c 1
 828.521 1368.26 l 1
 930.16 1369.58 l 1
 825.88 933.32 l 2
 819.606 906.997 815.98 888.44 815.98 876.56 c 0
 815.98 860.72 821.26 854.78 827.2 854.78 c 0
 842.38 854.78 868.78 875.24 897.82 912.2 c 1
 939.4 875.24 l 1
 855.58 789.44 791.56 750.5 720.94 750.5 c 0
 651.64 750.5 647.02 792.08 647.02 816.5 c 0
EndSplineSet
EndChar

StartChar: guillemotleft
Encoding: 171 171 106
Width: 1148
GlyphClass: 2
Flags: HW
VStem: 125 899<410 965>
LayerCount: 2
Fore
SplineSet
1220 965 m 1
 1183 782 l 1
 1068 650 944 535 814 442 c 1
 902 360 984 244 1046 106 c 1
 1007 -85 l 1
 839 170 695 335 575 410 c 1
 589 477 l 1
 756 579 966 741 1220 965 c 1
854 965 m 1
 817 782 l 1
 701 649 577 535 447 442 c 1
 535 360 617 244 680 106 c 1
 641 -85 l 1
 474 170 329 335 208 410 c 1
 222 477 l 1
 389 579 600 741 854 965 c 1
EndSplineSet
EndChar

StartChar: logicalnot
Encoding: 172 172 107
Width: 1198
GlyphClass: 2
Flags: HW
HStem: 723 105<36 966>
VStem: 966 197<269 723>
LayerCount: 2
Fore
SplineSet
1021 269 m 1
 1113 723 l 1
 183 723 l 1
 204 828 l 1
 1331 828 l 1
 1218 269 l 1
 1021 269 l 1
EndSplineSet
EndChar

StartChar: uni00AD
Encoding: 173 173 108
Width: 767
GlyphClass: 2
Flags: HW
HStem: 478 124<102 646.1>
LayerCount: 2
Fore
SplineSet
682 478 m 2
 223 478 l 2
 179 478 157 495 157 514 c 0
 157 516 157 518 158 520 c 1
 165 555 224 602 268 602 c 2
 731 602 l 2
 781 602 797 586 797 568 c 0
 797 565 796 563 796 560 c 1
 790 533 729 478 682 478 c 2
EndSplineSet
EndChar

StartChar: registered
Encoding: 174 174 109
Width: 1347
VWidth: 2047
GlyphClass: 2
Flags: HW
HStem: 48 85<318.2 1030.6> 340 35<440 501.332 893.761 934> 347 30<554 666.655> 587 44<606 676.343> 880 36<589.312 753.7> 1120 85<319.5 1031.9>
VStem: 98 85<273.4 981.9> 503 103<378.495 587 631 874> 768 103<623.174 841.6> 1170 85<269.5 983.2>
LayerCount: 2
Fore
SplineSet
1026 761 m 0
 1004 655 878 607 878 607 c 1
 942 438 l 2
 959.036 393.014 979 375 1010 375 c 1
 1005 348 l 1
 985 342 967 340 957 340 c 0
 898 340 860 365 845 417 c 2
 780 580 l 1
 773 586 737 587 725 587 c 1
 686 393 l 2
 684 382 684 377 699 377 c 2
 723 377 l 2
 739 377 744 374 742 365 c 2
 738 342 l 1
 738 342 653 347 625 347 c 2
 510 342 l 1
 514 366 l 2
 516 374 524 377 539 377 c 2
 563 377 l 2
 576 377 579.943 379.011 583 394 c 2
 676 850 l 2
 678 862 679 873 672 873 c 2
 638 871 l 2
 624 872 619 876 621 883 c 2
 625 905 l 1
 669 911 712 916 862 916 c 0
 994 916 1029 849 1029 791 c 0
 1029 781 1028 770 1026 761 c 0
923 761 m 0
 925 774 927 786 927 797 c 0
 927 847 900 880 843 880 c 0
 820 880 796 878 784 874 c 1
 734 631 l 1
 799 631 897 635 923 761 c 0
904.884 1125 m 0
 838.884 1125 774.238 1112 709.949 1086 c 0
 646.659 1060 589.335 1024 536.383 980 c 0
 485.024 934 440.444 882 402.237 822 c 0
 365.827 761 339.806 697 325.768 628 c 0
 318.407 591.82 314.9 557.015 314.9 523.296 c 0
 314.9 492.708 317.786 463.015 323.298 434 c 0
 337.091 374 360.512 322 393.152 276 c 0
 428.201 232 470.877 196 523.587 170 c 0
 576.094 143 635.449 130 702.449 130 c 0
 767.449 130 832.094 143 895.384 169 c 0
 958.673 195 1016.79 230 1069.15 276 c 0
 1121.1 320 1166.89 373 1203.3 434 c 0
 1241.5 494 1266.73 559 1280.77 628 c 0
 1288.1 664.053 1291.88 698.742 1291.88 732.35 c 0
 1291.88 763.063 1288.73 792.873 1282.24 822 c 0
 1270.44 882 1246.02 934 1212.38 980 c 0
 1178.33 1024 1134.56 1059.8 1081.95 1086 c 0
 1030.14 1111.8 970.884 1125 904.884 1125 c 0
685.562 47 m 0
 602.562 47 527.614 62 459.921 93 c 0
 394.229 124 338.569 165 295.353 218 c 0
 251.136 271 220.546 332 203.991 403 c 0
 195.465 439.568 191.133 477.198 191.133 515.889 c 0
 191.133 552.318 194.973 589.689 202.768 628 c 0
 219.044 708 250.303 783 295.748 854 c 0
 341.193 925 396.807 985.745 462.184 1038 c 0
 528.171 1090.74 599.308 1132 678.411 1162 c 0
 757.718 1193 838.771 1208 921.771 1208 c 0
 1004.77 1208 1079.72 1193 1145.41 1162 c 0
 1213.31 1132 1267.95 1090.99 1312.18 1038 c 0
 1355.59 985.991 1386.19 925 1402.75 854 c 0
 1411.25 817.549 1415.58 780.043 1415.58 741.348 c 0
 1415.58 704.673 1411.69 666.928 1403.77 628 c 0
 1387.49 548 1356.23 473 1310.79 402 c 0
 1265.34 331 1209.93 270 1145.15 217 c 0
 1079.37 164 1008.02 123 927.718 92 c 0
 849.614 62 768.562 47 685.562 47 c 0
EndSplineSet
EndChar

StartChar: macron
Encoding: 175 175 110
Width: 864
GlyphClass: 2
Flags: HW
HStem: 1072 105<145 733>
LayerCount: 2
Fore
SplineSet
886 1072 m 2
 391 1072 l 2
 346 1072 329 1088 329 1105 c 0
 329 1107 329 1108 330 1110 c 1
 335 1136 384 1177 432 1177 c 2
 927 1177 l 2
 975 1177 992 1160 992 1144 c 0
 992 1142 992 1141 992 1139 c 1
 986 1113 936 1072 886 1072 c 2
EndSplineSet
EndChar

StartChar: degree
Encoding: 176 176 111
Width: 598
GlyphClass: 2
Flags: HW
HStem: 862 73<224.9 371.8> 1209 73<223.6 378.3>
VStem: 53 156<982.9 1157.1> 389 156<984.2 1149.3>
LayerCount: 2
Fore
SplineSet
607 1070 m 0
 609 1084 611 1098 611 1112 c 0
 611 1162 592 1209 545 1209 c 0
 487 1209 440 1137 427 1070 c 0
 424 1056 422 1043 422 1029 c 0
 422 978 444 935 489 935 c 0
 545 935 593 1004 607 1070 c 0
271 1072 m 0
 295 1188 424 1282 560 1282 c 0
 681 1282 767 1207 767 1108 c 0
 767 1096 766 1084 763 1072 c 0
 740 956 610 862 474 862 c 0
 353 862 267 937 267 1036 c 0
 267 1048 269 1060 271 1072 c 0
EndSplineSet
EndChar

StartChar: plusminus
Encoding: 177 177 112
Width: 1130
VWidth: 2047
GlyphClass: 2
Flags: HW
HStem: 30 119<156 1024> 589 120<154 505 680 1030> 1041 20<505 680>
VStem: 505 175<239 589 709 1061>
LayerCount: 2
Fore
SplineSet
1026 149 m 1
 1002 30 l 1
 134 30 l 1
 158 149 l 1
 1026 149 l 1
789 709 m 1
 1139 709 l 1
 1114 589 l 1
 764 589 l 1
 693 239 l 1
 518 239 l 1
 589 589 l 1
 238 589 l 1
 263 709 l 1
 614 709 l 1
 685 1061 l 1
 860 1061 l 1
 789 709 l 1
EndSplineSet
EndChar

StartChar: two.superior
Encoding: 178 178 113
Width: 680
GlyphClass: 2
Flags: HW
HStem: 738 80<266 486> 1345 62<264.4 362.739>
VStem: 411 184<1141.7 1347>
LayerCount: 2
Fore
SplineSet
415 1173 m 0
 372 1173 349 1205 349 1234 c 0
 349 1238 350 1241 350 1245 c 1
 362 1301 434 1407 627 1407 c 0
 738 1407 850 1376 850 1270 c 0
 850 1259 849 1247 846 1234 c 0
 832 1163 768 1099 683 1039 c 0
 493 911 449 871 432 818 c 1
 652 818 l 1
 671 848 683 868 705 920 c 1
 794 900 l 1
 729 738 l 1
 225 738 l 1
 245 838 312.032 886.957 533 1049 c 0
 608 1104 646 1157 661 1230 c 0
 664 1243 665 1255 665 1266 c 0
 665 1327 625 1345 606 1345 c 0
 554 1345 522 1316 517 1294 c 0
 515 1283 515 1277 516 1271 c 1
 516 1261 516 1241 516 1237 c 1
 508 1199 449 1173 415 1173 c 0
EndSplineSet
EndChar

StartChar: three.superior
Encoding: 179 179 114
Width: 680
GlyphClass: 2
Flags: HW
HStem: 726 61<248.88 342.501> 1068 54<222 323.824> 1346 63<290.236 355.474>
VStem: 379 190<1216.7 1345.1> 434 189<777.8 1090.4>
LayerCount: 2
Fore
SplineSet
638 1271 m 0
 640 1281 640 1289 640 1297 c 0
 640 1334 619 1346 602 1346 c 0
 578 1346 519 1326 507 1282 c 0
 500 1255 479 1206 409 1206 c 0
 355 1206 348 1237 348 1253 c 0
 348 1256 348 1258 348 1260 c 1
 356 1297 428 1409 640 1409 c 0
 760 1409 832 1369 832 1303 c 0
 832 1297 831 1290 830 1283 c 0
 820 1232 762 1184 692 1146 c 1
 757 1128 823 1082 823 1000 c 0
 823 989 822 977 819 965 c 0
 790 821 615 726 431 726 c 0
 340 726 236 750 236 793 c 0
 236 795 236 797 237 799 c 1
 243 832 271 864 306 864 c 0
 363 864 375.961 839.982 385 821 c 0
 395 800 428 787 464 787 c 0
 492 787 600 817 627 950 c 0
 630 962 631 973 631 983 c 0
 631 1063 558 1082 525 1082 c 0
 520 1082 499 1079 439 1068 c 1
 444 1122 l 1
 536 1134 621 1190 638 1271 c 0
EndSplineSet
EndChar

StartChar: acute
Encoding: 180 180 115
Width: 750
GlyphClass: 2
Flags: HW
HStem: 1099 345<238 413 238 413>
VStem: 164 409<1131 1374>
LayerCount: 2
Fore
SplineSet
637 1435 m 1
 658 1438 l 1
 666 1442 688 1444 707 1444 c 0
 791 1444 813 1421 828 1404 c 1
 825 1404 l 1
 829 1400 847 1383 851 1380 c 1
 853 1374 l 1
 559 1140 l 2
 520 1110 499 1099 462 1099 c 0
 425 1099 394 1113 394 1128 c 0
 394 1139 404 1157 424 1181 c 0
 494 1265 567 1351 637 1435 c 1
EndSplineSet
EndChar

StartChar: uni00B5
Encoding: 181 181 116
Width: 1064
GlyphClass: 2
Flags: HW
HStem: -475 21G<213.5 266.5> -25 108<350.1 538.6 881 944.7>
VStem: 96 241<191.6 746.396> 96 252<-448.4 -273.185> 643 240<201 888>
LayerCount: 2
Fore
SplineSet
124 -475 m 0
 88 -475 16 -432 16 -360 c 0
 16 -352 17 -343 19 -334 c 0
 29 -291 46 -241 66 -189 c 0
 87 -136 112 -81 129 -8 c 0
 136 20 140 54 146 95 c 0
 153 148 145.279 211.935 161 280 c 2
 249 661 l 2
 261 713 279 889 279 889 c 1
 541 916 l 1
 541 916 513.976 767.006 499 702 c 2
 408 307 l 2
 396.238 255.945 389 211 389 174 c 0
 389 118 406 83 450 83 c 0
 533 83 630 140 689 201 c 1
 848 888 l 1
 1095 917 l 1
 943 259 l 2
 926 185 916 136 916 110 c 0
 916 95 920 87 927 87 c 0
 956 87 982 104 1025 170 c 1
 1085 143 l 1
 1021 39 958 -25 818 -25 c 0
 745 -25 709 22 695 88 c 1
 596 20 499 -25 387 -25 c 0
 354 -25 323 -18 297 -7 c 1
 287 -71 279 -138 279 -197 c 0
 277 -250 275.978 -309.995 268 -345 c 0
 247.946 -432.988 189 -475 124 -475 c 0
EndSplineSet
EndChar

StartChar: paragraph
Encoding: 182 182 117
Width: 1283
VWidth: 2047
GlyphClass: 2
Flags: HW
HStem: -480 56<526.98 664 789.1 934.7 1041.5 1195.63> 1261 52<779.2 907.9> 1266 58<1054 1196.5>
VStem: 677 120<-384.033 465> 925 120<-408.8 1233>
LayerCount: 2
Fore
SplineSet
985 -295 m 2
 978.069 -329.014 975 -353 975 -371 c 0
 975 -414 995 -420 1040 -421 c 2
 1101 -421 l 2
 1108 -421 1111 -429 1109 -437 c 2
 1100 -480 l 1
 427 -480 l 1
 436 -437 l 2
 438.089 -427.018 443 -421 451 -421 c 2
 511 -421 l 2
 579 -419 595.155 -399.831 617 -293 c 2
 772 465 l 1
 740 450 674 440 608 440 c 0
 460 440 250 512 250 776 c 0
 250 813 254 854 263 900 c 0
 314 1150 494 1324 766 1324 c 0
 919 1324 1042 1313 1097 1313 c 0
 1168 1313 1240 1318 1240 1318 c 1
 1467 1324 l 1
 1458 1280 l 2
 1457 1271 1452 1266 1445 1266 c 2
 1384 1266 l 2
 1312 1266 1296.34 1232.93 1277 1138 c 2
 985 -295 l 2
772 -424 m 0
 831 -424 847 -383 865 -297 c 2
 1157 1138 l 2
 1163 1170 1166 1194 1166 1211 c 0
 1166 1258 1145 1260 1122 1261 c 0
 1056 1261 1040 1196 1028 1133 c 2
 737 -293 l 2
 733 -316 729 -340 729 -362 c 0
 729 -396 739 -424 772 -424 c 0
EndSplineSet
EndChar

StartChar: periodcentered
Encoding: 183 183 118
Width: 562
VWidth: 2047
GlyphClass: 2
Flags: HW
HStem: 418 222<202.7 352.2>
VStem: 170 222<454.4 603.9>
LayerCount: 2
Fore
SplineSet
367 418 m 0
 308 418 275 458 275 506 c 0
 275 514 276 521 278 528 c 0
 289 586 351 640 412 640 c 0
 460 640 502 601 502 549 c 0
 502 542 501 536 500 528 c 0
 488 470 429 418 367 418 c 0
EndSplineSet
EndChar

StartChar: cedilla
Encoding: 184 184 119
Width: 1158
GlyphClass: 2
Flags: HW
HStem: -367 67<509.625 638.4>
VStem: 689 173<-290 -176.9>
LayerCount: 2
Fore
SplineSet
585 -161 m 0
 557 -161 538 -163 490 -186 c 1
 463 -151 l 1
 582 30 l 1
 711 30 l 1
 641 -82 l 1
 658 -82 l 2
 753 -82 821 -123 821 -192 c 0
 821 -200 820 -208 818 -216 c 0
 800 -307 677 -367 527 -367 c 0
 448 -367 407 -351 346 -321 c 1
 385 -267 l 1
 453 -297 504 -300 528 -300 c 0
 566 -300 633 -275 643 -225 c 0
 644 -222 644 -219 644 -217 c 0
 644 -184 606 -161 585 -161 c 0
EndSplineSet
EndChar

StartChar: one.superior
Encoding: 185 185 120
Width: 680
GlyphClass: 2
Flags: HW
HStem: 746 49<159.888 263 459.9 578.508>
VStem: 282 177<809.6 1265.06>
LayerCount: 2
Fore
SplineSet
462 885 m 2
 524 1188 l 2
 535 1245 527 1256 542 1266 c 1
 522 1263 431 1232 382 1216 c 1
 374 1285 l 1
 483 1323 541 1348 652 1409 c 1
 746 1409 l 1
 639 885 l 2
 637 873 635 862 635 853 c 0
 635 815 655 795 709 795 c 2
 727 795 l 2
 736 795 743 789 740 778 c 2
 734 746 l 1
 729 742 l 1
 729 742 586 746 506 746 c 0
 433 746 316 742 316 742 c 1
 313 746 l 1
 319 778 l 2
 322 789 329 795 339 795 c 2
 356 795 l 2
 425 795 450 827 462 885 c 2
EndSplineSet
EndChar

StartChar: ordmasculine
Encoding: 186 186 121
Width: 766
GlyphClass: 2
Flags: HW
HStem: 614 71<280.7 449.7> 1095 68<282.7 471.2>
VStem: 64 200<771.9 1034.5> 505 198<706 1060.1>
LayerCount: 2
Fore
SplineSet
598 1095 m 0
 527 1095 468 1003 447 898 c 0
 442 876 440 853 440 831 c 0
 440 754 468 685 538 685 c 0
 577 685 651 717 679 856 c 0
 687 893 690 927 690 956 c 0
 690 1047 654 1095 598 1095 c 0
242 877 m 0
 278 1053 422 1163 625 1163 c 0
 820 1163 891 1067 891 953 c 0
 891 932 888 910 884 888 c 0
 855 748 722 614 502 614 c 0
 347 614 238 704 238 830 c 0
 238 845 239 861 242 877 c 0
EndSplineSet
EndChar

StartChar: guillemotright
Encoding: 187 187 122
Width: 1148
VWidth: 2047
GlyphClass: 2
Flags: HW
VStem: 302 899<-84 471>
LayerCount: 2
Fore
SplineSet
106 -84 m 1
 143 99 l 1
 258 231 382 346 512 439 c 1
 424 521 342 637 280 775 c 1
 319 966 l 1
 487 711 631 546 751 471 c 1
 737 404 l 1
 570 302 360 140 106 -84 c 1
472 -84 m 1
 509 99 l 1
 625 232 749 346 879 439 c 1
 791 521 709 637 646 775 c 1
 685 966 l 1
 852 711 997 546 1118 471 c 1
 1104 404 l 1
 937 302 726 140 472 -84 c 1
EndSplineSet
EndChar

StartChar: onequarter
Encoding: 188 188 123
Width: 1402
VWidth: 2047
GlyphClass: 2
Flags: HW
HStem: -162 65<999 1080 1257.3 1336> 61 79<987 1091 1258 1363> 645 49<177.888 281 477.9 596.508>
VStem: 300 177<708.6 1164.06> 925 141<387.879 502> 1091 167<-95.4493 61 140 317>
LayerCount: 2
Fore
SplineSet
1355.25 1230 m 1
 1460.25 1230 l 1
 248.417 -111 l 1
 143.62 -110 l 1
 1355.25 1230 l 1
1333.48 371 m 1
 1286.48 140 l 1
 1391.48 140 l 1
 1375.41 61 l 1
 1270.41 61 l 1
 1246.61 -56 l 2
 1240.3 -87.0008 1240.27 -97 1249.26 -97 c 2
 1281.26 -97 l 2
 1316.26 -97 1323.03 -108 1321.4 -116 c 2
 1312.04 -162 l 1
 1138.45 -160 l 1
 966.041 -162 l 1
 975.603 -115 l 2
 977.027 -108 988.266 -97 1023.26 -97 c 2
 1060.26 -97 l 2
 1069.26 -97 1072.28 -91.9997 1079.4 -57 c 2
 1103.41 61 l 1
 816.41 61 l 1
 808.09 84 l 1
 877.518 150 923.776 225 951.78 284 c 0
 976.36 336 1012.08 428 1027.13 502 c 1
 1168.13 502 l 1
 1151.65 421 1124.21 350 1095.95 275 c 0
 1077.79 230 1041.4 174 1015.48 140 c 1
 1119.48 140 l 1
 1155.49 317 l 1
 1155.49 317 1264.07 369 1264.48 371 c 1
 1333.48 371 l 1
459.507 784 m 2
 521.152 1087 l 2
 532.749 1144 524.487 1155 539.021 1165 c 1
 519.411 1162 428.104 1131 379.85 1115 c 1
 371.888 1184 l 1
 480.619 1222 538.705 1247 649.115 1308 c 1
 743.115 1308 l 1
 636.507 784 l 2
 634.103 772.184 632.79 761.446 632.79 751.839 c 0
 632.79 714.289 652.846 694 706.196 694 c 2
 724.196 694 l 2
 733.196 694 739.975 688 737.737 677 c 2
 731.227 645 l 1
 726.413 641 l 1
 726.413 641 583.227 645 503.227 645 c 0
 430.227 645 313.413 641 313.413 641 c 1
 310.227 645 l 1
 316.737 677 l 2
 318.976 688 326.196 694 336.196 694 c 2
 353.196 694 l 2
 422.196 694 447.706 726 459.507 784 c 2
EndSplineSet
LCarets2: 2 0 0 
Ligature2: "'frac' Diagonal Fractions in Latin lookup 2" one slash four
Ligature2: "'frac' Diagonal Fractions in Latin lookup 2" one fraction four
EndChar

StartChar: onehalf
Encoding: 189 189 124
Width: 1402
VWidth: 2047
GlyphClass: 2
Flags: HW
HStem: -169 80<1025 1245> 438 62<1023.4 1121.74> 645 49<182.888 286 482.9 601.508>
VStem: 305 177<708.6 1164.06> 1170 184<234.7 440>
LayerCount: 2
Fore
SplineSet
1355.25 1230 m 1
 1459.25 1230 l 1
 247.417 -111 l 1
 143.62 -110 l 1
 1355.25 1230 l 1
989.118 266 m 0
 946.481 266 923.679 297.561 923.679 327.042 c 0
 923.679 330.75 924.04 334.425 924.767 338 c 0
 936.16 394 1008.73 500 1201.73 500 c 0
 1312.13 500 1424.38 468.884 1424.38 362.937 c 0
 1424.38 351.801 1423.14 339.839 1420.53 327 c 0
 1406.08 256 1342.06 192 1257.86 132 c 0
 1067.48 3.77832 1023.97 -36.4111 1006.89 -89 c 1
 1226.89 -89 l 1
 1245.5 -59 1257.07 -39 1279.64 13 c 1
 1368.58 -7 l 1
 1303.62 -169 l 1
 799.616 -169 l 1
 819.935 -69.1318 886.931 -20 1107.89 142 c 0
 1182.35 196.591 1220.86 250.001 1235.71 323 c 0
 1238.41 336.28 1239.61 348.144 1239.61 358.722 c 0
 1239.61 419.834 1199.72 438 1180.11 438 c 0
 1128.11 438 1096.21 408.999 1091.74 387 c 0
 1089.5 376 1089.28 370 1090.06 364 c 0
 1090.02 354 1090.95 334 1090.14 330 c 0
 1082.41 292 1023.12 266 989.118 266 c 0
464.507 784 m 2
 526.152 1087 l 2
 537.749 1144 529.487 1155 544.021 1165 c 1
 524.411 1162 433.104 1131 384.85 1115 c 1
 376.888 1184 l 1
 485.619 1222 543.705 1247 654.115 1308 c 1
 748.115 1308 l 1
 641.507 784 l 2
 639.103 772.184 637.79 761.446 637.79 751.839 c 0
 637.79 714.289 657.846 694 711.196 694 c 2
 729.196 694 l 2
 738.196 694 744.975 688 742.737 677 c 2
 736.227 645 l 1
 731.413 641 l 1
 731.413 641 588.227 645 508.227 645 c 0
 435.227 645 318.413 641 318.413 641 c 1
 315.227 645 l 1
 321.737 677 l 2
 323.976 688 331.196 694 341.196 694 c 2
 358.196 694 l 2
 427.196 694 452.706 726 464.507 784 c 2
EndSplineSet
Ligature2: "'frac' Diagonal Fractions in Latin lookup 2" one slash two
Ligature2: "'frac' Diagonal Fractions in Latin lookup 2" one fraction two
EndChar

StartChar: threequarters
Encoding: 190 190 125
Width: 1402
VWidth: 2047
GlyphClass: 2
Flags: HW
HStem: -157 65<1007 1088 1265.3 1344> 66 79<995 1099 1266 1371> 622 61<269.88 363.501> 964 54<243 344.824> 1242 63<311.236 376.474>
VStem: 400 190<1112.7 1241.1> 455 189<673.8 986.4> 933 141<392.879 507> 1099 167<-90.4493 66 145 322>
LayerCount: 2
Fore
SplineSet
1355.25 1230 m 1
 1460.25 1230 l 1
 248.417 -111 l 1
 143.62 -110 l 1
 1355.25 1230 l 1
637.429 1167 m 0
 639.391 1176.64 640.267 1185.17 640.267 1192.68 c 0
 640.267 1229.58 619.135 1242 601.688 1242 c 0
 577.688 1242 518.619 1222 506.667 1178 c 0
 500.174 1151 479.204 1102 409.204 1102 c 0
 355.228 1102 347.56 1133.03 347.56 1148.71 c 0
 347.56 1151.91 347.879 1154.47 348.19 1156 c 0
 355.719 1193 427.505 1305 639.505 1305 c 0
 759.691 1305 831.989 1265.21 831.989 1199.21 c 0
 831.989 1192.72 831.29 1185.98 829.87 1179 c 0
 819.494 1128 761.729 1080 691.997 1042 c 1
 757.23 1024.35 822.829 977.901 822.829 895.775 c 0
 822.829 884.823 821.662 873.237 819.173 861 c 0
 789.875 717 614.547 622 430.547 622 c 0
 339.478 622 235.81 645.893 235.81 689.274 c 0
 235.81 691.146 236.003 693.055 236.399 695 c 0
 243.012 727.5 270.624 760 306.124 760 c 0
 363.124 760 376.137 735.864 384.875 717 c 0
 394.603 696 427.958 683 463.958 683 c 0
 491.958 683 600.062 713 627.121 846 c 0
 629.526 857.821 630.624 868.635 630.624 878.522 c 0
 630.624 958.966 557.927 978 524.977 978 c 0
 519.977 978 498.366 975 439.128 964 c 1
 444.114 1018 l 1
 535.556 1030 620.949 1086 637.429 1167 c 0
1342.5 376 m 1
 1295.5 145 l 1
 1400.5 145 l 1
 1384.43 66 l 1
 1279.43 66 l 1
 1255.62 -51 l 2
 1249.32 -82 1249.28 -92 1258.28 -92 c 2
 1290.28 -92 l 2
 1325.28 -92 1332.04 -103 1330.42 -111 c 2
 1321.06 -157 l 1
 1147.46 -155 l 1
 975.058 -157 l 1
 984.62 -110 l 2
 986.044 -103 997.282 -92 1032.28 -92 c 2
 1069.28 -92 l 2
 1078.28 -92 1081.3 -86.9997 1088.42 -52 c 2
 1112.43 66 l 1
 825.428 66 l 1
 817.107 89 l 1
 886.535 155 932.794 230 960.798 289 c 0
 985.377 341 1021.09 433 1036.15 507 c 1
 1177.15 507 l 1
 1160.67 426 1133.23 355 1104.97 280 c 0
 1086.81 235 1050.42 179 1024.5 145 c 1
 1128.5 145 l 1
 1164.51 322 l 1
 1164.51 322 1273.09 374 1273.5 376 c 1
 1342.5 376 l 1
EndSplineSet
Ligature2: "'frac' Diagonal Fractions in Latin lookup 2" three slash four
Ligature2: "'frac' Diagonal Fractions in Latin lookup 2" three fraction four
EndChar

StartChar: questiondown
Encoding: 191 191 126
Width: 881
VWidth: 2047
GlyphClass: 2
Flags: HW
HStem: -470 75<555.717 791.017> 677 228<624.117 787.917>
VStem: 275 240<-313.8 -17.4> 592 228<709.1 871.6> 631 141<286.086 502.977>
LayerCount: 2
Fore
SplineSet
556 -290 m 0
 562 -261 556 -244 552 -235 c 0
 546 -221 545 -199 550 -178 c 0
 560 -127 625 -98 686 -98 c 0
 730 -98 783 -128 783 -190 c 0
 783 -197 782 -205 780 -214 c 0
 766 -286 716 -332 635 -390 c 0
 562 -441 463 -470 338 -470 c 0
 133 -470 16 -374 16 -224 c 0
 16 -202 18 -180 23 -157 c 0
 54 -5 203 92 321 167 c 0
 385 209 463.641 264.277 494 410 c 2
 504 458 l 2
 513.36 502.927 526 528 590 528 c 0
 637 528 649 515 649 491 c 0
 649 481 648 470 645 458 c 2
 635 406 l 2
 617 322 590.208 208.03 417 74 c 0
 333 9 285 -48 264 -150 c 0
 260 -174 257 -198 257 -220 c 0
 257 -317 300 -395 374 -395 c 0
 464 -395 545 -346 556 -290 c 0
742.893 791 m 0
 717.075 728 645.699 677 582.699 677 c 0
 535.047 677 506.112 706.276 506.112 747.918 c 0
 506.112 754.339 506.8 761.053 508.213 768 c 0
 509.841 776 511.266 783 514.893 791 c 0
 540.507 853 612.086 905 675.086 905 c 0
 722.705 905 751.48 875.016 751.48 833.22 c 0
 751.48 826.741 750.789 819.979 749.369 813 c 0
 747.944 806 745.521 799 742.893 791 c 0
EndSplineSet
EndChar

StartChar: Agrave
Encoding: 192 192 127
Width: 1473
VWidth: 2047
GlyphClass: 2
Flags: HW
HStem: 2 70<6.24831 139.3 316.4 457.82 832.123 979 1277.7 1408.18> 494 95<504.128 829> 1328 20<707.667 752> 1431 246<588 837>
VStem: 432 435<1461 1583>
LayerCount: 2
Fore
SplineSet
647 589 m 2
 962 589 l 1
 930 759 913 837 879 1012 c 1
 801 879 721 747 643 614 c 1
 641 600 l 2
 641 598 640 596 640 595 c 0
 640 591 643 589 647 589 c 2
369 150 m 2
 359.914 134.744 356 115.88 356 106 c 0
 356 83 372 72 400 72 c 2
 458 72 l 2
 491 72 517 63 514 47 c 2
 509 17 l 1
 486 -3 l 1
 486 -3 257 2 208 2 c 0
 156 2 37 -3 37 -3 c 1
 21 17 l 1
 26 47 l 2
 29 63 54 72 92 72 c 2
 115 72 l 2
 166 72 202 113 241 175 c 0
 439 502 909 1284 909 1284 c 2
 927.023 1313.99 963 1348 986 1348 c 0
 1052 1348 1067 1328 1076 1284 c 2
 1297 186 l 2
 1312.29 110.057 1335 72 1386 72 c 2
 1408 72 l 2
 1437 72 1468 64 1468 47 c 1
 1463 16 l 1
 1425 -2 l 1
 1425 -2 1254 2 1175 2 c 0
 1103 2 876 -3 876 -3 c 1
 860 17 l 1
 865 47 l 2
 868 63 893 72 931 72 c 2
 987 72 l 2
 1032.47 72 1047.72 116.64 1047.72 141.541 c 0
 1047.72 144.729 1047.47 147.594 1047 150 c 2
 980 494 l 1
 593 494 l 2
 577 494 569 485 556 464 c 2
 369 150 l 2
894 1677 m 1
 1115 1504 l 2
 1132 1490 1139 1478 1139 1466 c 0
 1139 1454 1132 1431 1104 1431 c 0
 1086 1431 1061.12 1437.28 1020 1455 c 2
 723 1583 l 1
 894 1677 l 1
EndSplineSet
EndChar

StartChar: Aacute
Encoding: 193 193 128
Width: 1473
VWidth: 2047
GlyphClass: 2
Flags: HW
HStem: 2 70<6.24831 139.3 316.4 457.82 832.123 979 1277.7 1408.18> 494 95<504.128 829> 1328 20<707.667 752> 1431 258<604 851>
VStem: 574 413<1461 1574>
LayerCount: 2
Fore
SplineSet
647 589 m 2
 962 589 l 1
 930 759 913 837 879 1012 c 1
 801 879 721 747 643 614 c 1
 641 600 l 2
 641 598 640 596 640 595 c 0
 640 591 643 589 647 589 c 2
369 150 m 2
 359.914 134.744 356 115.88 356 106 c 0
 356 83 372 72 400 72 c 2
 458 72 l 2
 491 72 517 63 514 47 c 2
 509 17 l 1
 486 -3 l 1
 486 -3 257 2 208 2 c 0
 156 2 37 -3 37 -3 c 1
 21 17 l 1
 26 47 l 2
 29 63 54 72 92 72 c 2
 115 72 l 2
 166 72 202 113 241 175 c 0
 439 502 909 1284 909 1284 c 2
 927.023 1313.99 963 1348 986 1348 c 0
 1052 1348 1067 1328 1076 1284 c 2
 1297 186 l 2
 1312.29 110.057 1335 72 1386 72 c 2
 1408 72 l 2
 1437 72 1468 64 1468 47 c 1
 1463 16 l 1
 1425 -2 l 1
 1425 -2 1254 2 1175 2 c 0
 1103 2 876 -3 876 -3 c 1
 860 17 l 1
 865 47 l 2
 868 63 893 72 931 72 c 2
 987 72 l 2
 1032.47 72 1047.72 116.64 1047.72 141.541 c 0
 1047.72 144.729 1047.47 147.594 1047 150 c 2
 980 494 l 1
 593 494 l 2
 577 494 569 485 556 464 c 2
 369 150 l 2
1102 1689 m 1
 1220 1574 l 1
 906 1455 l 2
 858.937 1437.16 832 1431 814 1431 c 0
 798 1431 789 1439 789 1454 c 0
 789 1456 789 1459 789 1461 c 0
 791 1475 803 1501 820 1512 c 2
 1102 1689 l 1
EndSplineSet
EndChar

StartChar: Acircumflex
Encoding: 194 194 129
Width: 1473
VWidth: 2047
GlyphClass: 2
Flags: HW
HStem: 2 70<6.24831 139.3 316.4 457.82 832.123 979 1277.7 1408.18> 494 95<504.128 829> 1328 20<707.667 752> 1413 235<783 948>
VStem: 491 498<1455 1455>
LayerCount: 2
Fore
SplineSet
647 589 m 2
 962 589 l 1
 930 759 913 837 879 1012 c 1
 801 879 721 747 643 614 c 1
 641 600 l 2
 641 598 640 596 640 595 c 0
 640 591 643 589 647 589 c 2
369 150 m 2
 359.914 134.744 356 115.88 356 106 c 0
 356 83 372 72 400 72 c 2
 458 72 l 2
 491 72 517 63 514 47 c 2
 509 17 l 1
 486 -3 l 1
 486 -3 257 2 208 2 c 0
 156 2 37 -3 37 -3 c 1
 21 17 l 1
 26 47 l 2
 29 63 54 72 92 72 c 2
 115 72 l 2
 166 72 202 113 241 175 c 0
 439 502 909 1284 909 1284 c 2
 927.023 1313.99 963 1348 986 1348 c 0
 1052 1348 1067 1328 1076 1284 c 2
 1297 186 l 2
 1312.29 110.057 1335 72 1386 72 c 2
 1408 72 l 2
 1437 72 1468 64 1468 47 c 1
 1463 16 l 1
 1425 -2 l 1
 1425 -2 1254 2 1175 2 c 0
 1103 2 876 -3 876 -3 c 1
 860 17 l 1
 865 47 l 2
 868 63 893 72 931 72 c 2
 987 72 l 2
 1032.47 72 1047.72 116.64 1047.72 141.541 c 0
 1047.72 144.729 1047.47 147.594 1047 150 c 2
 980 494 l 1
 593 494 l 2
 577 494 569 485 556 464 c 2
 369 150 l 2
1061 1648 m 1
 1110 1573 1172 1511 1237 1455 c 1
 1189 1413 l 1
 1115 1448 1059 1483 999 1534 c 1
 916 1479 852 1447 769 1413 c 1
 739 1455 l 1
 824 1513 899 1579 973 1648 c 1
 1061 1648 l 1
EndSplineSet
EndChar

StartChar: Atilde
Encoding: 195 195 130
Width: 1473
VWidth: 2047
GlyphClass: 2
Flags: HW
HStem: 2 70<6.24831 139.3 316.4 457.82 832.123 979 1277.7 1408.18> 494 95<504.128 829> 1328 20<707.667 752> 1426 106<845.3 953.2> 1525 110<558.1 673.8>
VStem: 479 568<1445 1619>
LayerCount: 2
Fore
SplineSet
647 589 m 2
 962 589 l 1
 930 759 913 837 879 1012 c 1
 801 879 721 747 643 614 c 1
 641 600 l 2
 641 598 640 596 640 595 c 0
 640 591 643 589 647 589 c 2
369 150 m 2
 359.914 134.744 356 115.88 356 106 c 0
 356 83 372 72 400 72 c 2
 458 72 l 2
 491 72 517 63 514 47 c 2
 509 17 l 1
 486 -3 l 1
 486 -3 257 2 208 2 c 0
 156 2 37 -3 37 -3 c 1
 21 17 l 1
 26 47 l 2
 29 63 54 72 92 72 c 2
 115 72 l 2
 166 72 202 113 241 175 c 0
 439 502 909 1284 909 1284 c 2
 927.023 1313.99 963 1348 986 1348 c 0
 1052 1348 1067 1328 1076 1284 c 2
 1297 186 l 2
 1312.29 110.057 1335 72 1386 72 c 2
 1408 72 l 2
 1437 72 1468 64 1468 47 c 1
 1463 16 l 1
 1425 -2 l 1
 1425 -2 1254 2 1175 2 c 0
 1103 2 876 -3 876 -3 c 1
 860 17 l 1
 865 47 l 2
 868 63 893 72 931 72 c 2
 987 72 l 2
 1032.47 72 1047.72 116.64 1047.72 141.541 c 0
 1047.72 144.729 1047.47 147.594 1047 150 c 2
 980 494 l 1
 593 494 l 2
 577 494 569 485 556 464 c 2
 369 150 l 2
1155 1532 m 0
 1199 1532 1228 1552 1274 1647 c 1
 1324 1628 l 1
 1274 1493 1201 1415 1106 1415 c 0
 1061 1415 1024 1444 987 1474 c 0
 954 1500 921 1524 885 1524 c 0
 832 1524 803 1496 769 1421 c 1
 720 1436 l 1
 773 1569 833 1645 921 1645 c 0
 984 1645 1023 1613 1057 1583 c 0
 1086 1556 1116 1532 1155 1532 c 0
EndSplineSet
EndChar

StartChar: Adieresis
Encoding: 196 196 131
Width: 1473
GlyphClass: 2
Flags: HW
HStem: 2 70<6.24831 139.3 316.4 457.82 832.123 979 1277.7 1408.18> 494 95<504.128 829> 1328 20<707.667 752> 1425 216<431.3 587.3 882.7 1038.7>
VStem: 400 217<1456.3 1609.7> 853 217<1457.3 1610.7>
LayerCount: 2
Fore
SplineSet
647 589 m 2
 962 589 l 1
 930 759 913 837 879 1012 c 1
 801 879 721 747 643 614 c 1
 641 600 l 2
 641 598 640 596 640 595 c 0
 640 591 643 589 647 589 c 2
369 150 m 2
 359.914 134.744 356 115.88 356 106 c 0
 356 83 372 72 400 72 c 2
 458 72 l 2
 491 72 517 63 514 47 c 2
 509 17 l 1
 486 -3 l 1
 486 -3 257 2 208 2 c 0
 156 2 37 -3 37 -3 c 1
 21 17 l 1
 26 47 l 2
 29 63 54 72 92 72 c 2
 115 72 l 2
 166 72 202 113 241 175 c 0
 439 502 909 1284 909 1284 c 2
 927.023 1313.99 963 1348 986 1348 c 0
 1052 1348 1067 1328 1076 1284 c 2
 1297 186 l 2
 1312.29 110.057 1335 72 1386 72 c 2
 1408 72 l 2
 1437 72 1468 64 1468 47 c 1
 1463 16 l 1
 1425 -2 l 1
 1425 -2 1254 2 1175 2 c 0
 1103 2 876 -3 876 -3 c 1
 860 17 l 1
 865 47 l 2
 868 63 893 72 931 72 c 2
 987 72 l 2
 1032.47 72 1047.72 116.64 1047.72 141.541 c 0
 1047.72 144.729 1047.47 147.594 1047 150 c 2
 980 494 l 1
 593 494 l 2
 577 494 569 485 556 464 c 2
 369 150 l 2
1125 1534 m 0
 1134 1593 1190 1642 1251 1642 c 0
 1305 1642 1343 1602 1343 1551 c 0
 1343 1545 1343 1540 1342 1534 c 0
 1333 1475 1276 1426 1217 1426 c 0
 1162 1426 1124 1466 1124 1517 c 0
 1124 1523 1124 1528 1125 1534 c 0
672 1533 m 0
 681 1592 738 1641 797 1641 c 0
 852 1641 890 1601 890 1550 c 0
 890 1544 890 1539 889 1533 c 0
 880 1474 824 1425 763 1425 c 0
 709 1425 671 1465 671 1516 c 0
 671 1522 671 1527 672 1533 c 0
EndSplineSet
EndChar

StartChar: Aring
Encoding: 197 197 132
Width: 1473
GlyphClass: 2
Flags: HW
HStem: 2 70<6.24831 139.3 316.4 457.82 832.123 979 1277.7 1408.18> 494 95<504.128 829> 1297 64<674.3 827.7> 1328 20<707.667 752> 1573 64<675.6 823.8>
VStem: 576 74<1398.1 1539.8> 852 74<1398.1 1542.4>
LayerCount: 2
Fore
SplineSet
647 589 m 2
 962 589 l 1
 930 759 913 837 879 1012 c 1
 801 879 721 747 643 614 c 1
 641 600 l 2
 641 598 640 596 640 595 c 0
 640 591 643 589 647 589 c 2
369 150 m 2
 359.914 134.744 356 115.88 356 106 c 0
 356 83 372 72 400 72 c 2
 458 72 l 2
 491 72 517 63 514 47 c 2
 509 17 l 1
 486 -3 l 1
 486 -3 257 2 208 2 c 0
 156 2 37 -3 37 -3 c 1
 21 17 l 1
 26 47 l 2
 29 63 54 72 92 72 c 2
 115 72 l 2
 166 72 202 113 241 175 c 0
 439 502 909 1284 909 1284 c 2
 914.378 1292.95 921.355 1302.25 929.108 1310.91 c 1
 882.081 1332.65 852 1378.06 852 1434 c 0
 852 1445 853 1456 856 1467 c 0
 874 1560 968 1637 1064 1637 c 0
 1147 1637 1209 1579 1209 1499 c 0
 1209 1489 1208 1478 1206 1467 c 0
 1191.85 1398.47 1136.08 1337.71 1068.05 1311.17 c 1
 1071.42 1303.41 1073.88 1294.37 1076 1284 c 2
 1297 186 l 2
 1312.29 110.057 1335 72 1386 72 c 2
 1408 72 l 2
 1437 72 1468 64 1468 47 c 1
 1463 16 l 1
 1425 -2 l 1
 1425 -2 1254 2 1175 2 c 0
 1103 2 876 -3 876 -3 c 1
 860 17 l 1
 865 47 l 2
 868 63 893 72 931 72 c 2
 987 72 l 2
 1032.47 72 1047.72 116.64 1047.72 141.541 c 0
 1047.72 144.729 1047.47 147.594 1047 150 c 2
 980 494 l 1
 593 494 l 2
 577 494 569 485 556 464 c 2
 369 150 l 2
1052 1573 m 0
 994 1573 941 1523 930 1467 c 0
 928 1460 927 1453 927 1446 c 0
 927 1401 958 1361 1009 1361 c 0
 1068 1361 1121 1414 1132 1467 c 0
 1133 1475 1134 1482 1134 1489 c 0
 1134 1537 1101 1573 1052 1573 c 0
EndSplineSet
EndChar

StartChar: AE
Encoding: 198 198 133
Width: 1915
GlyphClass: 2
Flags: HW
HStem: -3 75<35.7036 168.439 377.514 500.962 721.67 876.439> 0 95<1151.04 1582.44> 538 95<663.439 893.439> 672 85<1145.44 1339.44> 1228 95<1149.74 1536.44> 1251 74<639.439 757.672>
VStem: 893.439 252<91.9 538 633 672 757 1062> 1607.44 112<1017.55 1131.08>
LayerCount: 2
Fore
SplineSet
762 633 m 1
 992 633 l 1
 1068 1062 l 1
 966 919 866 779 762 633 c 1
1011 2 m 2
 939 2 720 -3 720 -3 c 1
 704 17 l 1
 709 45 l 2
 711 61 736 72 774 72 c 2
 827 72 l 2
 876 72 898.992 102.001 908 153 c 2
 976 538 l 1
 696 538 l 1
 601 406 509 274 415 142 c 0
 396 115 387 103 384 87 c 0
 382 75 386 72 402 72 c 2
 461 72 l 2
 499 72 515 60 514 52 c 2
 508 17 l 1
 486 -3 l 1
 486 -3 327 2 248 2 c 0
 177 2 36 -3 36 -3 c 1
 21 17 l 1
 26 48 l 2
 29 63 56 72 94 72 c 2
 140 72 l 2
 168 72 191 90 237 154 c 0
 475 493 720 843 958 1181 c 0
 961 1185 966 1201 966 1214 c 0
 966 1226 957 1251 939 1251 c 2
 889 1251 l 2
 843 1251 832 1261 832 1273 c 1
 838 1306 l 1
 860 1325 l 1
 1241 1321 l 2
 1293 1321 1346 1323 1398 1323 c 2
 1910 1323 l 1
 1888 1029 l 1
 1774 1014 l 1
 1774 1103 1740 1228 1665 1228 c 2
 1378 1228 l 2
 1359 1228 1346.41 1211.93 1339 1170 c 2
 1266 757 l 1
 1427 757 l 2
 1460 757 1479 792 1500 841 c 0
 1507 860 1517 881 1525 901 c 1
 1523 900 l 1
 1528 913 1553 924 1587 924 c 2
 1598 924 l 2
 1634 924 1647 914 1645 906 c 0
 1639 882 1633 860 1626 838 c 0
 1614 798 1603 756 1596 714 c 0
 1586 660 1582 611 1580 562 c 1
 1579 562 l 1
 1578 541 1578 524 1578 524 c 1
 1563 505 l 1
 1513 505 l 2
 1471 505 1455 517 1456 527 c 1
 1457 527 l 1
 1456 589 l 2
 1455 643 1446 672 1412 672 c 2
 1251 672 l 1
 1160 153 l 2
 1157.59 140.406 1156.47 130.397 1156.47 122.492 c 0
 1156.47 100.895 1164.82 95 1178 95 c 2
 1487 95 l 2
 1586 95 1655 206 1715 357 c 1
 1819 334 l 1
 1708 0 l 1
 1164 0 l 1
 1011 2 l 2
EndSplineSet
EndChar

StartChar: Ccedilla
Encoding: 199 199 134
Width: 1375
VWidth: 2047
GlyphClass: 2
Flags: HW
HStem: -380 52<686.373 833.6> -172 64<772.077 852.1> -25 100<386.5 972.8> 1258 90<549.8 970.6>
VStem: 69 265<305.7 1169.9> 869 121<-315.5 -188.1> 1147 106<896.891 962.034>
LayerCount: 2
Fore
SplineSet
744 -181 m 0
 716 -181 695 -188 647 -211 c 1
 628 -176 l 1
 727.454 -23.4478 l 1
 358.517 -1.63761 198 246.825 198 519 c 0
 198 976.113 623.282 1348 1024 1348 c 0
 1296.91 1348 1349.94 1257 1455 1257 c 1
 1440 911 l 1
 1331 895 l 1
 1315 1098 1246 1258 985 1258 c 0
 777.4 1258 466 973.123 466 523 c 0
 466 287 564 75 796 75 c 0
 962 75 1110 149 1298 320 c 1
 1365 264 l 1
 1207.04 95.9991 1031.58 -6.14287 837.085 -22.6355 c 1
 783 -111 l 1
 816 -107 l 2
 909 -107 969 -147 969 -215 c 0
 969 -223 968 -232 966 -241 c 0
 948 -332 836 -384 686 -384 c 0
 607 -384 565 -368 505 -338 c 1
 542 -292 l 1
 610 -322 661 -325 685 -325 c 0
 723 -325 790 -300 800 -250 c 0
 801 -247 801 -244 801 -241 c 0
 801 -208 764 -181 744 -181 c 0
EndSplineSet
EndChar

StartChar: Egrave
Encoding: 200 200 135
Width: 1284
VWidth: 2047
GlyphClass: 2
Flags: HW
HStem: -3 75<25 193> 0 95<463.6 959> 662 85<459 725> 1228 97<468 893.5> 1251 75<33 204.5> 1429 246<565 814>
VStem: 206 253<106 662 747 1225.84> 409 435<1459 1581> 942 105<1018.34 1131.08>
LayerCount: 2
Fore
SplineSet
1327 1325 m 1
 1304 1029 l 1
 1197 1014 l 1
 1197 1103 1164 1228 1089 1228 c 2
 780 1228 l 2
 761 1228 749 1212 741 1170 c 2
 667 747 l 1
 899 747 l 2
 933 747 951 782 972 831 c 0
 979 851 989 871 996 891 c 1
 995 890 l 1
 999 903 1024 914 1059 914 c 2
 1067 914 l 2
 1104 914 1117 906 1115 896 c 0
 1100 846 1078 771 1066 704 c 0
 1054 633 1049 548 1047 515 c 1
 1033 495 l 1
 985 495 l 2
 942 495 926 507 927 517 c 1
 928 517 l 1
 927 580 l 2
 927 633 919 662 884 662 c 2
 652 662 l 1
 562 153 l 2
 560 140 559 130 559 123 c 0
 559 101 567 95 580 95 c 2
 953 95 l 2
 1052 95 1120 206 1180 357 c 1
 1278 334 l 1
 1166 0 l 1
 565 0 l 1
 408 2 l 2
 321 1 187 -2 100 -3 c 1
 110 50 l 2
 112.073 60.9865 125 72 175 72 c 2
 235 72 l 2
 282 72 300 102 309 153 c 2
 488 1168 l 2
 490 1181 491 1192 491 1202 c 0
 491 1235 477 1251 443 1251 c 2
 383 1251 l 2
 330 1251 325 1261 325 1273 c 1
 335 1326 l 1
 642 1321 l 2
 694 1321 747 1322.8 799 1323 c 2
 1327 1325 l 1
843 1675 m 1
 1064 1502 l 2
 1081 1488 1088 1476 1088 1464 c 0
 1088 1452 1081 1429 1053 1429 c 0
 1035 1429 1010.12 1435.28 969 1453 c 2
 672 1581 l 1
 843 1675 l 1
EndSplineSet
EndChar

StartChar: Eacute
Encoding: 201 201 136
Width: 1284
VWidth: 2047
GlyphClass: 2
Flags: HW
HStem: -3 75<25 193> 0 95<463.6 959> 662 85<459 725> 1228 97<468 893.5> 1251 75<33 204.5> 1431 258<526 773>
VStem: 206 253<106 662 747 1225.84> 496 413<1461 1574> 942 105<1018.34 1131.08>
LayerCount: 2
Fore
SplineSet
1327 1325 m 1
 1304 1029 l 1
 1197 1014 l 1
 1197 1103 1164 1228 1089 1228 c 2
 780 1228 l 2
 761 1228 749 1212 741 1170 c 2
 667 747 l 1
 899 747 l 2
 933 747 951 782 972 831 c 0
 979 851 989 871 996 891 c 1
 995 890 l 1
 999 903 1024 914 1059 914 c 2
 1067 914 l 2
 1104 914 1117 906 1115 896 c 0
 1100 846 1078 771 1066 704 c 0
 1054 633 1049 548 1047 515 c 1
 1033 495 l 1
 985 495 l 2
 942 495 926 507 927 517 c 1
 928 517 l 1
 927 580 l 2
 927 633 919 662 884 662 c 2
 652 662 l 1
 562 153 l 2
 560 140 559 130 559 123 c 0
 559 101 567 95 580 95 c 2
 953 95 l 2
 1052 95 1120 206 1180 357 c 1
 1278 334 l 1
 1166 0 l 1
 565 0 l 1
 408 2 l 2
 321 1 187 -2 100 -3 c 1
 110 50 l 2
 112.073 60.9865 125 72 175 72 c 2
 235 72 l 2
 282 72 300 102 309 153 c 2
 488 1168 l 2
 490 1181 491 1192 491 1202 c 0
 491 1235 477 1251 443 1251 c 2
 383 1251 l 2
 330 1251 325 1261 325 1273 c 1
 335 1326 l 1
 642 1321 l 2
 694 1321 747 1322.8 799 1323 c 2
 1327 1325 l 1
1057.5 1689 m 1
 1175.5 1574 l 1
 861.5 1455 l 2
 814.437 1437.16 787.5 1431 769.5 1431 c 0
 753.5 1431 744.5 1439 744.5 1454 c 0
 744.5 1456 744.5 1459 744.5 1461 c 0
 746.5 1475 758.5 1501 775.5 1512 c 2
 1057.5 1689 l 1
EndSplineSet
EndChar

StartChar: Ecircumflex
Encoding: 202 202 137
Width: 1284
GlyphClass: 2
Flags: HW
HStem: -3 75<24.5 192.5> 0 95<463.1 958.5> 662 85<458.5 724.5> 1228 97<467.5 893> 1251 75<32.5 204> 1414 235<713.5 878.5>
VStem: 205.5 253<106 662 747 1225.84> 421.5 498<1456 1456> 941.5 105<1018.34 1131.08>
LayerCount: 2
Fore
SplineSet
1327 1325 m 1
 1304 1029 l 1
 1197 1014 l 1
 1197 1103 1164 1228 1089 1228 c 2
 780 1228 l 2
 761 1228 749 1212 741 1170 c 2
 667 747 l 1
 899 747 l 2
 933 747 951 782 972 831 c 0
 979 851 989 871 996 891 c 1
 995 890 l 1
 999 903 1024 914 1059 914 c 2
 1067 914 l 2
 1104 914 1117 906 1115 896 c 0
 1100 846 1078 771 1066 704 c 0
 1054 633 1049 548 1047 515 c 1
 1033 495 l 1
 985 495 l 2
 942 495 926 507 927 517 c 1
 928 517 l 1
 927 580 l 2
 927 633 919 662 884 662 c 2
 652 662 l 1
 562 153 l 2
 560 140 559 130 559 123 c 0
 559 101 567 95 580 95 c 2
 953 95 l 2
 1052 95 1120 206 1180 357 c 1
 1278 334 l 1
 1166 0 l 1
 565 0 l 1
 408 2 l 2
 321 1 187 -2 100 -3 c 1
 110 50 l 2
 112.073 60.9865 125 72 175 72 c 2
 235 72 l 2
 282 72 300 102 309 153 c 2
 488 1168 l 2
 490 1181 491 1192 491 1202 c 0
 491 1235 477 1251 443 1251 c 2
 383 1251 l 2
 330 1251 325 1261 325 1273 c 1
 335 1326 l 1
 642 1321 l 2
 694 1321 747 1322.8 799 1323 c 2
 1327 1325 l 1
992 1649 m 1
 1041 1574 1103 1512 1168 1456 c 1
 1120 1414 l 1
 1046 1449 990 1484 930 1535 c 1
 847 1480 783 1448 700 1414 c 1
 670 1456 l 1
 755 1514 830 1580 904 1649 c 1
 992 1649 l 1
EndSplineSet
EndChar

StartChar: Edieresis
Encoding: 203 203 138
Width: 1284
GlyphClass: 2
Flags: HW
HStem: -3 75<24 192> 0 95<462.6 958> 662 85<458 724> 1228 97<467 892.5> 1251 75<32 203.5> 1428 216<332.3 488.3 783.7 939.7>
VStem: 205 253<106 662 747 1225.84> 301 217<1459.3 1612.7> 754 217<1460.3 1613.7> 941 105<1018.34 1131.08>
LayerCount: 2
Fore
SplineSet
1327 1325 m 1
 1304 1029 l 1
 1197 1014 l 1
 1197 1103 1164 1228 1089 1228 c 2
 780 1228 l 2
 761 1228 749 1212 741 1170 c 2
 667 747 l 1
 899 747 l 2
 933 747 951 782 972 831 c 0
 979 851 989 871 996 891 c 1
 995 890 l 1
 999 903 1024 914 1059 914 c 2
 1067 914 l 2
 1104 914 1117 906 1115 896 c 0
 1100 846 1078 771 1066 704 c 0
 1054 633 1049 548 1047 515 c 1
 1033 495 l 1
 985 495 l 2
 942 495 926 507 927 517 c 1
 928 517 l 1
 927 580 l 2
 927 633 919 662 884 662 c 2
 652 662 l 1
 562 153 l 2
 560 140 559 130 559 123 c 0
 559 101 567 95 580 95 c 2
 953 95 l 2
 1052 95 1120 206 1180 357 c 1
 1278 334 l 1
 1166 0 l 1
 565 0 l 1
 408 2 l 2
 321 1 187 -2 100 -3 c 1
 110 50 l 2
 112.073 60.9865 125 72 175 72 c 2
 235 72 l 2
 282 72 300 102 309 153 c 2
 488 1168 l 2
 490 1181 491 1192 491 1202 c 0
 491 1235 477 1251 443 1251 c 2
 383 1251 l 2
 330 1251 325 1261 325 1273 c 1
 335 1326 l 1
 642 1321 l 2
 694 1321 747 1322.8 799 1323 c 2
 1327 1325 l 1
1091.5 1537 m 0
 1100.5 1596 1156.5 1645 1217.5 1645 c 0
 1271.5 1645 1309.5 1605 1309.5 1554 c 0
 1309.5 1548 1309.5 1543 1308.5 1537 c 0
 1299.5 1478 1242.5 1429 1183.5 1429 c 0
 1128.5 1429 1090.5 1469 1090.5 1520 c 0
 1090.5 1526 1090.5 1531 1091.5 1537 c 0
638.5 1536 m 0
 647.5 1595 704.5 1644 763.5 1644 c 0
 818.5 1644 856.5 1604 856.5 1553 c 0
 856.5 1547 856.5 1542 855.5 1536 c 0
 846.5 1477 790.5 1428 729.5 1428 c 0
 675.5 1428 637.5 1468 637.5 1519 c 0
 637.5 1525 637.5 1530 638.5 1536 c 0
EndSplineSet
EndChar

StartChar: Igrave
Encoding: 204 204 139
Width: 704
VWidth: 2047
GlyphClass: 2
Flags: HW
HStem: 2 65<33.4391 161> 1255 65<37.4916 185.3> 1429 246<246 495>
VStem: 90 435<1459 1581> 192 253<82.9 1222>
LayerCount: 2
Fore
SplineSet
539 157 m 2
 537 149 536 141 536 134 c 0
 536 91 563 67 635 67 c 2
 664 67 l 2
 674 67 679 61 677 50 c 2
 668 2 l 1
 664 -2 l 1
 664 -2 456 2 383 2 c 0
 303 2 104 -2 104 -2 c 1
 100 2 l 1
 109 50 l 2
 111.06 60.9888 120 67 129 67 c 2
 158 67 l 2
 239 67 274 92 286 157 c 2
 463 1165 l 2
 465 1174 466 1183 466 1191 c 0
 466 1237 436 1255 367 1255 c 2
 338 1255 l 2
 329 1255 324 1262 324 1272 c 1
 333 1320 l 1
 337 1324 l 1
 337 1324 536 1320 616 1320 c 0
 689 1320 897 1324 897 1324 c 1
 901 1320 l 1
 892 1272 l 2
 889.94 1261.01 883 1255 873 1255 c 2
 844 1255 l 2
 760 1255 726.009 1222 716 1165 c 2
 539 157 l 2
528.5 1675 m 1
 749.5 1502 l 2
 766.5 1488 773.5 1476 773.5 1464 c 0
 773.5 1452 766.5 1429 738.5 1429 c 0
 720.5 1429 695.621 1435.28 654.5 1453 c 2
 357.5 1581 l 1
 528.5 1675 l 1
EndSplineSet
EndChar

StartChar: Iacute
Encoding: 205 205 140
Width: 704
VWidth: 2047
GlyphClass: 2
Flags: HW
HStem: 2 65<33.4391 161> 1255 65<37.4916 185.3> 1429 258<218 465>
VStem: 188 413<1459 1572> 192 253<82.9 1222>
LayerCount: 2
Fore
SplineSet
539 157 m 2
 537 149 536 141 536 134 c 0
 536 91 563 67 635 67 c 2
 664 67 l 2
 674 67 679 61 677 50 c 2
 668 2 l 1
 664 -2 l 1
 664 -2 456 2 383 2 c 0
 303 2 104 -2 104 -2 c 1
 100 2 l 1
 109 50 l 2
 111.06 60.9888 120 67 129 67 c 2
 158 67 l 2
 239 67 274 92 286 157 c 2
 463 1165 l 2
 465 1174 466 1183 466 1191 c 0
 466 1237 436 1255 367 1255 c 2
 338 1255 l 2
 329 1255 324 1262 324 1272 c 1
 333 1320 l 1
 337 1324 l 1
 337 1324 536 1320 616 1320 c 0
 689 1320 897 1324 897 1324 c 1
 901 1320 l 1
 892 1272 l 2
 889.94 1261.01 883 1255 873 1255 c 2
 844 1255 l 2
 760 1255 726.009 1222 716 1165 c 2
 539 157 l 2
740.5 1687 m 1
 858.5 1572 l 1
 544.5 1453 l 2
 497.437 1435.16 470.5 1429 452.5 1429 c 0
 436.5 1429 427.5 1437 427.5 1452 c 0
 427.5 1454 427.5 1457 427.5 1459 c 0
 429.5 1473 441.5 1499 458.5 1510 c 2
 740.5 1687 l 1
EndSplineSet
EndChar

StartChar: Icircumflex
Encoding: 206 206 141
Width: 704
VWidth: 2047
GlyphClass: 2
Flags: HW
HStem: 2 65<33.4391 161> 1255 65<37.4916 185.3> 1414 235<386 551>
VStem: 94 498<1456 1456> 192 253<82.9 1222>
LayerCount: 2
Fore
SplineSet
539 157 m 2
 537 149 536 141 536 134 c 0
 536 91 563 67 635 67 c 2
 664 67 l 2
 674 67 679 61 677 50 c 2
 668 2 l 1
 664 -2 l 1
 664 -2 456 2 383 2 c 0
 303 2 104 -2 104 -2 c 1
 100 2 l 1
 109 50 l 2
 111.06 60.9888 120 67 129 67 c 2
 158 67 l 2
 239 67 274 92 286 157 c 2
 463 1165 l 2
 465 1174 466 1183 466 1191 c 0
 466 1237 436 1255 367 1255 c 2
 338 1255 l 2
 329 1255 324 1262 324 1272 c 1
 333 1320 l 1
 337 1324 l 1
 337 1324 536 1320 616 1320 c 0
 689 1320 897 1324 897 1324 c 1
 901 1320 l 1
 892 1272 l 2
 889.94 1261.01 883 1255 873 1255 c 2
 844 1255 l 2
 760 1255 726.009 1222 716 1165 c 2
 539 157 l 2
710 1649 m 1
 759 1574 821 1512 886 1456 c 1
 838 1414 l 1
 764 1449 708 1484 648 1535 c 1
 565 1480 501 1448 418 1414 c 1
 388 1456 l 1
 473 1514 548 1580 622 1649 c 1
 710 1649 l 1
EndSplineSet
EndChar

StartChar: Idieresis
Encoding: 207 207 142
Width: 715
GlyphClass: 2
Flags: HW
HStem: 2 65<11.4391 139> 1255 65<15.4916 163.3> 1425 216<-4.7 151.3 446.7 602.7>
VStem: -36 217<1456.3 1609.7> 170 253<82.9 1222> 417 217<1457.3 1610.7>
LayerCount: 2
Fore
SplineSet
539.5 157 m 2
 537.5 149 536.5 141 536.5 134 c 0
 536.5 91 563.5 67 635.5 67 c 2
 664.5 67 l 2
 674.5 67 679.5 61 677.5 50 c 2
 668.5 2 l 1
 664.5 -2 l 1
 664.5 -2 456.5 2 383.5 2 c 0
 303.5 2 104.5 -2 104.5 -2 c 1
 100.5 2 l 1
 109.5 50 l 2
 111.56 60.9888 120.5 67 129.5 67 c 2
 158.5 67 l 2
 239.5 67 274.5 92 286.5 157 c 2
 463.5 1165 l 2
 465.5 1174 466.5 1183 466.5 1191 c 0
 466.5 1237 436.5 1255 367.5 1255 c 2
 338.5 1255 l 2
 329.5 1255 324.5 1262 324.5 1272 c 1
 333.5 1320 l 1
 337.5 1324 l 1
 337.5 1324 536.5 1320 616.5 1320 c 0
 689.5 1320 897.5 1324 897.5 1324 c 1
 901.5 1320 l 1
 892.5 1272 l 2
 890.44 1261.01 883.5 1255 873.5 1255 c 2
 844.5 1255 l 2
 760.5 1255 726.509 1222 716.5 1165 c 2
 539.5 157 l 2
765 1534 m 0
 774 1593 830 1642 891 1642 c 0
 945 1642 983 1602 983 1551 c 0
 983 1545 983 1540 982 1534 c 0
 973 1475 916 1426 857 1426 c 0
 802 1426 764 1466 764 1517 c 0
 764 1523 764 1528 765 1534 c 0
312 1533 m 0
 321 1592 378 1641 437 1641 c 0
 492 1641 530 1601 530 1550 c 0
 530 1544 530 1539 529 1533 c 0
 520 1474 464 1425 403 1425 c 0
 349 1425 311 1465 311 1516 c 0
 311 1522 311 1527 312 1533 c 0
EndSplineSet
EndChar

StartChar: Eth
Encoding: 208 208 143
Width: 1568
VWidth: 2047
GlyphClass: 2
Flags: HW
HStem: -3 75<75 252> -2 84<523.2 1039.3> 588 95<209 747> 1241 84<754.307 1284.3> 1251 75<315.375 462.8>
VStem: 193 570<588 683> 1298 279<637.441 1082.5>
LayerCount: 2
Fore
SplineSet
560 153 m 2
 558 145 558 137 558 131 c 0
 558 92 589 82 725 82 c 0
 1203.4 82 1323 447.894 1323 751 c 0
 1323 1006 1210 1241 879 1241 c 0
 804 1241 751 1235 739 1170 c 2
 653.284 683 l 1
 788 683 l 1
 772 588 l 1
 636.563 588 l 1
 560 153 l 2
109 46 m 2
 112 60 133 72 173 72 c 2
 233 72 l 2
 277 72 298 98 309 157 c 2
 385.034 588 l 1
 218 588 l 1
 234 683 l 1
 401.793 683 l 1
 487 1166 l 2
 489.999 1183 491 1197 491 1208 c 0
 491 1241 477 1251 441 1251 c 2
 384 1251 l 2
 345 1251 326 1258 326 1277 c 1
 335 1326 l 1
 550.504 1322.43 603.524 1321.77 630.186 1321.77 c 0
 645.956 1321.77 652.505 1322 678 1322 c 0
 791 1324 911 1325 970 1325 c 0
 1343 1325 1602 1072 1602 745 c 0
 1602 494.833 1429 -2 772 -2 c 0
 643 -2 559 0 496 1 c 0
 460 2 431 2 403 2 c 0
 317 1 186 -2 100 -3 c 1
 109 46 l 2
EndSplineSet
EndChar

StartChar: Ntilde
Encoding: 209 209 144
Width: 1521
VWidth: 2047
GlyphClass: 2
Flags: HW
HStem: -25 21<1232.46 1294> 2 65<110.064 239 467.4 600> 1255 65<335 437 1248 1375.7 1605 1736.49> 1421 106<1124.3 1232.2> 1520 110<836.1 951.8>
VStem: 740 604<1440 1614>
LayerCount: 2
Fore
SplineSet
1382 1165 m 2
 1384 1174 1385 1183 1385 1191 c 0
 1385 1237 1355 1255 1286 1255 c 2
 1257 1255 l 2
 1248 1255 1241 1261 1243 1272 c 2
 1252 1320 l 1
 1256 1324 l 1
 1256 1324 1423 1320 1503 1320 c 0
 1576 1320 1742 1324 1742 1324 c 1
 1746 1320 l 1
 1737 1272 l 2
 1734.94 1261.01 1728 1255 1718 1255 c 2
 1689 1255 l 2
 1605 1255 1571.03 1222 1561 1165 c 2
 1365 51 l 2
 1357 7 1324 -25 1264 -25 c 0
 1200.91 -25 1172.65 8.82026 1159 31 c 2
 620.484 906.333 l 2
 613.899 917.037 609.367 922.838 605.75 922.838 c 0
 601.5 922.838 598.544 914.72 595 897 c 2
 465 157 l 2
 463 149 462 141 462 134 c 0
 462 91 489 67 561 67 c 2
 590 67 l 2
 600 67 605 61 603 50 c 2
 594 2 l 1
 590 -2 l 1
 590 -2 422 2 349 2 c 0
 269 2 104 -2 104 -2 c 1
 100 2 l 1
 109 50 l 2
 111.06 60.9888 120 67 129 67 c 2
 158 67 l 2
 239 67 274 92 286 157 c 2
 456 1120 l 1
 453 1171 425 1251 385 1251 c 2
 374 1251 l 2
 347 1251 309 1259.33 309 1276 c 1
 313 1299 l 1
 335 1325 l 1
 649 1323 l 1
 1217 428 l 2
 1227.31 411.757 1236 396 1244 381 c 1
 1382 1165 l 2
1175 1527 m 0
 1219 1527 1248 1547 1294 1642 c 1
 1344 1623 l 1
 1294 1488 1221 1410 1126 1410 c 0
 1081 1410 1044 1439 1007 1469 c 0
 974 1495 941 1519 905 1519 c 0
 852 1519 823 1491 789 1416 c 1
 740 1431 l 1
 793 1564 853 1640 941 1640 c 0
 1004 1640 1043 1608 1077 1578 c 0
 1106 1551 1136 1527 1175 1527 c 0
EndSplineSet
EndChar

StartChar: Ograve
Encoding: 210 210 145
Width: 1504
VWidth: 2047
GlyphClass: 2
Flags: HW
HStem: -25 85<466.4 1050.1> 1263 85<486.8 1015.9> 1432 246<674 923>
VStem: 66 274<170.5 1158.6> 518 435<1462 1584> 1146 275<170.9 1175.8>
LayerCount: 2
Fore
SplineSet
968 1263 m 0
 672.2 1263 475 848.745 475 501 c 0
 475 220 620 60 824 60 c 0
 1114.4 60 1308 465.652 1308 824 c 0
 1308 1115 1162 1263 968 1263 c 0
769 -25 m 0
 437 -25 198 177 198 505 c 0
 198 905.179 533.081 1348 1009 1348 c 0
 1331 1348 1583 1136 1583 801 c 0
 1583 395.642 1266.98 -25 769 -25 c 0
966 1678 m 1
 1187 1505 l 2
 1204 1491 1211 1479 1211 1467 c 0
 1211 1455 1204 1432 1176 1432 c 0
 1158 1432 1133.12 1438.28 1092 1456 c 2
 795 1584 l 1
 966 1678 l 1
EndSplineSet
EndChar

StartChar: Oacute
Encoding: 211 211 146
Width: 1504
VWidth: 2047
GlyphClass: 2
Flags: HW
HStem: -25 85<466.4 1050.1> 1263 85<486.8 1015.9> 1431 258<590 837>
VStem: 66 274<170.5 1158.6> 560 413<1461 1574> 1146 275<170.9 1175.8>
LayerCount: 2
Fore
SplineSet
968 1263 m 0
 672.2 1263 475 848.745 475 501 c 0
 475 220 620 60 824 60 c 0
 1114.4 60 1308 465.652 1308 824 c 0
 1308 1115 1162 1263 968 1263 c 0
769 -25 m 0
 437 -25 198 177 198 505 c 0
 198 905.179 533.081 1348 1009 1348 c 0
 1331 1348 1583 1136 1583 801 c 0
 1583 395.642 1266.98 -25 769 -25 c 0
1110 1689 m 1
 1228 1574 l 1
 914 1455 l 2
 866.937 1437.16 840 1431 822 1431 c 0
 806 1431 797 1439 797 1454 c 0
 797 1456 797 1459 797 1461 c 0
 799 1475 811 1501 828 1512 c 2
 1110 1689 l 1
EndSplineSet
EndChar

StartChar: Ocircumflex
Encoding: 212 212 147
Width: 1504
VWidth: 2047
GlyphClass: 2
Flags: HW
HStem: -25 85<466.4 1050.1> 1263 85<486.8 1015.9> 1414 235<806 971>
VStem: 66 274<170.5 1158.6> 514 498<1456 1456> 1146 275<170.9 1175.8>
LayerCount: 2
Fore
SplineSet
968 1263 m 0
 672.2 1263 475 848.745 475 501 c 0
 475 220 620 60 824 60 c 0
 1114.4 60 1308 465.652 1308 824 c 0
 1308 1115 1162 1263 968 1263 c 0
769 -25 m 0
 437 -25 198 177 198 505 c 0
 198 905.179 533.081 1348 1009 1348 c 0
 1331 1348 1583 1136 1583 801 c 0
 1583 395.642 1266.98 -25 769 -25 c 0
1103 1649 m 1
 1152 1574 1214 1512 1279 1456 c 1
 1231 1414 l 1
 1157 1449 1101 1484 1041 1535 c 1
 958 1480 894 1448 811 1414 c 1
 781 1456 l 1
 866 1514 941 1580 1015 1649 c 1
 1103 1649 l 1
EndSplineSet
EndChar

StartChar: Otilde
Encoding: 213 213 148
Width: 1504
VWidth: 2047
GlyphClass: 2
Flags: HW
HStem: -25 85<466.4 1050.1> 1263 85<486.8 1015.9> 1428 106<834.3 942.2> 1527 110<547.1 662.8>
VStem: 66 274<170.5 1158.6> 468 568<1447 1621> 1146 275<170.9 1175.8>
LayerCount: 2
Fore
SplineSet
968 1263 m 0
 672.2 1263 475 848.745 475 501 c 0
 475 220 620 60 824 60 c 0
 1114.4 60 1308 465.652 1308 824 c 0
 1308 1115 1162 1263 968 1263 c 0
769 -25 m 0
 437 -25 198 177 198 505 c 0
 198 905.179 533.081 1348 1009 1348 c 0
 1331 1348 1583 1136 1583 801 c 0
 1583 395.642 1266.98 -25 769 -25 c 0
1144 1534 m 0
 1188 1534 1217 1554 1263 1649 c 1
 1313 1630 l 1
 1263 1495 1190 1417 1095 1417 c 0
 1050 1417 1013 1446 976 1476 c 0
 943 1502 910 1526 874 1526 c 0
 821 1526 792 1498 758 1423 c 1
 709 1438 l 1
 762 1571 822 1647 910 1647 c 0
 973 1647 1012 1615 1046 1585 c 0
 1075 1558 1105 1534 1144 1534 c 0
EndSplineSet
EndChar

StartChar: Odieresis
Encoding: 214 214 149
Width: 1504
GlyphClass: 2
Flags: HW
HStem: -25 85<466.4 1050.1> 1263 85<486.8 1015.9> 1429 216<448.3 604.3 899.7 1055.7>
VStem: 66 274<170.5 1158.6> 417 217<1460.3 1613.7> 870 217<1461.3 1614.7> 1146 275<170.9 1175.8>
LayerCount: 2
Fore
SplineSet
968 1263 m 0
 672.2 1263 475 848.745 475 501 c 0
 475 220 620 60 824 60 c 0
 1114.4 60 1308 465.652 1308 824 c 0
 1308 1115 1162 1263 968 1263 c 0
769 -25 m 0
 437 -25 198 177 198 505 c 0
 198 905.179 533.081 1348 1009 1348 c 0
 1331 1348 1583 1136 1583 801 c 0
 1583 395.642 1266.98 -25 769 -25 c 0
1143 1538 m 0
 1152 1597 1208 1646 1269 1646 c 0
 1323 1646 1361 1606 1361 1555 c 0
 1361 1549 1361 1544 1360 1538 c 0
 1351 1479 1294 1430 1235 1430 c 0
 1180 1430 1142 1470 1142 1521 c 0
 1142 1527 1142 1532 1143 1538 c 0
690 1537 m 0
 699 1596 756 1645 815 1645 c 0
 870 1645 908 1605 908 1554 c 0
 908 1548 908 1543 907 1537 c 0
 898 1478 842 1429 781 1429 c 0
 727 1429 689 1469 689 1520 c 0
 689 1526 689 1531 690 1537 c 0
EndSplineSet
EndChar

StartChar: multiply
Encoding: 215 215 150
Width: 1130
VWidth: 2047
GlyphClass: 2
Flags: HW
HStem: 106 697<814 814>
VStem: 226 697<215 694>
LayerCount: 2
Fore
SplineSet
688.747 564 m 1
 977.372 803 l 1
 1064.2 694 l 1
 776.367 454 l 1
 966.742 215 l 1
 835.566 106 l 1
 644.191 345 l 1
 356.566 106 l 1
 269.742 215 l 1
 557.367 454 l 1
 367.196 694 l 1
 498.372 803 l 1
 688.747 564 l 1
EndSplineSet
EndChar

StartChar: Oslash
Encoding: 216 216 151
Width: 1507
VWidth: 2047
GlyphClass: 2
Flags: HW
HStem: -25 85<497.4 1081.1> 1263 85<517.8 1046.9>
VStem: 97 274<170.5 1158.6> 1177 275<170.9 1175.8>
LayerCount: 2
Fore
SplineSet
199 -82 m 1
 128 -28 l 1
 316.248 162.148 l 1
 241.766 250.051 199 366.252 199 505 c 0
 199 905.179 534.081 1348 1010 1348 c 0
 1150.85 1348 1278.31 1307.43 1377.14 1233.75 c 1
 1515 1373 l 1
 1586 1323 l 1
 1441.59 1176.72 l 1
 1530.62 1083.32 1584 955.189 1584 801 c 0
 1584 395.642 1267.98 -25 770 -25 c 0
 614.238 -25 478.946 19.4631 379.202 100.541 c 1
 199 -82 l 1
969 1263 m 0
 673.2 1263 476 848.745 476 501 c 0
 476 442.561 482.271 389.356 494.04 341.735 c 1
 1246.56 1101.85 l 1
 1186.01 1208.91 1086.28 1263 969 1263 c 0
1282.95 1016.02 m 1
 526.648 249.9 l 1
 585.994 126.808 693.18 60 825 60 c 0
 1115.4 60 1309 465.652 1309 824 c 0
 1309 897.043 1299.8 961.076 1282.95 1016.02 c 1
EndSplineSet
EndChar

StartChar: Ugrave
Encoding: 217 217 152
Width: 1399
VWidth: 2047
GlyphClass: 2
Flags: HW
HStem: -25 99<610.2 1099> 1255 65<-2.50839 145.3 892.492 1040.3 1236 1366.11> 1431 246<597 846>
VStem: 152 252<342.034 1222> 441 435<1461 1583> 1047 161<344 1239.1>
LayerCount: 2
Fore
SplineSet
1307 1165 m 2
 1309 1174 1310 1183 1310 1191 c 0
 1310 1237 1281 1255 1211 1255 c 2
 1182 1255 l 2
 1173 1255 1168 1261.5 1168 1272 c 1
 1177 1320 l 1
 1181 1324 l 1
 1181 1324 1335 1320 1415 1320 c 0
 1488 1320 1649 1324 1649 1324 c 1
 1653 1320 l 1
 1644 1272 l 2
 1641.94 1261.01 1635 1255 1625 1255 c 2
 1596 1255 l 2
 1512 1255 1478.01 1222 1468 1165 c 2
 1369 601 l 2
 1304 235 1169 -25 716 -25 c 0
 539 -25 280 44 280 359 c 0
 280 396 284.091 436.984 292 482 c 2
 412 1165 l 2
 414 1174 415 1183 415 1191 c 0
 415 1237 385 1255 316 1255 c 2
 287 1255 l 2
 278 1255 273 1260 273 1272 c 1
 282 1320 l 1
 286 1324 l 1
 286 1324 485 1320 565 1320 c 0
 638 1320 845 1324 845 1324 c 1
 849 1320 l 1
 840 1272 l 2
 837.94 1261.01 831 1255 821 1255 c 2
 792 1255 l 2
 708 1255 674 1222 664 1165 c 2
 556 549 l 2
 544.416 482.926 532 415 532 351 c 0
 532 129.4 705.007 74 777 74 c 0
 1077 74 1163 344 1202 566 c 2
 1307 1165 l 2
911 1677 m 1
 1132 1504 l 2
 1149 1490 1156 1478 1156 1466 c 0
 1156 1454 1149 1431 1121 1431 c 0
 1103 1431 1078.12 1437.28 1037 1455 c 2
 740 1583 l 1
 911 1677 l 1
EndSplineSet
EndChar

StartChar: Uacute
Encoding: 218 218 153
Width: 1399
VWidth: 2047
GlyphClass: 2
Flags: HW
HStem: -25 99<610.2 1099> 1255 65<-2.50839 145.3 892.492 1040.3 1236 1366.11> 1429 258<607 854>
VStem: 152 252<342.034 1222> 577 413<1459 1572> 1047 161<344 1239.1>
LayerCount: 2
Fore
SplineSet
1307 1165 m 2
 1309 1174 1310 1183 1310 1191 c 0
 1310 1237 1281 1255 1211 1255 c 2
 1182 1255 l 2
 1173 1255 1168 1261.5 1168 1272 c 1
 1177 1320 l 1
 1181 1324 l 1
 1181 1324 1335 1320 1415 1320 c 0
 1488 1320 1649 1324 1649 1324 c 1
 1653 1320 l 1
 1644 1272 l 2
 1641.94 1261.01 1635 1255 1625 1255 c 2
 1596 1255 l 2
 1512 1255 1478.01 1222 1468 1165 c 2
 1369 601 l 2
 1304 235 1169 -25 716 -25 c 0
 539 -25 280 44 280 359 c 0
 280 396 284.091 436.984 292 482 c 2
 412 1165 l 2
 414 1174 415 1183 415 1191 c 0
 415 1237 385 1255 316 1255 c 2
 287 1255 l 2
 278 1255 273 1260 273 1272 c 1
 282 1320 l 1
 286 1324 l 1
 286 1324 485 1320 565 1320 c 0
 638 1320 845 1324 845 1324 c 1
 849 1320 l 1
 840 1272 l 2
 837.94 1261.01 831 1255 821 1255 c 2
 792 1255 l 2
 708 1255 674 1222 664 1165 c 2
 556 549 l 2
 544.416 482.926 532 415 532 351 c 0
 532 129.4 705.007 74 777 74 c 0
 1077 74 1163 344 1202 566 c 2
 1307 1165 l 2
1155 1687 m 1
 1273 1572 l 1
 959 1453 l 2
 911.937 1435.16 885 1429 867 1429 c 0
 851 1429 842 1437 842 1452 c 0
 842 1454 842 1457 842 1459 c 0
 844 1473 856 1499 873 1510 c 2
 1155 1687 l 1
EndSplineSet
EndChar

StartChar: Ucircumflex
Encoding: 219 219 154
Width: 1399
VWidth: 2047
GlyphClass: 2
Flags: HW
HStem: -25 99<610.2 1099> 1255 65<-2.50839 145.3 892.492 1040.3 1236 1366.11> 1414 235<792 957>
VStem: 152 252<342.034 1222> 500 498<1456 1456> 1047 161<344 1239.1>
LayerCount: 2
Fore
SplineSet
1307 1165 m 2
 1309 1174 1310 1183 1310 1191 c 0
 1310 1237 1281 1255 1211 1255 c 2
 1182 1255 l 2
 1173 1255 1168 1261.5 1168 1272 c 1
 1177 1320 l 1
 1181 1324 l 1
 1181 1324 1335 1320 1415 1320 c 0
 1488 1320 1649 1324 1649 1324 c 1
 1653 1320 l 1
 1644 1272 l 2
 1641.94 1261.01 1635 1255 1625 1255 c 2
 1596 1255 l 2
 1512 1255 1478.01 1222 1468 1165 c 2
 1369 601 l 2
 1304 235 1169 -25 716 -25 c 0
 539 -25 280 44 280 359 c 0
 280 396 284.091 436.984 292 482 c 2
 412 1165 l 2
 414 1174 415 1183 415 1191 c 0
 415 1237 385 1255 316 1255 c 2
 287 1255 l 2
 278 1255 273 1260 273 1272 c 1
 282 1320 l 1
 286 1324 l 1
 286 1324 485 1320 565 1320 c 0
 638 1320 845 1324 845 1324 c 1
 849 1320 l 1
 840 1272 l 2
 837.94 1261.01 831 1255 821 1255 c 2
 792 1255 l 2
 708 1255 674 1222 664 1165 c 2
 556 549 l 2
 544.416 482.926 532 415 532 351 c 0
 532 129.4 705.007 74 777 74 c 0
 1077 74 1163 344 1202 566 c 2
 1307 1165 l 2
1104 1649 m 1
 1153 1574 1215 1512 1280 1456 c 1
 1232 1414 l 1
 1158 1449 1102 1484 1042 1535 c 1
 959 1480 895 1448 812 1414 c 1
 782 1456 l 1
 867 1514 942 1580 1016 1649 c 1
 1104 1649 l 1
EndSplineSet
EndChar

StartChar: Udieresis
Encoding: 220 220 155
Width: 1399
GlyphClass: 2
Flags: HW
HStem: -25 99<610.2 1099> 1255 65<-2.50839 145.3 892.492 1040.3 1236 1366.11> 1429 216<438.3 594.3 889.7 1045.7>
VStem: 152 252<342.034 1222> 407 217<1460.3 1613.7> 860 217<1461.3 1614.7> 1047 161<344 1239.1>
LayerCount: 2
Fore
SplineSet
1307 1165 m 2
 1309 1174 1310 1183 1310 1191 c 0
 1310 1237 1281 1255 1211 1255 c 2
 1182 1255 l 2
 1173 1255 1168 1261.5 1168 1272 c 1
 1177 1320 l 1
 1181 1324 l 1
 1181 1324 1335 1320 1415 1320 c 0
 1488 1320 1649 1324 1649 1324 c 1
 1653 1320 l 1
 1644 1272 l 2
 1641.94 1261.01 1635 1255 1625 1255 c 2
 1596 1255 l 2
 1512 1255 1478.01 1222 1468 1165 c 2
 1369 601 l 2
 1304 235 1169 -25 716 -25 c 0
 539 -25 280 44 280 359 c 0
 280 396 284.091 436.984 292 482 c 2
 412 1165 l 2
 414 1174 415 1183 415 1191 c 0
 415 1237 385 1255 316 1255 c 2
 287 1255 l 2
 278 1255 273 1260 273 1272 c 1
 282 1320 l 1
 286 1324 l 1
 286 1324 485 1320 565 1320 c 0
 638 1320 845 1324 845 1324 c 1
 849 1320 l 1
 840 1272 l 2
 837.94 1261.01 831 1255 821 1255 c 2
 792 1255 l 2
 708 1255 674 1222 664 1165 c 2
 556 549 l 2
 544.416 482.926 532 415 532 351 c 0
 532 129.4 705.007 74 777 74 c 0
 1077 74 1163 344 1202 566 c 2
 1307 1165 l 2
1153 1538 m 0
 1162 1597 1218 1646 1279 1646 c 0
 1333 1646 1371 1606 1371 1555 c 0
 1371 1549 1371 1544 1370 1538 c 0
 1361 1479 1304 1430 1245 1430 c 0
 1190 1430 1152 1470 1152 1521 c 0
 1152 1527 1152 1532 1153 1538 c 0
700 1537 m 0
 709 1596 766 1645 825 1645 c 0
 880 1645 918 1605 918 1554 c 0
 918 1548 918 1543 917 1537 c 0
 908 1478 852 1429 791 1429 c 0
 737 1429 699 1469 699 1520 c 0
 699 1526 699 1531 700 1537 c 0
EndSplineSet
EndChar

StartChar: Yacute
Encoding: 221 221 156
Width: 1282
VWidth: 2047
GlyphClass: 2
Flags: HW
HStem: 2 65<196.439 349 635.8 812.163> 1251 70<671 786.195 983 1118.27> 1431 258<373 620>
VStem: 343 413<1461 1574> 381 252<82.9 584.296>
LayerCount: 2
Fore
SplineSet
834 157 m 2
 832 149 831 141 831 134 c 0
 831 91 858 67 930 67 c 2
 984 67 l 2
 994 67 997 63 997 50 c 1
 988 2 l 1
 984 -2 l 1
 984 -2 751 2 678 2 c 0
 598 2 374 -2 374 -2 c 1
 370 2 l 1
 379 50 l 2
 381.06 60.9888 390 67 399 67 c 2
 453 67 l 2
 534 67 570 92 582 157 c 2
 657 584 l 1
 421 1166 l 2
 403 1213 392.966 1235.95 383 1243 c 0
 375.976 1247.97 365 1251 351 1251 c 2
 320 1251 l 2
 300.765 1251 265 1258 265 1274 c 1
 270 1307 l 1
 293 1326 l 1
 293 1326 508 1321 535 1321 c 0
 547 1321 796 1326 796 1326 c 1
 811 1307 l 1
 806 1276 l 2
 804 1264 784 1251 745 1251 c 2
 687 1251 l 2
 681.273 1251 675.142 1241.35 675.142 1224.04 c 0
 675.142 1212.11 678.158 1196.6 686 1178 c 2
 686 1178 791 929 856 772 c 1
 954 907 1052 1042 1148 1178 c 0
 1168.15 1206.96 1177.16 1230.81 1177.16 1242.74 c 0
 1177.16 1248.05 1175.37 1251 1172 1251 c 2
 1109 1251 l 2
 1065 1255 1060 1263 1060 1274 c 1
 1065 1306 l 1
 1088 1326 l 1
 1088 1326 1276 1321 1302 1321 c 0
 1319 1321 1508 1326 1508 1326 c 1
 1523 1307 l 1
 1518 1275 l 2
 1515 1258 1490 1251 1451 1251 c 2
 1407 1251 l 2
 1377 1251 1354 1229 1309 1166 c 2
 913 606 l 1
 834 157 l 2
1076 1689 m 1
 1194 1574 l 1
 880 1455 l 2
 832.937 1437.16 806 1431 788 1431 c 0
 772 1431 763 1439 763 1454 c 0
 763 1456 763 1459 763 1461 c 0
 765 1475 777 1501 794 1512 c 2
 1076 1689 l 1
EndSplineSet
EndChar

StartChar: Thorn
Encoding: 222 222 157
Width: 1195
GlyphClass: 2
Flags: HW
HStem: 2 65<169.064 298> 309 76<633.579 900.8> 998 71<798.937 995.4> 1254 65<819 950.487>
VStem: 1077 251<692.486 951.7>
LayerCount: 2
Fore
SplineSet
684 979 m 1
 580 389 l 1
 603 386 633 385 678 385 c 0
 804 385 965 448 1010 703 c 0
 1016 734 1018 763 1018 788 c 0
 1018 954 910 998 822 998 c 0
 796 998 732 989 684 979 c 1
539 157 m 2
 537 149 536 141 536 134 c 0
 536 91 563 67 635 67 c 2
 664 67 l 2
 674 67 679 61 677 50 c 2
 668 2 l 1
 664 -2 l 1
 664 -2 456 2 383 2 c 0
 303 2 104 -2 104 -2 c 1
 100 2 l 1
 109 50 l 2
 111.06 60.9888 120 67 129 67 c 2
 158 67 l 2
 239 67 274 92 286 157 c 2
 463 1164 l 2
 465 1173 466 1182 466 1190 c 0
 466 1236 436 1254 367 1254 c 2
 338 1254 l 2
 329 1254 322 1260 324 1271 c 2
 333 1319 l 1
 337 1323 l 1
 337 1323 536 1319 616 1319 c 0
 689 1319 897 1323 897 1323 c 1
 901 1319 l 1
 892 1271 l 2
 889.94 1260.01 883 1254 873 1254 c 2
 844 1254 l 2
 760 1254 727 1221 716 1164 c 2
 699 1069 l 1
 757 1071 808 1071 837 1071 c 0
 1188 1071 1269 910 1269 771 c 0
 1269 747 1266.99 724.002 1263 702 c 0
 1234.91 547.016 1068 309 675 309 c 0
 633 309 613 306 597 306 c 0
 587 306 578 308 566 312 c 1
 539 157 l 2
EndSplineSet
EndChar

StartChar: germandbls
Encoding: 223 223 158
Width: 1206
VWidth: 2047
GlyphClass: 2
Flags: HW
HStem: -500 86<-68.4296 69.2614> -25 75<680.053 876.554> 810 73<255.369 385.799> 1355 74<686.929 1015.83>
VStem: 542.727 128.426<40.9382 142.089> 924.605 258.687<197.419 611.219> 1005.7 236.337<1022.64 1338.51>
LayerCount: 2
Fore
SplineSet
652.253 261.198 m 0
 675.526 261.198 714.273 248.919 714.273 199.805 c 0
 714.273 152.888 671.152 130.809 671.152 93.2061 c 0
 671.152 53 707.807 50 749.234 50 c 0
 847.173 50 924.605 247.178 924.605 413.04 c 0
 924.605 565.485 856.291 701.949 737.465 812 c 1
 743.468 838 l 1
 796.369 872.729 1005.7 1036 1005.7 1241.4 c 0
 1005.7 1316.1 993 1355 916.904 1355 c 0
 740 1355 687.499 1149.77 613.701 836 c 0
 482.248 277.094 404.196 -158.827 256 -370 c 0
 197.834 -452.884 92 -500 -18 -500 c 0
 -160 -500 -192 -431 -192 -398 c 0
 -192 -371 -174 -319 -113 -319 c 0
 -29 -319 -47.792 -414 21 -414 c 0
 48 -414 72 -408 104 -376 c 0
 165 -315 249.063 86.1468 286 288 c 2
 375.847 779 l 2
 379.919 801.252 378 810 352.003 810 c 2
 262.003 810 l 2
 255.369 810 252.915 811.63 252.915 816.091 c 0
 252.915 832.462 263.979 883 314.164 883 c 0
 377.164 883 406.427 922.227 421.559 977 c 0
 513.003 1308 735 1429 949.91 1429 c 0
 1136.08 1429 1242.04 1332.13 1242.04 1241.75 c 0
 1242.04 1073.2 1055.93 940.043 904.391 842 c 1
 903.236 837 l 1
 1023 749 1183.29 628.294 1183.29 443.138 c 0
 1183.29 248.783 982.066 -25 734.229 -25 c 0
 598.708 -25 542.727 42.2051 542.727 114.892 c 0
 542.727 217.345 614.569 261.198 652.253 261.198 c 0
EndSplineSet
EndChar

StartChar: agrave
Encoding: 224 224 159
Width: 1107
VWidth: 2047
GlyphClass: 2
Flags: HW
HStem: -25 92<298.6 475.209> -25 116<775 886.1> 834 77<359.9 525> 1043 333<436 587.333>
VStem: 80 235<145.678 361.5> 114 198<694 818.8> 293 331<1077.01 1306.4> 590 239<149.867 483 572 849> 903 85<146 211>
LayerCount: 2
Fore
SplineSet
763 400 m 0
 805 507 828 646 828 677 c 0
 828 758 790 832 731 832 c 0
 567 832 409 520 409 309 c 0
 409 199 410 76 515 76 c 0
 572 76 696 230 763 400 c 0
697 75 m 0
 697 83 698.333 96.333 699.332 105.665 c 1
 607.332 17.665 507 -25 436 -25 c 0
 224 -25 160 155 160 271 c 0
 160 592 489 911 724 911 c 0
 832 911 876 866 898 804 c 1
 972 911 l 1
 1126 913 l 1
 968 252 l 2
 958.495 212.117 953 184 953 166 c 0
 953 142 961 133 970 133 c 0
 993 133 1033 164 1077 220 c 1
 1140 164 l 1
 1013 34 916 -25 809 -25 c 0
 704 -25 697 38 697 75 c 0
777 1371 m 1
 862 1129 l 2
 866 1120 867 1108 867 1097 c 0
 867 1090 866 1083 865 1077 c 0
 861 1058 840 1043 821 1043 c 0
 808 1043 796 1053 770 1083 c 2
 581 1306 l 1
 590 1328 l 1
 608 1341 668 1376 738 1376 c 0
 748 1376 771 1374 777 1371 c 1
EndSplineSet
EndChar

StartChar: aacute
Encoding: 225 225 160
Width: 1107
VWidth: 2047
GlyphClass: 2
Flags: HW
HStem: -25 92<298.6 475.209> -25 116<775 886.1> 834 77<359.9 525> 1029 333<417 593>
VStem: 80 235<145.678 361.5> 114 198<694 818.8> 387 337<1053.67 1280> 590 239<149.867 483 572 849> 903 85<146 211>
LayerCount: 2
Fore
SplineSet
763 400 m 0
 805 507 828 646 828 677 c 0
 828 758 790 832 731 832 c 0
 567 832 409 520 409 309 c 0
 409 199 410 76 515 76 c 0
 572 76 696 230 763 400 c 0
697 75 m 0
 697 83 698.333 96.333 699.332 105.665 c 1
 607.332 17.665 507 -25 436 -25 c 0
 224 -25 160 155 160 271 c 0
 160 592 489 911 724 911 c 0
 832 911 876 866 898 804 c 1
 972 911 l 1
 1126 913 l 1
 968 252 l 2
 958.495 212.117 953 184 953 166 c 0
 953 142 961 133 970 133 c 0
 993 133 1033 164 1077 220 c 1
 1140 164 l 1
 1013 34 916 -25 809 -25 c 0
 704 -25 697 38 697 75 c 0
858 1357 m 1
 865 1360 879 1362 889 1362 c 0
 963 1362 974 1327 992 1314 c 1
 1004 1266 l 1
 723 1057 l 2
 696.534 1037.32 665 1029 645 1029 c 0
 631 1029 620 1038 620 1050 c 0
 620 1056 624 1078 643 1100 c 2
 858 1357 l 1
EndSplineSet
EndChar

StartChar: acircumflex
Encoding: 226 226 161
Width: 1107
VWidth: 2047
GlyphClass: 2
Flags: HW
HStem: -25 92<298.6 475.209> -25 116<775 886.1> 834 77<359.9 525> 1021 301<527 684>
VStem: 80 235<145.678 361.5> 114 198<694 818.8> 215 519<1058 1058> 590 239<149.867 483 572 849> 903 85<146 211>
LayerCount: 2
Fore
SplineSet
763 400 m 0
 805 507 828 646 828 677 c 0
 828 758 790 832 731 832 c 0
 567 832 409 520 409 309 c 0
 409 199 410 76 515 76 c 0
 572 76 696 230 763 400 c 0
697 75 m 0
 697 83 698.333 96.333 699.332 105.665 c 1
 607.332 17.665 507 -25 436 -25 c 0
 224 -25 160 155 160 271 c 0
 160 592 489 911 724 911 c 0
 832 911 876 866 898 804 c 1
 972 911 l 1
 1126 913 l 1
 968 252 l 2
 958.495 212.117 953 184 953 166 c 0
 953 142 961 133 970 133 c 0
 993 133 1033 164 1077 220 c 1
 1140 164 l 1
 1013 34 916 -25 809 -25 c 0
 704 -25 697 38 697 75 c 0
836 1322 m 1
 876 1226 933 1140 990 1058 c 1
 932 1021 l 1
 863 1076 811 1119 757 1193 c 1
 665 1115 603 1076 512 1021 c 1
 471 1058 l 1
 559 1139 655 1228 734 1322 c 1
 836 1322 l 1
EndSplineSet
EndChar

StartChar: atilde
Encoding: 227 227 162
Width: 1107
VWidth: 2047
GlyphClass: 2
Flags: HW
HStem: -25 92<298.6 475.209> -25 116<775 886.1> 834 77<359.9 525> 1070 106<570.3 678.2> 1169 110<283.1 398.8>
VStem: 80 235<145.678 361.5> 114 198<694 818.8> 204 568<1089 1263> 590 239<149.867 483 572 849> 903 85<146 211>
LayerCount: 2
Fore
SplineSet
763 400 m 0
 805 507 828 646 828 677 c 0
 828 758 790 832 731 832 c 0
 567 832 409 520 409 309 c 0
 409 199 410 76 515 76 c 0
 572 76 696 230 763 400 c 0
697 75 m 0
 697 83 698.333 96.333 699.332 105.665 c 1
 607.332 17.665 507 -25 436 -25 c 0
 224 -25 160 155 160 271 c 0
 160 592 489 911 724 911 c 0
 832 911 876 866 898 804 c 1
 972 911 l 1
 1126 913 l 1
 968 252 l 2
 958.495 212.117 953 184 953 166 c 0
 953 142 961 133 970 133 c 0
 993 133 1033 164 1077 220 c 1
 1140 164 l 1
 1013 34 916 -25 809 -25 c 0
 704 -25 697 38 697 75 c 0
880 1176 m 0
 924 1176 953 1196 999 1291 c 1
 1049 1272 l 1
 999 1137 926 1059 831 1059 c 0
 786 1059 749 1088 712 1118 c 0
 679 1144 646 1168 610 1168 c 0
 557 1168 528 1140 494 1065 c 1
 445 1080 l 1
 498 1213 558 1289 646 1289 c 0
 709 1289 748 1257 782 1227 c 0
 811 1200 841 1176 880 1176 c 0
EndSplineSet
EndChar

StartChar: adieresis
Encoding: 228 228 163
Width: 1107
VWidth: 2047
GlyphClass: 2
Flags: HW
HStem: -25 92<298.6 475.209> -25 116<775 886.1> 834 77<359.9 525> 1069 200<225.5 368.5 580.5 723.5>
VStem: 80 235<145.678 361.5> 114 198<694 818.8> 196 201<1097.5 1240.5> 552 201<1097.5 1240.5> 590 239<149.867 483 572 849> 903 85<146 211>
LayerCount: 2
Fore
SplineSet
763 400 m 0
 805 507 828 646 828 677 c 0
 828 758 790 832 731 832 c 0
 567 832 409 520 409 309 c 0
 409 199 410 76 515 76 c 0
 572 76 696 230 763 400 c 0
697 75 m 0
 697 83 698.333 96.333 699.332 105.665 c 1
 607.332 17.665 507 -25 436 -25 c 0
 224 -25 160 155 160 271 c 0
 160 592 489 911 724 911 c 0
 832 911 876 866 898 804 c 1
 972 911 l 1
 1126 913 l 1
 968 252 l 2
 958.495 212.117 953 184 953 166 c 0
 953 142 961 133 970 133 c 0
 993 133 1033 164 1077 220 c 1
 1140 164 l 1
 1013 34 916 -25 809 -25 c 0
 704 -25 697 38 697 75 c 0
816 1147 m 0
 816 1218.85 883.831 1279 950 1279 c 0
 1003 1279 1041 1240 1041 1190 c 0
 1041 1123.57 974.729 1059 905 1059 c 0
 852 1059 816 1097 816 1147 c 0
444 1148 m 0
 444 1218.07 513.147 1279 579 1279 c 0
 633 1279 669 1241 669 1191 c 0
 669 1120.48 601.8 1059 534 1059 c 0
 482 1059 444 1098 444 1148 c 0
EndSplineSet
EndChar

StartChar: aring
Encoding: 229 229 164
Width: 1107
GlyphClass: 2
Flags: HW
HStem: -25 92<301.6 478.209> -25 116<778 889.1> 834 77<362.9 528> 991 64<407.3 560.7> 1267 64<408.6 556.8>
VStem: 83 235<145.678 361.5> 117 198<694 818.8> 309 74<1092.1 1233.8> 585 74<1092.1 1236.4> 593 239<149.867 483 572 849> 906 85<146 211>
LayerCount: 2
Fore
SplineSet
763 400 m 0
 805 507 828 646 828 677 c 0
 828 758 790 832 731 832 c 0
 567 832 409 520 409 309 c 0
 409 199 410 76 515 76 c 0
 572 76 696 230 763 400 c 0
697 75 m 0
 697 83 698.333 96.333 699.332 105.665 c 1
 607.332 17.665 507 -25 436 -25 c 0
 224 -25 160 155 160 271 c 0
 160 592 489 911 724 911 c 0
 832 911 876 866 898 804 c 1
 972 911 l 1
 1126 913 l 1
 968 252 l 2
 958.495 212.117 953 184 953 166 c 0
 953 142 961 133 970 133 c 0
 993 133 1033 164 1077 220 c 1
 1140 164 l 1
 1013 34 916 -25 809 -25 c 0
 704 -25 697 38 697 75 c 0
778 1267 m 0
 720 1267 667 1217 655 1161 c 0
 654 1154 653 1147 653 1140 c 0
 653 1095 683 1055 735 1055 c 0
 794 1055 846 1108 857 1161 c 0
 859 1169 859 1176 859 1183 c 0
 859 1231 826 1267 778 1267 c 0
581 1161 m 0
 600 1254 694 1331 790 1331 c 0
 873 1331 935 1273 935 1193 c 0
 935 1183 933 1172 931 1161 c 0
 913 1069 819 991 721 991 c 0
 638 991 578 1049 578 1128 c 0
 578 1139 579 1150 581 1161 c 0
EndSplineSet
EndChar

StartChar: ae
Encoding: 230 230 165
Width: 1466
GlyphClass: 2
Flags: HW
HStem: -25 102<326.6 520.3> -25 116<911.5 1185.8> 826 85<896.6 1129.3> 834 77<390.9 498.33>
VStem: 80 236<117.5 347.6> 606 235<301.6 444> 1160 244<549.4 774.3>
LayerCount: 2
Fore
SplineSet
1228 826 m 0
 1120 826 1024 694 968 532 c 1
 1190 547 1295 583 1320 695 c 0
 1322 704 1323 713 1323 722 c 0
 1323 775 1288 826 1228 826 c 0
638 211 m 0
 654.953 241.027 680 331 705 429 c 1
 504 403 390 320 369 228 c 0
 365 210 362 194 362 178 c 0
 362 118 394 77 472 77 c 0
 523 77 583.848 115.086 638 211 c 0
732 785 m 0
 708 816 682 834 658 834 c 0
 601 834 525.474 806.89 512 750 c 2
 503 712 l 1
 507 697 509 681 507 672 c 0
 499 637 446 597 367 597 c 0
 284 597 260 637 260 674 c 0
 260 682 261 689 263 696 c 0
 291 820 492 911 681 911 c 0
 730 911 875 899 942 811 c 1
 1027 874 1138 911 1249 911 c 0
 1488 911 1568 796 1568 721 c 0
 1568 714 1567 707 1566 700 c 0
 1528 538 1396 472 944 444 c 1
 934 402 930 362 930 326 c 0
 930 183 996 91 1095 91 c 0
 1181 91 1256 138 1349 224 c 1
 1422 171 l 1
 1338 59 1200 -25 1040 -25 c 0
 873 -25 795 30 754 79 c 1
 672 16 555 -25 445 -25 c 0
 232 -25 125 53 125 170 c 0
 125 186 127.067 201.985 131 219 c 0
 173.725 403.832 377 490 726 518 c 1
 744 604 752 664 752 706 c 0
 752 744 745 768 732 785 c 0
EndSplineSet
EndChar

StartChar: ccedilla
Encoding: 231 231 166
Width: 910
VWidth: 2047
GlyphClass: 2
Flags: HW
HStem: -366 52<391.373 538.6> -158 64<477.077 557.1> -25 105<389.4 641.6> 826 85<369.9 610.4>
VStem: 75 246<172.4 750.9> 574 121<-301.5 -174.1>
LayerCount: 2
Fore
SplineSet
449 -167 m 0
 421 -167 400 -174 352 -197 c 1
 333 -162 l 1
 426.456 -18.6479 l 1
 256.411 16.9762 148 194.504 148 311 c 0
 148 652 435 911 690 911 c 0
 916 911 989 794 989 692 c 0
 989 617 893 589 862 589 c 0
 773 589 752 629 752 663 c 0
 752 701.582 760 697.5 760 759 c 0
 760 820 712 832 696 832 c 0
 561 832 402 652 402 355 c 0
 402 120 497 80 550 80 c 0
 597 80 720 144 802 237 c 1
 885 168 l 1
 794.252 75.4185 693.421 -9.6008 533.213 -23.1306 c 1
 488 -97 l 1
 521 -93 l 2
 614 -93 674 -133 674 -201 c 0
 674 -209 673 -218 671 -227 c 0
 653 -318 541 -370 391 -370 c 0
 312 -370 270 -354 210 -324 c 1
 247 -278 l 1
 315 -308 366 -311 390 -311 c 0
 428 -311 495 -286 505 -236 c 0
 506 -233 506 -230 506 -227 c 0
 506 -194 469 -167 449 -167 c 0
EndSplineSet
EndChar

StartChar: egrave
Encoding: 232 232 167
Width: 972
VWidth: 2047
GlyphClass: 2
Flags: HW
HStem: -25 116<396.8 673.7> 482 95<322 642.735> 826 85<455.959 578.2> 1044 333<424 575.333>
VStem: 70 242<186.4 491.292> 281 331<1078.01 1307.4> 644 239<524 751.5>
LayerCount: 2
Fore
SplineSet
796 759 m 0
 796 812 763 832 717 832 c 0
 636 832 483 738 412 451 c 1
 563 476 796 562 796 759 c 0
1025 757 m 0
 1025 681 953 459 399 380 c 1
 397 365 397 350 397 341 c 0
 397 163 483 88 554 88 c 0
 629 88 717 153 840 285 c 1
 929 221 l 1
 813 60 667 -25 481 -25 c 0
 244 -25 141 119 141 296 c 0
 141 556 390 911 763 911 c 0
 960 911 1025 832 1025 757 c 0
765 1372 m 1
 850 1130 l 2
 854 1121 855 1109 855 1098 c 0
 855 1091 854 1084 853 1078 c 0
 849 1059 828 1044 809 1044 c 0
 796 1044 784 1054 758 1084 c 2
 569 1307 l 1
 578 1329 l 1
 596 1342 656 1377 726 1377 c 0
 736 1377 759 1375 765 1372 c 1
EndSplineSet
EndChar

StartChar: eacute
Encoding: 233 233 168
Width: 972
VWidth: 2047
GlyphClass: 2
Flags: HW
HStem: -25 116<396.8 673.7> 482 95<322 642.735> 826 85<455.959 578.2> 1032 333<431 607>
VStem: 70 242<186.4 491.292> 401 337<1056.67 1283> 644 239<524 751.5>
LayerCount: 2
Fore
SplineSet
796 759 m 0
 796 812 763 832 717 832 c 0
 636 832 483 738 412 451 c 1
 563 476 796 562 796 759 c 0
1025 757 m 0
 1025 681 953 459 399 380 c 1
 397 365 397 350 397 341 c 0
 397 163 483 88 554 88 c 0
 629 88 717 153 840 285 c 1
 929 221 l 1
 813 60 667 -25 481 -25 c 0
 244 -25 141 119 141 296 c 0
 141 556 390 911 763 911 c 0
 960 911 1025 832 1025 757 c 0
872 1360 m 1
 879 1363 893 1365 903 1365 c 0
 977 1365 988 1330 1006 1317 c 1
 1018 1269 l 1
 737 1060 l 2
 710.534 1040.32 679 1032 659 1032 c 0
 645 1032 634 1041 634 1053 c 0
 634 1059 638 1081 657 1103 c 2
 872 1360 l 1
EndSplineSet
EndChar

StartChar: ecircumflex
Encoding: 234 234 169
Width: 972
VWidth: 2047
GlyphClass: 2
Flags: HW
HStem: -25 116<396.8 673.7> 482 95<322 642.735> 826 85<455.959 578.2> 1021 301<560 717>
VStem: 70 242<186.4 491.292> 248 519<1058 1058> 644 239<524 751.5>
LayerCount: 2
Fore
SplineSet
796 759 m 0
 796 812 763 832 717 832 c 0
 636 832 483 738 412 451 c 1
 563 476 796 562 796 759 c 0
1025 757 m 0
 1025 681 953 459 399 380 c 1
 397 365 397 350 397 341 c 0
 397 163 483 88 554 88 c 0
 629 88 717 153 840 285 c 1
 929 221 l 1
 813 60 667 -25 481 -25 c 0
 244 -25 141 119 141 296 c 0
 141 556 390 911 763 911 c 0
 960 911 1025 832 1025 757 c 0
829 1322 m 1
 869 1226 926 1140 983 1058 c 1
 925 1021 l 1
 856 1076 804 1119 750 1193 c 1
 658 1115 596 1076 505 1021 c 1
 464 1058 l 1
 552 1139 648 1228 727 1322 c 1
 829 1322 l 1
EndSplineSet
EndChar

StartChar: edieresis
Encoding: 235 235 170
Width: 1004
VWidth: 2047
GlyphClass: 2
Flags: HW
HStem: -17 116<396.8 673.7> 490 95<322 642.735> 834 85<455.959 578.2> 1070 200<270.5 413.5 625.5 768.5>
VStem: 70 242<194.4 499.292> 241 201<1098.5 1241.5> 597 201<1098.5 1241.5> 644 239<532 759.5>
LayerCount: 2
Fore
SplineSet
796 767 m 0
 796 820 763 840 717 840 c 0
 636 840 483 746 412 459 c 1
 563 484 796 570 796 767 c 0
1025 765 m 0
 1025 689 953 467 399 388 c 1
 397 373 397 358 397 349 c 0
 397 171 483 96 554 96 c 0
 629 96 717 161 840 293 c 1
 929 229 l 1
 813 68 667 -17 481 -17 c 0
 244 -17 141 127 141 304 c 0
 141 564 390 919 763 919 c 0
 960 919 1025 840 1025 765 c 0
832 1148 m 0
 832 1219.85 899.831 1280 966 1280 c 0
 1019 1280 1057 1241 1057 1191 c 0
 1057 1124.57 990.729 1060 921 1060 c 0
 868 1060 832 1098 832 1148 c 0
460 1149 m 0
 460 1219.07 529.147 1280 595 1280 c 0
 649 1280 685 1242 685 1192 c 0
 685 1121.48 617.8 1060 550 1060 c 0
 498 1060 460 1099 460 1149 c 0
EndSplineSet
EndChar

StartChar: igrave
Encoding: 236 236 171
Width: 671
VWidth: 2047
GlyphClass: 2
Flags: HW
HStem: 891 20<349 424> 1044 333<201 352.333>
VStem: 58 331<1078.01 1307.4> 183 241<81.9 773.989>
LayerCount: 2
Fore
SplineSet
330 -25 m 0
 225 -25 218 38 218 75 c 0
 218 110 232 177 246 239 c 2
 353 692 l 2
 361.977 730.005 366 751 366 762 c 0
 366 773 362 775 357 775 c 0
 327 774 269 758 231 747 c 1
 232 831 l 1
 322 843 446 864 534 911 c 1
 643 911 l 1
 489 252 l 2
 480 212 474 184 474 166 c 0
 474 142 482 133 491 133 c 0
 514 133 554 164 598 220 c 1
 661 164 l 1
 534 34 437 -25 330 -25 c 0
567 1372 m 1
 652 1130 l 2
 656 1121 657 1109 657 1098 c 0
 657 1091 656 1084 655 1078 c 0
 651 1059 630 1044 611 1044 c 0
 598 1044 586 1054 560 1084 c 2
 371 1307 l 1
 380 1329 l 1
 398 1342 458 1377 528 1377 c 0
 538 1377 561 1375 567 1372 c 1
EndSplineSet
EndChar

StartChar: iacute
Encoding: 237 237 172
Width: 674
VWidth: 2047
GlyphClass: 2
Flags: HW
HStem: 891 20<349 424> 1032 333<216 392>
VStem: 183 241<81.9 773.989> 186 337<1056.67 1283>
LayerCount: 2
Fore
SplineSet
330 -25 m 0
 225 -25 218 38 218 75 c 0
 218 110 232 177 246 239 c 2
 353 692 l 2
 361.977 730.005 366 751 366 762 c 0
 366 773 362 775 357 775 c 0
 327 774 269 758 231 747 c 1
 232 831 l 1
 322 843 446 864 534 911 c 1
 643 911 l 1
 489 252 l 2
 480 212 474 184 474 166 c 0
 474 142 482 133 491 133 c 0
 514 133 554 164 598 220 c 1
 661 164 l 1
 534 34 437 -25 330 -25 c 0
682 1360 m 1
 689 1363 703 1365 713 1365 c 0
 787 1365 798 1330 816 1317 c 1
 828 1269 l 1
 547 1060 l 2
 520.534 1040.32 489 1032 469 1032 c 0
 455 1032 444 1041 444 1053 c 0
 444 1059 448 1081 467 1103 c 2
 682 1360 l 1
EndSplineSet
EndChar

StartChar: icircumflex
Encoding: 238 238 173
Width: 674
VWidth: 2047
GlyphClass: 2
Flags: HW
HStem: 891 20<349 424> 1021 301<336 493>
VStem: 24 519<1058 1058> 183 241<81.9 773.989>
LayerCount: 2
Fore
SplineSet
330 -25 m 0
 225 -25 218 38 218 75 c 0
 218 110 232 177 246 239 c 2
 353 692 l 2
 361.977 730.005 366 751 366 762 c 0
 366 773 362 775 357 775 c 0
 327 774 269 758 231 747 c 1
 232 831 l 1
 322 843 446 864 534 911 c 1
 643 911 l 1
 489 252 l 2
 480 212 474 184 474 166 c 0
 474 142 482 133 491 133 c 0
 514 133 554 164 598 220 c 1
 661 164 l 1
 534 34 437 -25 330 -25 c 0
639 1322 m 1
 679 1226 736 1140 793 1058 c 1
 735 1021 l 1
 666 1076 614 1119 560 1193 c 1
 468 1115 406 1076 315 1021 c 1
 274 1058 l 1
 362 1139 458 1228 537 1322 c 1
 639 1322 l 1
EndSplineSet
EndChar

StartChar: idieresis
Encoding: 239 239 174
Width: 664
VWidth: 2047
GlyphClass: 2
Flags: HW
HStem: -25 21<297.5 403.5> 747 84<231 287.357> 891 20<534 643> 1060 220<343 455.3 712.7 825>
VStem: 286 597<1149 1191 1149 1191>
LayerCount: 2
Fore
SplineSet
330 -25 m 0
 225 -25 218 38 218 75 c 0
 218 110 232 177 246 239 c 2
 353 692 l 2
 361.977 730.005 366 751 366 762 c 0
 366 773 362 775 357 775 c 0
 327 774 269 758 231 747 c 1
 232 831 l 1
 322 843 446 864 534 911 c 1
 643 911 l 1
 489 252 l 2
 480 212 474 184 474 166 c 0
 474 142 482 133 491 133 c 0
 514 133 554 164 598 220 c 1
 661 164 l 1
 534 34 437 -25 330 -25 c 0
658 1148 m 0
 658 1219.85 725.831 1280 792 1280 c 0
 845 1280 883 1241 883 1191 c 0
 883 1124.57 816.729 1060 747 1060 c 0
 694 1060 658 1098 658 1148 c 0
286 1149 m 0
 286 1219.07 355.147 1280 421 1280 c 0
 475 1280 511 1242 511 1192 c 0
 511 1121.48 443.8 1060 376 1060 c 0
 324 1060 286 1099 286 1149 c 0
EndSplineSet
EndChar

StartChar: eth
Encoding: 240 240 175
Width: 1050
GlyphClass: 2
Flags: HW
HStem: -25 95<377.6 632.4> 825 86<308.3 608.659>
VStem: 70 246<170.2 660.3> 727 253<40.1 610.498>
LayerCount: 2
Fore
SplineSet
547 70 m 0
 625 70 759 137 833 460 c 0
 852 543 862 624 862 698 c 0
 862 710 862 722 861 734 c 1
 869 731 l 1
 836 786 782 825 718 825 c 0
 549 825 458 615 423 464 c 0
 410 407 404 354 404 307 c 0
 404 164 459 70 547 70 c 0
169 428 m 0
 251 785 557 911 742 911 c 0
 776 911 810 908 842 902 c 1
 822 996 794 1075 757 1146 c 1
 674 1098 568 1037 497 996 c 1
 454 1094 l 1
 702 1237 l 1
 694 1247 688 1256 681 1266 c 0
 642 1315 604 1358 565 1391 c 1
 632 1460 l 1
 716 1409 787 1361 836 1315 c 1
 918 1363 1027 1426 1100 1469 c 1
 1145 1371 l 1
 914 1237 l 1
 922 1226 931 1217 939 1207 c 0
 1043 1069 1116 894 1116 691 c 0
 1116 626 1109 559 1093 489 c 0
 1012 140 742 -25 491 -25 c 0
 258 -25 156 140 156 317 c 0
 156 354 160 391 169 428 c 0
EndSplineSet
EndChar

StartChar: ntilde
Encoding: 241 241 176
Width: 1188
VWidth: 2047
GlyphClass: 2
Flags: HW
HStem: 797 114<569.3 728> 1070 106<733.3 841.2> 1169 110<446.1 561.8>
VStem: 171 241<81.6 681.212> 367 568<1089 1263> 723 241<99 776.7>
LayerCount: 2
Fore
SplineSet
759 239 m 2
 833 574 l 2
 847.179 638.187 855 678 855 708 c 0
 855 766 836 795 816 795 c 0
 764.132 795 678.521 781.219 531 588 c 1
 404 35 l 1
 177 -40 l 1
 159 9 l 1
 309 654 l 2
 322.513 712.107 331.557 751.038 331.557 768.502 c 0
 331.557 775.452 330.132 779 327 779 c 0
 315.665 777.381 262.582 773 256 773 c 0
 223 773 203 779 203 789 c 0
 203 790 209 828 213 851 c 1
 233 851 414 875 504 911 c 1
 607 911 l 1
 571 759 l 1
 709 886 815 911 914 911 c 0
 1016 911 1103 868 1103 741 c 0
 1103 707 1092 657 1075 584 c 0
 1051 475 1002 252 1002 252 c 2
 993.201 211.956 987 184 987 166 c 0
 987 142 995 133 1004 133 c 0
 1027 133 1067 164 1111 220 c 1
 1174 164 l 1
 1047 34 950 -25 843 -25 c 0
 738 -25 731 38 731 75 c 0
 731 110 745.29 176.935 759 239 c 2
1006 1176 m 0
 1050 1176 1079 1196 1125 1291 c 1
 1175 1272 l 1
 1125 1137 1052 1059 957 1059 c 0
 912 1059 875 1088 838 1118 c 0
 805 1144 772 1168 736 1168 c 0
 683 1168 654 1140 620 1065 c 1
 571 1080 l 1
 624 1213 684 1289 772 1289 c 0
 835 1289 874 1257 908 1227 c 0
 937 1200 967 1176 1006 1176 c 0
EndSplineSet
EndChar

StartChar: ograve
Encoding: 242 242 177
Width: 1040
VWidth: 2047
GlyphClass: 2
Flags: HW
HStem: -25 88<344.3 658.9> 828 83<341.7 692.7> 1044 333<493 644.333>
VStem: 70 250<271.1 694.9> 350 331<1078.01 1307.4> 746 247<172.9 721.5>
LayerCount: 2
Fore
SplineSet
406 354 m 0
 406 102 507 63 555 63 c 0
 767 63 826 427 826 557 c 0
 826 683 803 828 683 828 c 0
 483 828 406 533 406 354 c 0
147 337 m 0
 147 583 353 911 720 911 c 0
 1004 911 1079 719 1079 571 c 0
 1079 247 785 -25 504 -25 c 0
 210 -25 147 228 147 337 c 0
762 1372 m 1
 847 1130 l 2
 851 1121 852 1109 852 1098 c 0
 852 1091 851 1084 850 1078 c 0
 846 1059 825 1044 806 1044 c 0
 793 1044 781 1054 755 1084 c 2
 566 1307 l 1
 575 1329 l 1
 593 1342 653 1377 723 1377 c 0
 733 1377 756 1375 762 1372 c 1
EndSplineSet
EndChar

StartChar: oacute
Encoding: 243 243 178
Width: 1040
VWidth: 2047
GlyphClass: 2
Flags: HW
HStem: -25 88<344.3 658.9> 828 83<341.7 692.7> 1032 333<472 648>
VStem: 70 250<271.1 694.9> 442 337<1056.67 1283> 746 247<172.9 721.5>
LayerCount: 2
Fore
SplineSet
406 354 m 0
 406 102 507 63 555 63 c 0
 767 63 826 427 826 557 c 0
 826 683 803 828 683 828 c 0
 483 828 406 533 406 354 c 0
147 337 m 0
 147 583 353 911 720 911 c 0
 1004 911 1079 719 1079 571 c 0
 1079 247 785 -25 504 -25 c 0
 210 -25 147 228 147 337 c 0
753 1360 m 1
 760 1363 774 1365 784 1365 c 0
 858 1365 869 1330 887 1317 c 1
 899 1269 l 1
 618 1060 l 2
 591.534 1040.32 560 1032 540 1032 c 0
 526 1032 515 1041 515 1053 c 0
 515 1059 519 1081 538 1103 c 2
 753 1360 l 1
EndSplineSet
EndChar

StartChar: ocircumflex
Encoding: 244 244 179
Width: 1040
VWidth: 2047
GlyphClass: 2
Flags: HW
HStem: -25 88<344.3 658.9> 828 83<341.7 692.7> 1020 301<578 735>
VStem: 70 250<271.1 694.9> 266 519<1057 1057> 746 247<172.9 721.5>
LayerCount: 2
Fore
SplineSet
406 354 m 0
 406 102 507 63 555 63 c 0
 767 63 826 427 826 557 c 0
 826 683 803 828 683 828 c 0
 483 828 406 533 406 354 c 0
147 337 m 0
 147 583 353 911 720 911 c 0
 1004 911 1079 719 1079 571 c 0
 1079 247 785 -25 504 -25 c 0
 210 -25 147 228 147 337 c 0
824.5 1321 m 1
 864.5 1225 921.5 1139 978.5 1057 c 1
 920.5 1020 l 1
 851.5 1075 799.5 1118 745.5 1192 c 1
 653.5 1114 591.5 1075 500.5 1020 c 1
 459.5 1057 l 1
 547.5 1138 643.5 1227 722.5 1321 c 1
 824.5 1321 l 1
EndSplineSet
EndChar

StartChar: otilde
Encoding: 245 245 180
Width: 1040
VWidth: 2047
GlyphClass: 2
Flags: HW
HStem: -25 88<344.3 658.9> 828 83<341.7 692.7> 1070 106<604.3 712.2> 1169 110<317.1 432.8>
VStem: 70 250<271.1 694.9> 238 568<1089 1263> 746 247<172.9 721.5>
LayerCount: 2
Fore
SplineSet
406 354 m 0
 406 102 507 63 555 63 c 0
 767 63 826 427 826 557 c 0
 826 683 803 828 683 828 c 0
 483 828 406 533 406 354 c 0
147 337 m 0
 147 583 353 911 720 911 c 0
 1004 911 1079 719 1079 571 c 0
 1079 247 785 -25 504 -25 c 0
 210 -25 147 228 147 337 c 0
844 1176 m 0
 888 1176 917 1196 963 1291 c 1
 1013 1272 l 1
 963 1137 890 1059 795 1059 c 0
 750 1059 713 1088 676 1118 c 0
 643 1144 610 1168 574 1168 c 0
 521 1168 492 1140 458 1065 c 1
 409 1080 l 1
 462 1213 522 1289 610 1289 c 0
 673 1289 712 1257 746 1227 c 0
 775 1200 805 1176 844 1176 c 0
EndSplineSet
EndChar

StartChar: odieresis
Encoding: 246 246 181
Width: 1040
GlyphClass: 2
Flags: HW
HStem: -25 88<364.3 678.9> 828 83<361.7 712.7> 1069 200<301.5 444.5 656.5 799.5>
VStem: 90 250<271.1 694.9> 272 201<1097.5 1240.5> 628 201<1097.5 1240.5> 766 247<172.9 721.5>
LayerCount: 2
Fore
SplineSet
406 354 m 0
 406 102 507 63 555 63 c 0
 767 63 826 427 826 557 c 0
 826 683 803 828 683 828 c 0
 483 828 406 533 406 354 c 0
147 337 m 0
 147 583 353 911 720 911 c 0
 1004 911 1079 719 1079 571 c 0
 1079 247 785 -25 504 -25 c 0
 210 -25 147 228 147 337 c 0
782.5 1147 m 0
 782.5 1218.85 850.331 1279 916.5 1279 c 0
 969.5 1279 1007.5 1240 1007.5 1190 c 0
 1007.5 1123.57 941.229 1059 871.5 1059 c 0
 818.5 1059 782.5 1097 782.5 1147 c 0
410.5 1148 m 0
 410.5 1218.07 479.647 1279 545.5 1279 c 0
 599.5 1279 635.5 1241 635.5 1191 c 0
 635.5 1120.48 568.3 1059 500.5 1059 c 0
 448.5 1059 410.5 1098 410.5 1148 c 0
EndSplineSet
EndChar

StartChar: divide
Encoding: 247 247 182
Width: 1130
VWidth: 2047
GlyphClass: 2
Flags: HW
HStem: 105.047 191.096<520.891 658.179> 419 119<156 1024> 655.047 191.096<520.891 658.179>
VStem: 493.987 191.096<683.04 819.238> 493.987 191.096<133.04 269.238>
LayerCount: 2
Fore
SplineSet
646.697 750.595 m 0
 657.44 803.397 708.882 846.143 761.685 846.143 c 0
 807.917 846.143 839.773 813.372 839.773 769.774 c 0
 839.773 763.578 839.13 757.165 837.793 750.595 c 0
 827.221 698.63 775.608 655.047 722.806 655.047 c 0
 676.513 655.047 644.766 688.546 644.766 731.824 c 0
 644.766 737.909 645.394 744.188 646.697 750.595 c 0
534.799 200.595 m 0
 545.542 253.397 596.983 296.143 649.786 296.143 c 0
 696.019 296.143 727.875 263.372 727.875 219.774 c 0
 727.875 213.579 727.232 207.165 725.895 200.595 c 0
 715.322 148.63 663.71 105.047 610.907 105.047 c 0
 564.614 105.047 532.868 138.546 532.868 181.823 c 0
 532.868 187.909 533.496 194.188 534.799 200.595 c 0
1133.46 538 m 1
 1109.25 419 l 1
 241.246 419 l 1
 265.457 538 l 1
 1133.46 538 l 1
EndSplineSet
EndChar

StartChar: oslash
Encoding: 248 248 183
Width: 1063
VWidth: 2047
GlyphClass: 2
Flags: HW
HStem: -62 996<184 883> -25 88<344.3 658.9> 828 83<341.7 692.7>
VStem: 70 250<271.1 694.9> 114 841<0 878> 746 247<172.9 721.5>
LayerCount: 2
Fore
SplineSet
1099 934 m 1
 1158 878 l 1
 1032.28 758.386 l 1
 1066.47 699.313 1079 631.483 1079 571 c 0
 1079 247 785 -25 504 -25 c 0
 406.439 -25 334.315 2.85997 281.489 44.0728 c 1
 170 -62 l 1
 114 0 l 1
 223.387 103.724 l 1
 164.361 182.877 147 279.78 147 337 c 0
 147 583 353 911 720 911 c 0
 842.537 911 926.166 875.256 981.649 822.725 c 1
 1099 934 l 1
818.322 667.855 m 1
 804.38 755.151 768.057 828 683 828 c 0
 483 828 406 533 406 354 c 0
 406 326.955 407.163 302.363 409.3 280.01 c 1
 818.322 667.855 l 1
825.987 562.117 m 1
 427.984 183.451 l 1
 460.445 82.5559 521.01 63 555 63 c 0
 767 63 826 427 826 557 c 0
 826 558.702 825.996 560.408 825.987 562.117 c 1
EndSplineSet
EndChar

StartChar: ugrave
Encoding: 249 249 184
Width: 1149
VWidth: 2047
GlyphClass: 2
Flags: HW
HStem: -25 107<473.1 577.1> 814 70<599.979 723.8> 1046 333<482 633.333>
VStem: 179 240<72.1 782.301> 339 331<1080.01 1309.4> 718 240<181.771 786.456>
LayerCount: 2
Fore
SplineSet
576 647 m 2
 488 309 l 2
 476.447 264.624 469 208 469 177 c 0
 469 123 477 96 509 96 c 0
 570 96 755.492 215.118 818 484 c 2
 818 484 881 755 911 886 c 1
 951 886 1088 902 1154 913 c 1
 995 252 l 2
 986 212 980 184 980 166 c 0
 980 142 988 133 997 133 c 0
 1020 133 1060 164 1104 220 c 1
 1167 164 l 1
 1040 34 943 -25 836 -25 c 0
 731 -25 724 38 724 75 c 0
 724 83 730 112 747 158 c 1
 628 25 517 -25 410 -25 c 0
 264 -25 221 21 221 126 c 0
 221 164 234.37 250.44 243 284 c 2
 333 634 l 2
 343.153 673.483 348 702 348 720 c 0
 348 744 340 753 331 753 c 0
 308 753 268 722 224 666 c 1
 161 722 l 1
 288 852 385 911 492 911 c 0
 597 911 604 848 604 811 c 0
 604 776 591.918 708.14 576 647 c 2
823 1374 m 1
 908 1132 l 2
 912 1123 913 1111 913 1100 c 0
 913 1093 912 1086 911 1080 c 0
 907 1061 886 1046 867 1046 c 0
 854 1046 842 1056 816 1086 c 2
 627 1309 l 1
 636 1331 l 1
 654 1344 714 1379 784 1379 c 0
 794 1379 817 1377 823 1374 c 1
EndSplineSet
EndChar

StartChar: uacute
Encoding: 250 250 185
Width: 1149
VWidth: 2047
GlyphClass: 2
Flags: HW
HStem: -25 107<473.1 577.1> 814 70<599.979 723.8> 1027 333<526 702>
VStem: 179 240<72.1 782.301> 496 337<1051.67 1278> 718 240<181.771 786.456>
LayerCount: 2
Fore
SplineSet
576 647 m 2
 488 309 l 2
 476.447 264.624 469 208 469 177 c 0
 469 123 477 96 509 96 c 0
 570 96 755.492 215.118 818 484 c 2
 818 484 881 755 911 886 c 1
 951 886 1088 902 1154 913 c 1
 995 252 l 2
 986 212 980 184 980 166 c 0
 980 142 988 133 997 133 c 0
 1020 133 1060 164 1104 220 c 1
 1167 164 l 1
 1040 34 943 -25 836 -25 c 0
 731 -25 724 38 724 75 c 0
 724 83 730 112 747 158 c 1
 628 25 517 -25 410 -25 c 0
 264 -25 221 21 221 126 c 0
 221 164 234.37 250.44 243 284 c 2
 333 634 l 2
 343.153 673.483 348 702 348 720 c 0
 348 744 340 753 331 753 c 0
 308 753 268 722 224 666 c 1
 161 722 l 1
 288 852 385 911 492 911 c 0
 597 911 604 848 604 811 c 0
 604 776 591.918 708.14 576 647 c 2
898 1355 m 1
 905 1358 919 1360 929 1360 c 0
 1003 1360 1014 1325 1032 1312 c 1
 1044 1264 l 1
 763 1055 l 2
 736.534 1035.32 705 1027 685 1027 c 0
 671 1027 660 1036 660 1048 c 0
 660 1054 664 1076 683 1098 c 2
 898 1355 l 1
EndSplineSet
EndChar

StartChar: ucircumflex
Encoding: 251 251 186
Width: 1149
VWidth: 2047
GlyphClass: 2
Flags: HW
HStem: -25 107<473.1 577.1> 814 70<599.979 723.8> 1021 301<620 777>
VStem: 179 240<72.1 782.301> 308 519<1058 1058> 718 240<181.771 786.456>
LayerCount: 2
Fore
SplineSet
576 647 m 2
 488 309 l 2
 476.447 264.624 469 208 469 177 c 0
 469 123 477 96 509 96 c 0
 570 96 755.492 215.118 818 484 c 2
 818 484 881 755 911 886 c 1
 951 886 1088 902 1154 913 c 1
 995 252 l 2
 986 212 980 184 980 166 c 0
 980 142 988 133 997 133 c 0
 1020 133 1060 164 1104 220 c 1
 1167 164 l 1
 1040 34 943 -25 836 -25 c 0
 731 -25 724 38 724 75 c 0
 724 83 730 112 747 158 c 1
 628 25 517 -25 410 -25 c 0
 264 -25 221 21 221 126 c 0
 221 164 234.37 250.44 243 284 c 2
 333 634 l 2
 343.153 673.483 348 702 348 720 c 0
 348 744 340 753 331 753 c 0
 308 753 268 722 224 666 c 1
 161 722 l 1
 288 852 385 911 492 911 c 0
 597 911 604 848 604 811 c 0
 604 776 591.918 708.14 576 647 c 2
898 1322 m 1
 938 1226 995 1140 1052 1058 c 1
 994 1021 l 1
 925 1076 873 1119 819 1193 c 1
 727 1115 665 1076 574 1021 c 1
 533 1058 l 1
 621 1139 717 1228 796 1322 c 1
 898 1322 l 1
EndSplineSet
EndChar

StartChar: udieresis
Encoding: 252 252 187
Width: 1149
VWidth: 2047
GlyphClass: 3
Flags: HW
HStem: -25 107<473.1 577.1> 814 70<599.979 723.8> 1069 200<323.5 466.5 678.5 821.5>
VStem: 179 240<72.1 782.301> 294 201<1097.5 1240.5> 650 201<1097.5 1240.5> 718 240<181.771 786.456>
LayerCount: 2
Fore
SplineSet
576 647 m 2
 488 309 l 2
 476.447 264.624 469 208 469 177 c 0
 469 123 477 96 509 96 c 0
 570 96 755.492 215.118 818 484 c 2
 818 484 881 755 911 886 c 1
 951 886 1088 902 1154 913 c 1
 995 252 l 2
 986 212 980 184 980 166 c 0
 980 142 988 133 997 133 c 0
 1020 133 1060 164 1104 220 c 1
 1167 164 l 1
 1040 34 943 -25 836 -25 c 0
 731 -25 724 38 724 75 c 0
 724 83 730 112 747 158 c 1
 628 25 517 -25 410 -25 c 0
 264 -25 221 21 221 126 c 0
 221 164 234.37 250.44 243 284 c 2
 333 634 l 2
 343.153 673.483 348 702 348 720 c 0
 348 744 340 753 331 753 c 0
 308 753 268 722 224 666 c 1
 161 722 l 1
 288 852 385 911 492 911 c 0
 597 911 604 848 604 811 c 0
 604 776 591.918 708.14 576 647 c 2
885 1147 m 0
 885 1218.85 952.831 1279 1019 1279 c 0
 1072 1279 1110 1240 1110 1190 c 0
 1110 1123.57 1043.73 1059 974 1059 c 0
 921 1059 885 1097 885 1147 c 0
513 1148 m 0
 513 1218.07 582.147 1279 648 1279 c 0
 702 1279 738 1241 738 1191 c 0
 738 1120.48 670.8 1059 603 1059 c 0
 551 1059 513 1098 513 1148 c 0
EndSplineSet
EndChar

StartChar: yacute
Encoding: 253 253 188
Width: 1046
VWidth: 2047
GlyphClass: 2
Flags: HW
HStem: -435 126<238.4 340.5> 818 65<18.0864 117.712 406 500.573 676.51 788.88 973.95 1071.78> 1031 333<521 697>
VStem: 491 337<1055.67 1282>
LayerCount: 2
Fore
SplineSet
193 -448 m 0
 146 -448 53 -430 53 -358 c 0
 53 -322 65 -255 186 -255 c 0
 231.873 -255 261.105 -287.296 298.44 -287.296 c 0
 336.798 -287.296 383.707 -253.21 466 -115 c 2
 519.292 -30.0938 l 1
 471.867 231.18 359 747 359 747 c 2
 355.523 759.17 350.332 763.799 344.062 763.799 c 0
 324.132 763.799 293.301 717 272 717 c 0
 219.539 717 198 757 193 771 c 1
 222 807 308 911 423 911 c 0
 518 911 567 867 595 761 c 0
 643 563 669 448 700 276 c 1
 754 366 861 542 861 542 c 2
 898.572 604.075 912 642 912 679 c 0
 912 752 859 743 859 811 c 0
 859 897 916 911 988 911 c 0
 1062 911 1115 859 1115 784 c 0
 1115 731 1090 658 997 499 c 2
 613 -138 l 2
 489.84 -342.305 318 -448 193 -448 c 0
847 1359 m 1
 854 1362 868 1364 878 1364 c 0
 952 1364 963 1329 981 1316 c 1
 993 1268 l 1
 712 1059 l 2
 685.534 1039.32 654 1031 634 1031 c 0
 620 1031 609 1040 609 1052 c 0
 609 1058 613 1080 632 1102 c 2
 847 1359 l 1
EndSplineSet
EndChar

StartChar: thorn
Encoding: 254 254 189
Width: 1095
GlyphClass: 2
Flags: HW
HStem: -464 70<23.1227 152 401.1 524.297> -25 86<480.585 706.5> 802 109<507.7 628> 1409 20G<296 401>
VStem: 161 240<-365 -7 835 1323.95> 757 248<276 591.5>
LayerCount: 2
Fore
SplineSet
550 645 m 1
 433 139 l 1
 423 144 l 1
 473 65 522 61 546 61 c 0
 726 61 816 257 856 429 c 0
 869 487 879 545 879 598 c 0
 879 659 866 714 835 756 c 0
 813 784 789 802 759 802 c 0
 708 802 613 746 546 642 c 1
 550 645 l 1
731 1429 m 1
 594 835 l 1
 634 863 715 911 838 911 c 0
 1025 911 1129 764 1129 589 c 0
 1129 555 1125 520 1117 484 c 0
 1080 324 994 195 871 95 c 0
 772 15 663 -25 538 -25 c 0
 481 -25 438 -20 399 -7 c 1
 329 -313 l 2
 325 -331 322 -346 322 -358 c 0
 322 -381 331 -394 353 -394 c 2
 391 -394 l 2
 424 -394 451 -403 447 -418 c 2
 440 -449 l 1
 416 -469 l 1
 416 -469 250 -464 171 -464 c 0
 98 -464 -69 -469 -69 -469 c 1
 -85 -449 l 1
 -78 -418 l 2
 -74 -403 -49 -394 -11 -394 c 2
 27 -394 l 2
 61 -394 76.9923 -364.998 89 -313 c 2
 431 1168 l 2
 446 1236 453 1273 453 1292 c 0
 453 1300 451 1305 449 1307 c 1
 435 1306 415.989 1303.13 403 1302 c 2
 380 1300 l 2
 349 1300 326.057 1306.99 328 1318 c 0
 331 1335 335 1361 338 1378 c 1
 392 1378 482 1388 519 1395 c 0
 547 1400 577 1409 626 1429 c 1
 731 1429 l 1
EndSplineSet
EndChar

StartChar: ydieresis
Encoding: 255 255 190
Width: 1046
VWidth: 2047
GlyphClass: 2
Flags: HW
HStem: -435 126<213.4 315.5> 818 65<-6.9136 92.712 381 475.573 651.51 763.88 948.95 1046.78> 1070 200<335.5 478.5 690.5 833.5>
VStem: 306 201<1098.5 1241.5> 662 201<1098.5 1241.5>
LayerCount: 2
Fore
SplineSet
193 -448 m 0
 146 -448 53 -430 53 -358 c 0
 53 -322 65 -255 186 -255 c 0
 231.873 -255 261.105 -287.296 298.44 -287.296 c 0
 336.798 -287.296 383.707 -253.21 466 -115 c 2
 519.292 -30.0938 l 1
 471.867 231.18 359 747 359 747 c 2
 355.523 759.17 350.332 763.799 344.062 763.799 c 0
 324.132 763.799 293.301 717 272 717 c 0
 219.539 717 198 757 193 771 c 1
 222 807 308 911 423 911 c 0
 518 911 567 867 595 761 c 0
 643 563 669 448 700 276 c 1
 754 366 861 542 861 542 c 2
 898.572 604.075 912 642 912 679 c 0
 912 752 859 743 859 811 c 0
 859 897 916 911 988 911 c 0
 1062 911 1115 859 1115 784 c 0
 1115 731 1090 658 997 499 c 2
 613 -138 l 2
 489.84 -342.305 318 -448 193 -448 c 0
827.5 1148 m 0
 827.5 1219.85 895.331 1280 961.5 1280 c 0
 1014.5 1280 1052.5 1241 1052.5 1191 c 0
 1052.5 1124.57 986.229 1060 916.5 1060 c 0
 863.5 1060 827.5 1098 827.5 1148 c 0
455.5 1149 m 0
 455.5 1219.07 524.647 1280 590.5 1280 c 0
 644.5 1280 680.5 1242 680.5 1192 c 0
 680.5 1121.48 613.3 1060 545.5 1060 c 0
 493.5 1060 455.5 1099 455.5 1149 c 0
EndSplineSet
EndChar

StartChar: Amacron
Encoding: 256 256 191
Width: 1473
VWidth: 2047
GlyphClass: 2
Flags: HW
HStem: 2 70<6.24831 139.3 316.4 457.82 832.123 979 1277.7 1408.18> 494 95<504.128 829> 1328 20<707.667 752> 1484 98<448 1029.4>
LayerCount: 2
Fore
SplineSet
647 589 m 2
 962 589 l 1
 930 759 913 837 879 1012 c 1
 801 879 721 747 643 614 c 1
 641 600 l 2
 641 598 640 596 640 595 c 0
 640 591 643 589 647 589 c 2
369 150 m 2
 359.914 134.744 356 115.88 356 106 c 0
 356 83 372 72 400 72 c 2
 458 72 l 2
 491 72 517 63 514 47 c 2
 509 17 l 1
 486 -3 l 1
 486 -3 257 2 208 2 c 0
 156 2 37 -3 37 -3 c 1
 21 17 l 1
 26 47 l 2
 29 63 54 72 92 72 c 2
 115 72 l 2
 166 72 202 113 241 175 c 0
 439 502 909 1284 909 1284 c 2
 927.023 1313.99 963 1348 986 1348 c 0
 1052 1348 1067 1328 1076 1284 c 2
 1297 186 l 2
 1312.29 110.057 1335 72 1386 72 c 2
 1408 72 l 2
 1437 72 1468 64 1468 47 c 1
 1463 16 l 1
 1425 -2 l 1
 1425 -2 1254 2 1175 2 c 0
 1103 2 876 -3 876 -3 c 1
 860 17 l 1
 865 47 l 2
 868 63 893 72 931 72 c 2
 987 72 l 2
 1032.47 72 1047.72 116.64 1047.72 141.541 c 0
 1047.72 144.729 1047.47 147.594 1047 150 c 2
 980 494 l 1
 593 494 l 2
 577 494 569 485 556 464 c 2
 369 150 l 2
1260 1484 m 2
 719 1484 l 2
 704 1484 698 1496 698 1508 c 0
 698 1511 698 1514 699 1517 c 0
 704 1543 735 1582 761 1582 c 2
 1302 1582 l 2
 1320 1582 1326 1570 1326 1557 c 0
 1326 1554 1326 1552 1325 1549 c 0
 1320 1523 1288 1484 1260 1484 c 2
EndSplineSet
EndChar

StartChar: amacron
Encoding: 257 257 192
Width: 1107
GlyphClass: 2
Flags: HW
HStem: -25 92<301.6 478.209> -25 116<778 889.1> 834 77<362.9 528> 1099 98<187 768.4>
VStem: 83 235<145.678 361.5> 117 198<694 818.8> 593 239<149.867 483 572 849> 906 85<146 211>
LayerCount: 2
Fore
SplineSet
763 400 m 0
 805 507 828 646 828 677 c 0
 828 758 790 832 731 832 c 0
 567 832 409 520 409 309 c 0
 409 199 410 76 515 76 c 0
 572 76 696 230 763 400 c 0
697 75 m 0
 697 83 698.333 96.333 699.332 105.665 c 1
 607.332 17.665 507 -25 436 -25 c 0
 224 -25 160 155 160 271 c 0
 160 592 489 911 724 911 c 0
 832 911 876 866 898 804 c 1
 972 911 l 1
 1126 913 l 1
 968 252 l 2
 958.495 212.117 953 184 953 166 c 0
 953 142 961 133 970 133 c 0
 993 133 1033 164 1077 220 c 1
 1140 164 l 1
 1013 34 916 -25 809 -25 c 0
 704 -25 697 38 697 75 c 0
1000 1099 m 2
 459 1099 l 2
 444 1099 438 1111 438 1123 c 0
 438 1126 438 1129 439 1132 c 0
 444 1158 475 1197 501 1197 c 2
 1042 1197 l 2
 1060 1197 1066 1185 1066 1172 c 0
 1066 1169 1066 1167 1065 1164 c 0
 1060 1138 1028 1099 1000 1099 c 2
EndSplineSet
EndChar

StartChar: Abreve
Encoding: 258 258 193
Width: 1473
VWidth: 2047
GlyphClass: 2
Flags: HW
HStem: 2 70<306.248 439.3 616.4 757.82 1132.12 1279 1577.7 1708.18> 494 95<804.128 1129> 1328 20<1007.67 1052> 1416 112<898.3 1170> 1628 20<761 823 1255 1315>
VStem: 761 554<1550.82 1648 1648 1648>
LayerCount: 2
Fore
SplineSet
647 589 m 2
 962 589 l 1
 930 759 913 837 879 1012 c 1
 801 879 721 747 643 614 c 1
 641 600 l 2
 641 598 640 596 640 595 c 0
 640 591 643 589 647 589 c 2
369 150 m 2
 359.914 134.744 356 115.88 356 106 c 0
 356 83 372 72 400 72 c 2
 458 72 l 2
 491 72 517 63 514 47 c 2
 509 17 l 1
 486 -3 l 1
 486 -3 257 2 208 2 c 0
 156 2 37 -3 37 -3 c 1
 21 17 l 1
 26 47 l 2
 29 63 54 72 92 72 c 2
 115 72 l 2
 166 72 202 113 241 175 c 0
 439 502 909 1284 909 1284 c 2
 927.023 1313.99 963 1348 986 1348 c 0
 1052 1348 1067 1328 1076 1284 c 2
 1297 186 l 2
 1312.29 110.057 1335 72 1386 72 c 2
 1408 72 l 2
 1437 72 1468 64 1468 47 c 1
 1463 16 l 1
 1425 -2 l 1
 1425 -2 1254 2 1175 2 c 0
 1103 2 876 -3 876 -3 c 1
 860 17 l 1
 865 47 l 2
 868 63 893 72 931 72 c 2
 987 72 l 2
 1032.47 72 1047.72 116.64 1047.72 141.541 c 0
 1047.72 144.729 1047.47 147.594 1047 150 c 2
 980 494 l 1
 593 494 l 2
 577 494 569 485 556 464 c 2
 369 150 l 2
1328 1648 m 1
 1293 1502 1150 1416 1016 1416 c 0
 873 1416 773 1496 773 1626 c 0
 773 1633 774 1641 774 1648 c 1
 836 1648 l 1
 841 1568 925 1528 1034 1528 c 0
 1134 1528 1242 1568 1268 1648 c 1
 1328 1648 l 1
EndSplineSet
EndChar

StartChar: abreve
Encoding: 259 259 194
Width: 1107
VWidth: 2047
GlyphClass: 2
Flags: HW
HStem: -25 92<298.6 475.209> -25 116<775 886.1> 834 77<359.9 525> 1019 127<325.8 609.2>
VStem: 80 235<145.678 361.5> 114 198<694 818.8> 209 65<1186.39 1322.77> 590 239<149.867 483 572 849> 698 64<1190.09 1329> 903 85<146 211>
LayerCount: 2
Fore
SplineSet
763 400 m 0
 805 507 828 646 828 677 c 0
 828 758 790 832 731 832 c 0
 567 832 409 520 409 309 c 0
 409 199 410 76 515 76 c 0
 572 76 696 230 763 400 c 0
697 75 m 0
 697 83 698.333 96.333 699.332 105.665 c 1
 607.332 17.665 507 -25 436 -25 c 0
 224 -25 160 155 160 271 c 0
 160 592 489 911 724 911 c 0
 832 911 876 866 898 804 c 1
 972 911 l 1
 1126 913 l 1
 968 252 l 2
 958.495 212.117 953 184 953 166 c 0
 953 142 961 133 970 133 c 0
 993 133 1033 164 1077 220 c 1
 1140 164 l 1
 1013 34 916 -25 809 -25 c 0
 704 -25 697 38 697 75 c 0
543 1329 m 1
 542 1318 541 1308 541 1298 c 0
 541 1209 608 1146 719 1146 c 0
 813 1146 937 1202 967 1329 c 1
 1026 1301 l 1
 964 1095 795 1019 693 1019 c 0
 549 1019 470 1121 470 1259 c 0
 470 1272 471 1287 473 1301 c 1
 543 1329 l 1
EndSplineSet
EndChar

StartChar: Aogonek
Encoding: 260 260 195
Width: 1473
VWidth: 2047
GlyphClass: 2
Flags: HW
HStem: -461 81<1132.8 1272.37> 2 70<6.24831 139.3 316.4 457.82 832.123 979 1277.7 1408.18> 494 95<504.128 829> 1328 20<707.667 752>
VStem: 987 123<-345.5 -123.2>
LayerCount: 2
Fore
SplineSet
1178 -461 m 0
 1068 -461 987 -398 987 -286 c 0
 987 -187.052 1071.68 -65.9647 1198.64 1.90676 c 1
 1190.13 1.96691 1182.18 1.99999 1175 2 c 0
 1103 2 876 -3 876 -3 c 1
 860 17 l 1
 865 47 l 2
 868 63 893 72 931 72 c 2
 987 72 l 2
 1032.47 72 1047.72 116.64 1047.72 141.541 c 0
 1047.72 144.729 1047.47 147.594 1047 150 c 2
 980 494 l 1
 593 494 l 2
 577 494 569 485 556 464 c 2
 369 150 l 2
 359.914 134.744 356 115.88 356 106 c 0
 356 83 372 72 400 72 c 2
 458 72 l 2
 491 72 517 63 514 47 c 2
 509 17 l 1
 486 -3 l 1
 486 -3 257 2 208 2 c 0
 156 2 37 -3 37 -3 c 1
 21 17 l 1
 26 47 l 2
 29 63 54 72 92 72 c 2
 115 72 l 2
 166 72 202 113 241 175 c 0
 439 502 909 1284 909 1284 c 2
 927.023 1313.99 963 1348 986 1348 c 0
 1052 1348 1067 1328 1076 1284 c 2
 1297 186 l 2
 1312.29 110.057 1335 72 1386 72 c 2
 1408 72 l 2
 1437 72 1468 64 1468 47 c 1
 1463 16 l 1
 1425 -2 l 1
 1385.27 -1.12202 l 1
 1386 -2 l 1
 1222 -2 1110 -155 1110 -261 c 0
 1110 -326 1155 -380 1229 -380 c 0
 1290 -380 1332 -350 1372 -308 c 1
 1402 -324 l 1
 1354 -420 1251 -461 1178 -461 c 0
647 589 m 2
 962 589 l 1
 930 759 913 837 879 1012 c 1
 801 879 721 747 643 614 c 1
 641 600 l 2
 641 598 640 596 640 595 c 0
 640 591 643 589 647 589 c 2
EndSplineSet
EndChar

